%TF.GenerationSoftware,KiCad,Pcbnew,5.1.12-84ad8e8a86~92~ubuntu20.04.1*%
%TF.CreationDate,2021-11-23T15:55:34+01:00*%
%TF.ProjectId,ESP32wShiftRegisters,45535033-3277-4536-9869-667452656769,rev?*%
%TF.SameCoordinates,Original*%
%TF.FileFunction,Copper,L1,Top*%
%TF.FilePolarity,Positive*%
%FSLAX46Y46*%
G04 Gerber Fmt 4.6, Leading zero omitted, Abs format (unit mm)*
G04 Created by KiCad (PCBNEW 5.1.12-84ad8e8a86~92~ubuntu20.04.1) date 2021-11-23 15:55:34*
%MOMM*%
%LPD*%
G01*
G04 APERTURE LIST*
%TA.AperFunction,ComponentPad*%
%ADD10R,1.800000X4.400000*%
%TD*%
%TA.AperFunction,ComponentPad*%
%ADD11O,1.800000X4.000000*%
%TD*%
%TA.AperFunction,ComponentPad*%
%ADD12O,4.000000X1.800000*%
%TD*%
%TA.AperFunction,ComponentPad*%
%ADD13O,1.600000X1.600000*%
%TD*%
%TA.AperFunction,ComponentPad*%
%ADD14R,1.600000X1.600000*%
%TD*%
%TA.AperFunction,ComponentPad*%
%ADD15C,1.800000*%
%TD*%
%TA.AperFunction,ComponentPad*%
%ADD16R,1.800000X1.800000*%
%TD*%
%TA.AperFunction,ComponentPad*%
%ADD17O,1.905000X2.000000*%
%TD*%
%TA.AperFunction,ComponentPad*%
%ADD18R,1.905000X2.000000*%
%TD*%
%TA.AperFunction,ComponentPad*%
%ADD19C,1.524000*%
%TD*%
%TA.AperFunction,ComponentPad*%
%ADD20R,1.524000X1.524000*%
%TD*%
%TA.AperFunction,ComponentPad*%
%ADD21C,1.930400*%
%TD*%
%TA.AperFunction,ComponentPad*%
%ADD22C,1.600000*%
%TD*%
%TA.AperFunction,ComponentPad*%
%ADD23O,1.700000X1.700000*%
%TD*%
%TA.AperFunction,ComponentPad*%
%ADD24R,1.700000X1.700000*%
%TD*%
%TA.AperFunction,ComponentPad*%
%ADD25C,2.270000*%
%TD*%
%TA.AperFunction,ComponentPad*%
%ADD26R,2.270000X2.270000*%
%TD*%
%TA.AperFunction,ViaPad*%
%ADD27C,0.800000*%
%TD*%
%TA.AperFunction,Conductor*%
%ADD28C,0.500000*%
%TD*%
%TA.AperFunction,Conductor*%
%ADD29C,0.250000*%
%TD*%
G04 APERTURE END LIST*
D10*
%TO.P,J23,1*%
%TO.N,Net-(D9-Pad3)*%
X120650000Y-121920000D03*
D11*
%TO.P,J23,2*%
%TO.N,Net-(D9-Pad2)*%
X114850000Y-121920000D03*
D12*
%TO.P,J23,3*%
%TO.N,N/C*%
X117650000Y-126720000D03*
%TD*%
D13*
%TO.P,RN1,9*%
%TO.N,Net-(D1-Pad1)*%
X95250000Y-52070000D03*
%TO.P,RN1,8*%
%TO.N,Net-(D2-Pad1)*%
X95250000Y-54610000D03*
%TO.P,RN1,7*%
%TO.N,Net-(D3-Pad1)*%
X95250000Y-57150000D03*
%TO.P,RN1,6*%
%TO.N,Net-(D4-Pad1)*%
X95250000Y-59690000D03*
%TO.P,RN1,5*%
%TO.N,Net-(D5-Pad1)*%
X95250000Y-62230000D03*
%TO.P,RN1,4*%
%TO.N,Net-(D6-Pad1)*%
X95250000Y-64770000D03*
%TO.P,RN1,3*%
%TO.N,Net-(D7-Pad1)*%
X95250000Y-67310000D03*
%TO.P,RN1,2*%
%TO.N,Net-(D8-Pad1)*%
X95250000Y-69850000D03*
D14*
%TO.P,RN1,1*%
%TO.N,GND*%
X95250000Y-72390000D03*
%TD*%
D15*
%TO.P,D8,2*%
%TO.N,OUT_LED8*%
X130810000Y-110490000D03*
D16*
%TO.P,D8,1*%
%TO.N,Net-(D8-Pad1)*%
X130810000Y-107950000D03*
%TD*%
D15*
%TO.P,D7,2*%
%TO.N,OUT_LED7*%
X130810000Y-99060000D03*
D16*
%TO.P,D7,1*%
%TO.N,Net-(D7-Pad1)*%
X130810000Y-96520000D03*
%TD*%
D15*
%TO.P,D6,2*%
%TO.N,OUT_LED6*%
X130810000Y-87630000D03*
D16*
%TO.P,D6,1*%
%TO.N,Net-(D6-Pad1)*%
X130810000Y-85090000D03*
%TD*%
D15*
%TO.P,D5,2*%
%TO.N,OUT_LED5*%
X130810000Y-76200000D03*
D16*
%TO.P,D5,1*%
%TO.N,Net-(D5-Pad1)*%
X130810000Y-73660000D03*
%TD*%
D15*
%TO.P,D4,2*%
%TO.N,OUT_LED4*%
X130810000Y-64770000D03*
D16*
%TO.P,D4,1*%
%TO.N,Net-(D4-Pad1)*%
X130810000Y-62230000D03*
%TD*%
D15*
%TO.P,D3,2*%
%TO.N,OUT_LED3*%
X130810000Y-53340000D03*
D16*
%TO.P,D3,1*%
%TO.N,Net-(D3-Pad1)*%
X130810000Y-50800000D03*
%TD*%
D15*
%TO.P,D2,2*%
%TO.N,OUT_LED2*%
X130810000Y-43180000D03*
D16*
%TO.P,D2,1*%
%TO.N,Net-(D2-Pad1)*%
X130810000Y-40640000D03*
%TD*%
D15*
%TO.P,D1,2*%
%TO.N,OUT_LED1*%
X130810000Y-31750000D03*
D16*
%TO.P,D1,1*%
%TO.N,Net-(D1-Pad1)*%
X130810000Y-29210000D03*
%TD*%
D17*
%TO.P,U14,3*%
%TO.N,5V*%
X62230000Y-121920000D03*
%TO.P,U14,2*%
%TO.N,GND*%
X64770000Y-121920000D03*
D18*
%TO.P,U14,1*%
%TO.N,Net-(D9-Pad1)*%
X67310000Y-121920000D03*
%TD*%
D13*
%TO.P,U13,16*%
%TO.N,5V*%
X67310000Y-107950000D03*
%TO.P,U13,8*%
%TO.N,GND*%
X74930000Y-90170000D03*
%TO.P,U13,15*%
%TO.N,P2S_CE*%
X67310000Y-105410000D03*
%TO.P,U13,7*%
%TO.N,P2S_CASC1*%
X74930000Y-92710000D03*
%TO.P,U13,14*%
%TO.N,Net-(U13-Pad14)*%
X67310000Y-102870000D03*
%TO.P,U13,6*%
%TO.N,Net-(U13-Pad6)*%
X74930000Y-95250000D03*
%TO.P,U13,13*%
%TO.N,Net-(U13-Pad13)*%
X67310000Y-100330000D03*
%TO.P,U13,5*%
%TO.N,Net-(U13-Pad5)*%
X74930000Y-97790000D03*
%TO.P,U13,12*%
%TO.N,Net-(U13-Pad12)*%
X67310000Y-97790000D03*
%TO.P,U13,4*%
%TO.N,Net-(U13-Pad4)*%
X74930000Y-100330000D03*
%TO.P,U13,11*%
%TO.N,Net-(U13-Pad11)*%
X67310000Y-95250000D03*
%TO.P,U13,3*%
%TO.N,Net-(U13-Pad3)*%
X74930000Y-102870000D03*
%TO.P,U13,10*%
%TO.N,P2S_CASC2*%
X67310000Y-92710000D03*
%TO.P,U13,2*%
%TO.N,P2S_SCK*%
X74930000Y-105410000D03*
%TO.P,U13,9*%
%TO.N,N/C*%
X67310000Y-90170000D03*
D14*
%TO.P,U13,1*%
%TO.N,P2S_SHLD*%
X74930000Y-107950000D03*
%TD*%
D13*
%TO.P,U12,18*%
%TO.N,N/C*%
X34290000Y-111760000D03*
%TO.P,U12,9*%
X41910000Y-91440000D03*
%TO.P,U12,17*%
X34290000Y-109220000D03*
%TO.P,U12,8*%
%TO.N,GND*%
X41910000Y-93980000D03*
%TO.P,U12,16*%
%TO.N,5V*%
X34290000Y-106680000D03*
%TO.P,U12,7*%
%TO.N,P2S_CASC2*%
X41910000Y-96520000D03*
%TO.P,U12,15*%
%TO.N,P2S_CE*%
X34290000Y-104140000D03*
%TO.P,U12,6*%
%TO.N,Net-(U10-Pad1)*%
X41910000Y-99060000D03*
%TO.P,U12,14*%
%TO.N,Net-(U10-Pad6)*%
X34290000Y-101600000D03*
%TO.P,U12,5*%
%TO.N,Net-(U10-Pad15)*%
X41910000Y-101600000D03*
%TO.P,U12,13*%
%TO.N,Net-(U10-Pad4)*%
X34290000Y-99060000D03*
%TO.P,U12,4*%
%TO.N,Net-(U10-Pad13)*%
X41910000Y-104140000D03*
%TO.P,U12,12*%
%TO.N,Net-(U10-Pad5)*%
X34290000Y-96520000D03*
%TO.P,U12,3*%
%TO.N,Net-(U10-Pad14)*%
X41910000Y-106680000D03*
%TO.P,U12,11*%
%TO.N,Net-(U10-Pad7)*%
X34290000Y-93980000D03*
%TO.P,U12,2*%
%TO.N,P2S_SCK*%
X41910000Y-109220000D03*
%TO.P,U12,10*%
%TO.N,P2S_CASC3*%
X34290000Y-91440000D03*
D14*
%TO.P,U12,1*%
%TO.N,P2S_SHLD*%
X41910000Y-111760000D03*
%TD*%
D13*
%TO.P,U11,16*%
%TO.N,5V*%
X121920000Y-25400000D03*
%TO.P,U11,8*%
%TO.N,GND*%
X114300000Y-43180000D03*
%TO.P,U11,15*%
%TO.N,P2S_CE*%
X121920000Y-27940000D03*
%TO.P,U11,7*%
%TO.N,P2S_CASC3*%
X114300000Y-40640000D03*
%TO.P,U11,14*%
%TO.N,Net-(J3-Pad5)*%
X121920000Y-30480000D03*
%TO.P,U11,6*%
%TO.N,Net-(J3-Pad1)*%
X114300000Y-38100000D03*
%TO.P,U11,13*%
%TO.N,Net-(J3-Pad6)*%
X121920000Y-33020000D03*
%TO.P,U11,5*%
%TO.N,Net-(J3-Pad2)*%
X114300000Y-35560000D03*
%TO.P,U11,12*%
%TO.N,Net-(J3-Pad7)*%
X121920000Y-35560000D03*
%TO.P,U11,4*%
%TO.N,Net-(J3-Pad3)*%
X114300000Y-33020000D03*
%TO.P,U11,11*%
%TO.N,Net-(J3-Pad8)*%
X121920000Y-38100000D03*
%TO.P,U11,3*%
%TO.N,Net-(J3-Pad4)*%
X114300000Y-30480000D03*
%TO.P,U11,10*%
%TO.N,N/C*%
X121920000Y-40640000D03*
%TO.P,U11,2*%
%TO.N,P2S_SCK*%
X114300000Y-27940000D03*
%TO.P,U11,9*%
%TO.N,N/C*%
X121920000Y-43180000D03*
D14*
%TO.P,U11,1*%
%TO.N,P2S_SHLD*%
X114300000Y-25400000D03*
%TD*%
D13*
%TO.P,U10,16*%
%TO.N,5V*%
X20320000Y-110490000D03*
%TO.P,U10,8*%
%TO.N,GND*%
X27940000Y-92710000D03*
%TO.P,U10,15*%
%TO.N,Net-(U10-Pad15)*%
X20320000Y-107950000D03*
%TO.P,U10,7*%
%TO.N,Net-(U10-Pad7)*%
X27940000Y-95250000D03*
%TO.P,U10,14*%
%TO.N,Net-(U10-Pad14)*%
X20320000Y-105410000D03*
%TO.P,U10,6*%
%TO.N,Net-(U10-Pad6)*%
X27940000Y-97790000D03*
%TO.P,U10,13*%
%TO.N,Net-(U10-Pad13)*%
X20320000Y-102870000D03*
%TO.P,U10,5*%
%TO.N,Net-(U10-Pad5)*%
X27940000Y-100330000D03*
%TO.P,U10,12*%
%TO.N,CNT_RESET*%
X20320000Y-100330000D03*
%TO.P,U10,4*%
%TO.N,Net-(U10-Pad4)*%
X27940000Y-102870000D03*
%TO.P,U10,11*%
%TO.N,Net-(R7-Pad2)*%
X20320000Y-97790000D03*
%TO.P,U10,3*%
%TO.N,N/C*%
X27940000Y-105410000D03*
%TO.P,U10,10*%
X20320000Y-95250000D03*
%TO.P,U10,2*%
X27940000Y-107950000D03*
%TO.P,U10,9*%
%TO.N,Net-(R5-Pad2)*%
X20320000Y-92710000D03*
D14*
%TO.P,U10,1*%
%TO.N,Net-(U10-Pad1)*%
X27940000Y-110490000D03*
%TD*%
D13*
%TO.P,U9,16*%
%TO.N,5V*%
X53340000Y-107950000D03*
%TO.P,U9,8*%
%TO.N,GND*%
X60960000Y-90170000D03*
%TO.P,U9,15*%
%TO.N,Net-(U13-Pad5)*%
X53340000Y-105410000D03*
%TO.P,U9,7*%
%TO.N,Net-(U13-Pad11)*%
X60960000Y-92710000D03*
%TO.P,U9,14*%
%TO.N,Net-(U13-Pad3)*%
X53340000Y-102870000D03*
%TO.P,U9,6*%
%TO.N,Net-(U13-Pad14)*%
X60960000Y-95250000D03*
%TO.P,U9,13*%
%TO.N,Net-(U13-Pad4)*%
X53340000Y-100330000D03*
%TO.P,U9,5*%
%TO.N,Net-(U13-Pad12)*%
X60960000Y-97790000D03*
%TO.P,U9,12*%
%TO.N,CNT_RESET*%
X53340000Y-97790000D03*
%TO.P,U9,4*%
%TO.N,Net-(U13-Pad13)*%
X60960000Y-100330000D03*
%TO.P,U9,11*%
%TO.N,Net-(R8-Pad2)*%
X53340000Y-95250000D03*
%TO.P,U9,3*%
%TO.N,N/C*%
X60960000Y-102870000D03*
%TO.P,U9,10*%
X53340000Y-92710000D03*
%TO.P,U9,2*%
X60960000Y-105410000D03*
%TO.P,U9,9*%
%TO.N,Net-(R6-Pad2)*%
X53340000Y-90170000D03*
D14*
%TO.P,U9,1*%
%TO.N,Net-(U13-Pad6)*%
X60960000Y-107950000D03*
%TD*%
D13*
%TO.P,U8,16*%
%TO.N,5V*%
X107950000Y-59690000D03*
%TO.P,U8,8*%
%TO.N,GND*%
X100330000Y-77470000D03*
%TO.P,U8,15*%
%TO.N,P2S_CE*%
X107950000Y-62230000D03*
%TO.P,U8,7*%
%TO.N,P2S_SDA*%
X100330000Y-74930000D03*
%TO.P,U8,14*%
%TO.N,D3*%
X107950000Y-64770000D03*
%TO.P,U8,6*%
%TO.N,D7*%
X100330000Y-72390000D03*
%TO.P,U8,13*%
%TO.N,D2*%
X107950000Y-67310000D03*
%TO.P,U8,5*%
%TO.N,D6*%
X100330000Y-69850000D03*
%TO.P,U8,12*%
%TO.N,D1*%
X107950000Y-69850000D03*
%TO.P,U8,4*%
%TO.N,D5*%
X100330000Y-67310000D03*
%TO.P,U8,11*%
%TO.N,D0*%
X107950000Y-72390000D03*
%TO.P,U8,3*%
%TO.N,D4*%
X100330000Y-64770000D03*
%TO.P,U8,10*%
%TO.N,P2S_CASC1*%
X107950000Y-74930000D03*
%TO.P,U8,2*%
%TO.N,P2S_SCK*%
X100330000Y-62230000D03*
%TO.P,U8,9*%
%TO.N,N/C*%
X107950000Y-77470000D03*
D14*
%TO.P,U8,1*%
%TO.N,P2S_SHLD*%
X100330000Y-59690000D03*
%TD*%
D19*
%TO.P,U7,HV4*%
%TO.N,CNT_RESET*%
X26670000Y-87630000D03*
%TO.P,U7,HV3*%
%TO.N,S2P_SDA*%
X26670000Y-85090000D03*
%TO.P,U7,GND_1*%
%TO.N,GND*%
X26670000Y-82550000D03*
%TO.P,U7,HV*%
%TO.N,5V*%
X26670000Y-80010000D03*
%TO.P,U7,HV2*%
%TO.N,S2P_SCL*%
X26670000Y-77470000D03*
D20*
%TO.P,U7,HV1*%
%TO.N,S2P_LATCH*%
X26670000Y-74930000D03*
D19*
%TO.P,U7,LV4*%
%TO.N,3VCNT_RESET*%
X16510000Y-87630000D03*
%TO.P,U7,LV3*%
%TO.N,3VS2P_SDA*%
X16510000Y-85090000D03*
%TO.P,U7,GND_2*%
%TO.N,GND*%
X16510000Y-82550000D03*
%TO.P,U7,LV*%
%TO.N,+3V*%
X16510000Y-80010000D03*
%TO.P,U7,LV2*%
%TO.N,3VS2P_SCL*%
X16510000Y-77470000D03*
D20*
%TO.P,U7,LV1*%
%TO.N,3VS2P_LATCH*%
X16510000Y-74930000D03*
%TD*%
D19*
%TO.P,U6,HV4*%
%TO.N,P2S_CE*%
X34290000Y-85090000D03*
%TO.P,U6,HV3*%
%TO.N,P2S_SHLD*%
X36830000Y-85090000D03*
%TO.P,U6,GND_1*%
%TO.N,GND*%
X39370000Y-85090000D03*
%TO.P,U6,HV*%
%TO.N,5V*%
X41910000Y-85090000D03*
%TO.P,U6,HV2*%
%TO.N,P2S_SCK*%
X44450000Y-85090000D03*
D20*
%TO.P,U6,HV1*%
%TO.N,P2S_SDA*%
X46990000Y-85090000D03*
D19*
%TO.P,U6,LV4*%
%TO.N,3VP2S_CE*%
X34290000Y-74930000D03*
%TO.P,U6,LV3*%
%TO.N,3VP2S_SHLD*%
X36830000Y-74930000D03*
%TO.P,U6,GND_2*%
%TO.N,GND*%
X39370000Y-74930000D03*
%TO.P,U6,LV*%
%TO.N,+3V*%
X41910000Y-74930000D03*
%TO.P,U6,LV2*%
%TO.N,3VP2S_SCK*%
X44450000Y-74930000D03*
D20*
%TO.P,U6,LV1*%
%TO.N,3VP2S_SDA*%
X46990000Y-74930000D03*
%TD*%
D21*
%TO.P,U5,16*%
%TO.N,EN*%
X52060000Y-42110000D03*
%TO.P,U5,17*%
%TO.N,VP*%
X49520000Y-42110000D03*
%TO.P,U5,18*%
%TO.N,VN*%
X46980000Y-42110000D03*
%TO.P,U5,19*%
%TO.N,IO34*%
X44440000Y-42110000D03*
%TO.P,U5,20*%
%TO.N,IO35*%
X41900000Y-42110000D03*
%TO.P,U5,21*%
%TO.N,IO32*%
X39360000Y-42110000D03*
%TO.P,U5,22*%
%TO.N,IO33*%
X36820000Y-42110000D03*
%TO.P,U5,23*%
%TO.N,IO25*%
X34280000Y-42110000D03*
%TO.P,U5,24*%
%TO.N,XSHUT3*%
X31740000Y-42110000D03*
%TO.P,U5,25*%
%TO.N,XSHUT2*%
X29200000Y-42110000D03*
%TO.P,U5,26*%
%TO.N,XSHUT1*%
X26660000Y-42110000D03*
%TO.P,U5,27*%
%TO.N,N/C*%
X24120000Y-42110000D03*
%TO.P,U5,28*%
%TO.N,3VCNT_RESET*%
X21580000Y-42110000D03*
%TO.P,U5,29*%
%TO.N,GND*%
X19040000Y-42110000D03*
%TO.P,U5,30*%
%TO.N,5V*%
X16500000Y-42110000D03*
%TO.P,U5,15*%
%TO.N,3VP2S_SDA*%
X52060000Y-66880000D03*
%TO.P,U5,14*%
%TO.N,I2C_SCL*%
X49520000Y-66880000D03*
%TO.P,U5,13*%
%TO.N,N/C*%
X46980000Y-66880000D03*
%TO.P,U5,12*%
%TO.N,3VP2S_SCK*%
X44440000Y-66880000D03*
%TO.P,U5,11*%
%TO.N,I2C_SDA*%
X41900000Y-66880000D03*
%TO.P,U5,10*%
%TO.N,3VP2S_SHLD*%
X39360000Y-66880000D03*
%TO.P,U5,9*%
%TO.N,3VP2S_CE*%
X36820000Y-66880000D03*
%TO.P,U5,8*%
%TO.N,M_PWMB*%
X34280000Y-66880000D03*
%TO.P,U5,7*%
%TO.N,3VS2P_SCL*%
X31740000Y-66880000D03*
%TO.P,U5,6*%
%TO.N,3VS2P_LATCH*%
X29200000Y-66880000D03*
%TO.P,U5,5*%
%TO.N,3VS2P_SDA*%
X26660000Y-66880000D03*
%TO.P,U5,4*%
%TO.N,N/C*%
X24120000Y-66880000D03*
%TO.P,U5,3*%
%TO.N,M_PWMA*%
X21580000Y-66880000D03*
%TO.P,U5,2*%
%TO.N,GND*%
X19040000Y-66880000D03*
%TO.P,U5,1*%
%TO.N,+3V*%
X16500000Y-66880000D03*
%TD*%
D13*
%TO.P,U4,20*%
%TO.N,5V*%
X69850000Y-34290000D03*
%TO.P,U4,10*%
%TO.N,GND*%
X62230000Y-57150000D03*
%TO.P,U4,19*%
%TO.N,Net-(R4-Pad2)*%
X69850000Y-36830000D03*
%TO.P,U4,9*%
%TO.N,Net-(J2-Pad1)*%
X62230000Y-54610000D03*
%TO.P,U4,18*%
%TO.N,IN1*%
X69850000Y-39370000D03*
%TO.P,U4,8*%
%TO.N,595_OUT3*%
X62230000Y-52070000D03*
%TO.P,U4,17*%
%TO.N,595_OUT4*%
X69850000Y-41910000D03*
%TO.P,U4,7*%
%TO.N,Net-(J2-Pad2)*%
X62230000Y-49530000D03*
%TO.P,U4,16*%
%TO.N,IN2*%
X69850000Y-44450000D03*
%TO.P,U4,6*%
%TO.N,595_OUT2*%
X62230000Y-46990000D03*
%TO.P,U4,15*%
%TO.N,595_OUT5*%
X69850000Y-46990000D03*
%TO.P,U4,5*%
%TO.N,Net-(J2-Pad3)*%
X62230000Y-44450000D03*
%TO.P,U4,14*%
%TO.N,IN3*%
X69850000Y-49530000D03*
%TO.P,U4,4*%
%TO.N,595_OUT1*%
X62230000Y-41910000D03*
%TO.P,U4,13*%
%TO.N,595_OUT6*%
X69850000Y-52070000D03*
%TO.P,U4,3*%
%TO.N,Net-(J2-Pad4)*%
X62230000Y-39370000D03*
%TO.P,U4,12*%
%TO.N,IN4*%
X69850000Y-54610000D03*
%TO.P,U4,2*%
%TO.N,595_OUT0*%
X62230000Y-36830000D03*
%TO.P,U4,11*%
%TO.N,595_OUT7*%
X69850000Y-57150000D03*
D14*
%TO.P,U4,1*%
%TO.N,Net-(R4-Pad2)*%
X62230000Y-34290000D03*
%TD*%
D13*
%TO.P,U3,20*%
%TO.N,5V*%
X121920000Y-54610000D03*
%TO.P,U3,10*%
%TO.N,GND*%
X114300000Y-77470000D03*
%TO.P,U3,19*%
%TO.N,Net-(R1-Pad2)*%
X121920000Y-57150000D03*
%TO.P,U3,9*%
%TO.N,OUT_LED8*%
X114300000Y-74930000D03*
%TO.P,U3,18*%
%TO.N,OUT_LED1*%
X121920000Y-59690000D03*
%TO.P,U3,8*%
%TO.N,D3*%
X114300000Y-72390000D03*
%TO.P,U3,17*%
%TO.N,D4*%
X121920000Y-62230000D03*
%TO.P,U3,7*%
%TO.N,OUT_LED7*%
X114300000Y-69850000D03*
%TO.P,U3,16*%
%TO.N,OUT_LED2*%
X121920000Y-64770000D03*
%TO.P,U3,6*%
%TO.N,D2*%
X114300000Y-67310000D03*
%TO.P,U3,15*%
%TO.N,D5*%
X121920000Y-67310000D03*
%TO.P,U3,5*%
%TO.N,OUT_LED6*%
X114300000Y-64770000D03*
%TO.P,U3,14*%
%TO.N,OUT_LED3*%
X121920000Y-69850000D03*
%TO.P,U3,4*%
%TO.N,D1*%
X114300000Y-62230000D03*
%TO.P,U3,13*%
%TO.N,D6*%
X121920000Y-72390000D03*
%TO.P,U3,3*%
%TO.N,OUT_LED5*%
X114300000Y-59690000D03*
%TO.P,U3,12*%
%TO.N,OUT_LED4*%
X121920000Y-74930000D03*
%TO.P,U3,2*%
%TO.N,D0*%
X114300000Y-57150000D03*
%TO.P,U3,11*%
%TO.N,D7*%
X121920000Y-77470000D03*
D14*
%TO.P,U3,1*%
%TO.N,Net-(R1-Pad2)*%
X114300000Y-54610000D03*
%TD*%
D13*
%TO.P,U2,16*%
%TO.N,5V*%
X87630000Y-39370000D03*
%TO.P,U2,8*%
%TO.N,GND*%
X80010000Y-57150000D03*
%TO.P,U2,15*%
%TO.N,595_OUT0*%
X87630000Y-41910000D03*
%TO.P,U2,7*%
%TO.N,595_OUT7*%
X80010000Y-54610000D03*
%TO.P,U2,14*%
%TO.N,S2P_SDA*%
X87630000Y-44450000D03*
%TO.P,U2,6*%
%TO.N,595_OUT6*%
X80010000Y-52070000D03*
%TO.P,U2,13*%
%TO.N,GND*%
X87630000Y-46990000D03*
%TO.P,U2,5*%
%TO.N,595_OUT5*%
X80010000Y-49530000D03*
%TO.P,U2,12*%
%TO.N,S2P_LATCH*%
X87630000Y-49530000D03*
%TO.P,U2,4*%
%TO.N,595_OUT4*%
X80010000Y-46990000D03*
%TO.P,U2,11*%
%TO.N,S2P_SCL*%
X87630000Y-52070000D03*
%TO.P,U2,3*%
%TO.N,595_OUT3*%
X80010000Y-44450000D03*
%TO.P,U2,10*%
%TO.N,Net-(R2-Pad2)*%
X87630000Y-54610000D03*
%TO.P,U2,2*%
%TO.N,595_OUT2*%
X80010000Y-41910000D03*
%TO.P,U2,9*%
%TO.N,Net-(U1-Pad14)*%
X87630000Y-57150000D03*
D14*
%TO.P,U2,1*%
%TO.N,595_OUT1*%
X80010000Y-39370000D03*
%TD*%
D13*
%TO.P,U1,16*%
%TO.N,5V*%
X105410000Y-25400000D03*
%TO.P,U1,8*%
%TO.N,GND*%
X97790000Y-43180000D03*
%TO.P,U1,15*%
%TO.N,Net-(J1-Pad1)*%
X105410000Y-27940000D03*
%TO.P,U1,7*%
%TO.N,Net-(J1-Pad8)*%
X97790000Y-40640000D03*
%TO.P,U1,14*%
%TO.N,Net-(U1-Pad14)*%
X105410000Y-30480000D03*
%TO.P,U1,6*%
%TO.N,Net-(J1-Pad7)*%
X97790000Y-38100000D03*
%TO.P,U1,13*%
%TO.N,GND*%
X105410000Y-33020000D03*
%TO.P,U1,5*%
%TO.N,Net-(J1-Pad6)*%
X97790000Y-35560000D03*
%TO.P,U1,12*%
%TO.N,S2P_LATCH*%
X105410000Y-35560000D03*
%TO.P,U1,4*%
%TO.N,Net-(J1-Pad5)*%
X97790000Y-33020000D03*
%TO.P,U1,11*%
%TO.N,S2P_SCL*%
X105410000Y-38100000D03*
%TO.P,U1,3*%
%TO.N,Net-(J1-Pad4)*%
X97790000Y-30480000D03*
%TO.P,U1,10*%
%TO.N,Net-(R3-Pad2)*%
X105410000Y-40640000D03*
%TO.P,U1,2*%
%TO.N,Net-(J1-Pad3)*%
X97790000Y-27940000D03*
%TO.P,U1,9*%
%TO.N,N/C*%
X105410000Y-43180000D03*
D14*
%TO.P,U1,1*%
%TO.N,Net-(J1-Pad2)*%
X97790000Y-25400000D03*
%TD*%
D13*
%TO.P,R8,2*%
%TO.N,Net-(R8-Pad2)*%
X67310000Y-86360000D03*
D22*
%TO.P,R8,1*%
%TO.N,CNT1_IN*%
X67310000Y-76200000D03*
%TD*%
D13*
%TO.P,R7,2*%
%TO.N,Net-(R7-Pad2)*%
X52070000Y-82550000D03*
D22*
%TO.P,R7,1*%
%TO.N,CNT1_IN*%
X62230000Y-82550000D03*
%TD*%
D13*
%TO.P,R6,2*%
%TO.N,Net-(R6-Pad2)*%
X39370000Y-121920000D03*
D22*
%TO.P,R6,1*%
%TO.N,5V*%
X29210000Y-121920000D03*
%TD*%
D13*
%TO.P,R5,2*%
%TO.N,Net-(R5-Pad2)*%
X16510000Y-91440000D03*
D22*
%TO.P,R5,1*%
%TO.N,5V*%
X16510000Y-101600000D03*
%TD*%
D13*
%TO.P,R4,2*%
%TO.N,Net-(R4-Pad2)*%
X73660000Y-31750000D03*
D22*
%TO.P,R4,1*%
%TO.N,5V*%
X83820000Y-31750000D03*
%TD*%
D13*
%TO.P,R3,2*%
%TO.N,Net-(R3-Pad2)*%
X109220000Y-40640000D03*
D22*
%TO.P,R3,1*%
%TO.N,5V*%
X109220000Y-30480000D03*
%TD*%
D13*
%TO.P,R2,2*%
%TO.N,Net-(R2-Pad2)*%
X91440000Y-69850000D03*
D22*
%TO.P,R2,1*%
%TO.N,5V*%
X81280000Y-69850000D03*
%TD*%
D13*
%TO.P,R1,2*%
%TO.N,Net-(R1-Pad2)*%
X111760000Y-49530000D03*
D22*
%TO.P,R1,1*%
%TO.N,5V*%
X101600000Y-49530000D03*
%TD*%
D23*
%TO.P,J22,3*%
%TO.N,CNT1_IN*%
X82550000Y-17780000D03*
%TO.P,J22,2*%
%TO.N,GND*%
X85090000Y-17780000D03*
D24*
%TO.P,J22,1*%
%TO.N,5V*%
X87630000Y-17780000D03*
%TD*%
D23*
%TO.P,J21,3*%
%TO.N,CNT1_IN*%
X95250000Y-17780000D03*
%TO.P,J21,2*%
%TO.N,GND*%
X97790000Y-17780000D03*
D24*
%TO.P,J21,1*%
%TO.N,5V*%
X100330000Y-17780000D03*
%TD*%
D23*
%TO.P,J20,3*%
%TO.N,D7*%
X135890000Y-111760000D03*
%TO.P,J20,2*%
%TO.N,GND*%
X135890000Y-109220000D03*
D24*
%TO.P,J20,1*%
%TO.N,5V*%
X135890000Y-106680000D03*
%TD*%
D23*
%TO.P,J19,4*%
%TO.N,I2C_SDA*%
X55880000Y-26670000D03*
%TO.P,J19,3*%
%TO.N,I2C_SCL*%
X55880000Y-24130000D03*
%TO.P,J19,2*%
%TO.N,GND*%
X55880000Y-21590000D03*
D24*
%TO.P,J19,1*%
%TO.N,+3V*%
X55880000Y-19050000D03*
%TD*%
D23*
%TO.P,J18,3*%
%TO.N,D6*%
X135890000Y-100330000D03*
%TO.P,J18,2*%
%TO.N,GND*%
X135890000Y-97790000D03*
D24*
%TO.P,J18,1*%
%TO.N,5V*%
X135890000Y-95250000D03*
%TD*%
D23*
%TO.P,J17,8*%
%TO.N,EN*%
X52070000Y-38100000D03*
%TO.P,J17,7*%
%TO.N,VP*%
X49530000Y-38100000D03*
%TO.P,J17,6*%
%TO.N,VN*%
X46990000Y-38100000D03*
%TO.P,J17,5*%
%TO.N,IO34*%
X44450000Y-38100000D03*
%TO.P,J17,4*%
%TO.N,IO35*%
X41910000Y-38100000D03*
%TO.P,J17,3*%
%TO.N,IO32*%
X39370000Y-38100000D03*
%TO.P,J17,2*%
%TO.N,IO33*%
X36830000Y-38100000D03*
D24*
%TO.P,J17,1*%
%TO.N,IO25*%
X34290000Y-38100000D03*
%TD*%
D23*
%TO.P,J16,6*%
%TO.N,XSHUT3*%
X41910000Y-31750000D03*
%TO.P,J16,5*%
%TO.N,N/C*%
X41910000Y-29210000D03*
%TO.P,J16,4*%
%TO.N,I2C_SDA*%
X41910000Y-26670000D03*
%TO.P,J16,3*%
%TO.N,I2C_SCL*%
X41910000Y-24130000D03*
%TO.P,J16,2*%
%TO.N,GND*%
X41910000Y-21590000D03*
D24*
%TO.P,J16,1*%
%TO.N,+3V*%
X41910000Y-19050000D03*
%TD*%
D23*
%TO.P,J15,7*%
%TO.N,GND*%
X74930000Y-39370000D03*
%TO.P,J15,6*%
%TO.N,M_PWMA*%
X74930000Y-41910000D03*
%TO.P,J15,5*%
%TO.N,IN1*%
X74930000Y-44450000D03*
%TO.P,J15,4*%
%TO.N,IN2*%
X74930000Y-46990000D03*
%TO.P,J15,3*%
%TO.N,IN3*%
X74930000Y-49530000D03*
%TO.P,J15,2*%
%TO.N,IN4*%
X74930000Y-52070000D03*
D24*
%TO.P,J15,1*%
%TO.N,M_PWMB*%
X74930000Y-54610000D03*
%TD*%
D23*
%TO.P,J14,4*%
%TO.N,I2C_SDA*%
X62230000Y-26670000D03*
%TO.P,J14,3*%
%TO.N,I2C_SCL*%
X62230000Y-24130000D03*
%TO.P,J14,2*%
%TO.N,GND*%
X62230000Y-21590000D03*
D24*
%TO.P,J14,1*%
%TO.N,+3V*%
X62230000Y-19050000D03*
%TD*%
D23*
%TO.P,J13,3*%
%TO.N,D5*%
X135890000Y-88900000D03*
%TO.P,J13,2*%
%TO.N,GND*%
X135890000Y-86360000D03*
D24*
%TO.P,J13,1*%
%TO.N,5V*%
X135890000Y-83820000D03*
%TD*%
D23*
%TO.P,J12,6*%
%TO.N,XSHUT2*%
X34290000Y-31750000D03*
%TO.P,J12,5*%
%TO.N,N/C*%
X34290000Y-29210000D03*
%TO.P,J12,4*%
%TO.N,I2C_SDA*%
X34290000Y-26670000D03*
%TO.P,J12,3*%
%TO.N,I2C_SCL*%
X34290000Y-24130000D03*
%TO.P,J12,2*%
%TO.N,GND*%
X34290000Y-21590000D03*
D24*
%TO.P,J12,1*%
%TO.N,+3V*%
X34290000Y-19050000D03*
%TD*%
D23*
%TO.P,J11,4*%
%TO.N,I2C_SDA*%
X74930000Y-26670000D03*
%TO.P,J11,3*%
%TO.N,I2C_SCL*%
X74930000Y-24130000D03*
%TO.P,J11,2*%
%TO.N,GND*%
X74930000Y-21590000D03*
D24*
%TO.P,J11,1*%
%TO.N,+3V*%
X74930000Y-19050000D03*
%TD*%
D23*
%TO.P,J10,3*%
%TO.N,D4*%
X135890000Y-77470000D03*
%TO.P,J10,2*%
%TO.N,GND*%
X135890000Y-74930000D03*
D24*
%TO.P,J10,1*%
%TO.N,5V*%
X135890000Y-72390000D03*
%TD*%
D23*
%TO.P,J9,3*%
%TO.N,D3*%
X135890000Y-66040000D03*
%TO.P,J9,2*%
%TO.N,GND*%
X135890000Y-63500000D03*
D24*
%TO.P,J9,1*%
%TO.N,5V*%
X135890000Y-60960000D03*
%TD*%
D23*
%TO.P,J8,6*%
%TO.N,XSHUT1*%
X26670000Y-31750000D03*
%TO.P,J8,5*%
%TO.N,N/C*%
X26670000Y-29210000D03*
%TO.P,J8,4*%
%TO.N,I2C_SDA*%
X26670000Y-26670000D03*
%TO.P,J8,3*%
%TO.N,I2C_SCL*%
X26670000Y-24130000D03*
%TO.P,J8,2*%
%TO.N,GND*%
X26670000Y-21590000D03*
D24*
%TO.P,J8,1*%
%TO.N,+3V*%
X26670000Y-19050000D03*
%TD*%
D23*
%TO.P,J7,4*%
%TO.N,I2C_SDA*%
X68580000Y-26670000D03*
%TO.P,J7,3*%
%TO.N,I2C_SCL*%
X68580000Y-24130000D03*
%TO.P,J7,2*%
%TO.N,GND*%
X68580000Y-21590000D03*
D24*
%TO.P,J7,1*%
%TO.N,+3V*%
X68580000Y-19050000D03*
%TD*%
D23*
%TO.P,J6,3*%
%TO.N,D2*%
X135890000Y-54610000D03*
%TO.P,J6,2*%
%TO.N,GND*%
X135890000Y-52070000D03*
D24*
%TO.P,J6,1*%
%TO.N,5V*%
X135890000Y-49530000D03*
%TD*%
D23*
%TO.P,J5,3*%
%TO.N,D1*%
X135890000Y-43180000D03*
%TO.P,J5,2*%
%TO.N,GND*%
X135890000Y-40640000D03*
D24*
%TO.P,J5,1*%
%TO.N,5V*%
X135890000Y-38100000D03*
%TD*%
D23*
%TO.P,J4,3*%
%TO.N,D0*%
X135890000Y-31750000D03*
%TO.P,J4,2*%
%TO.N,GND*%
X135890000Y-29210000D03*
D24*
%TO.P,J4,1*%
%TO.N,5V*%
X135890000Y-26670000D03*
%TD*%
D23*
%TO.P,J3,8*%
%TO.N,Net-(J3-Pad8)*%
X128270000Y-17780000D03*
%TO.P,J3,7*%
%TO.N,Net-(J3-Pad7)*%
X125730000Y-17780000D03*
%TO.P,J3,6*%
%TO.N,Net-(J3-Pad6)*%
X123190000Y-17780000D03*
%TO.P,J3,5*%
%TO.N,Net-(J3-Pad5)*%
X120650000Y-17780000D03*
%TO.P,J3,4*%
%TO.N,Net-(J3-Pad4)*%
X118110000Y-17780000D03*
%TO.P,J3,3*%
%TO.N,Net-(J3-Pad3)*%
X115570000Y-17780000D03*
%TO.P,J3,2*%
%TO.N,Net-(J3-Pad2)*%
X113030000Y-17780000D03*
D24*
%TO.P,J3,1*%
%TO.N,Net-(J3-Pad1)*%
X110490000Y-17780000D03*
%TD*%
D23*
%TO.P,J2,4*%
%TO.N,Net-(J2-Pad4)*%
X55880000Y-33020000D03*
%TO.P,J2,3*%
%TO.N,Net-(J2-Pad3)*%
X53340000Y-33020000D03*
%TO.P,J2,2*%
%TO.N,Net-(J2-Pad2)*%
X50800000Y-33020000D03*
D24*
%TO.P,J2,1*%
%TO.N,Net-(J2-Pad1)*%
X48260000Y-33020000D03*
%TD*%
D23*
%TO.P,J1,8*%
%TO.N,Net-(J1-Pad8)*%
X92710000Y-40640000D03*
%TO.P,J1,7*%
%TO.N,Net-(J1-Pad7)*%
X92710000Y-38100000D03*
%TO.P,J1,6*%
%TO.N,Net-(J1-Pad6)*%
X92710000Y-35560000D03*
%TO.P,J1,5*%
%TO.N,Net-(J1-Pad5)*%
X92710000Y-33020000D03*
%TO.P,J1,4*%
%TO.N,Net-(J1-Pad4)*%
X92710000Y-30480000D03*
%TO.P,J1,3*%
%TO.N,Net-(J1-Pad3)*%
X92710000Y-27940000D03*
%TO.P,J1,2*%
%TO.N,Net-(J1-Pad2)*%
X92710000Y-25400000D03*
D24*
%TO.P,J1,1*%
%TO.N,Net-(J1-Pad1)*%
X92710000Y-22860000D03*
%TD*%
D25*
%TO.P,D9,4*%
%TO.N,GND*%
X102670000Y-122770000D03*
%TO.P,D9,3*%
%TO.N,Net-(D9-Pad3)*%
X95170000Y-122770000D03*
%TO.P,D9,2*%
%TO.N,Net-(D9-Pad2)*%
X87670000Y-122770000D03*
D26*
%TO.P,D9,1*%
%TO.N,Net-(D9-Pad1)*%
X77670000Y-122770000D03*
%TD*%
D22*
%TO.P,C13,2*%
%TO.N,GND*%
X87550000Y-113030000D03*
D14*
%TO.P,C13,1*%
%TO.N,5V*%
X82550000Y-113030000D03*
%TD*%
D22*
%TO.P,C12,2*%
%TO.N,GND*%
X109220000Y-22860000D03*
%TO.P,C12,1*%
%TO.N,5V*%
X109220000Y-25360000D03*
%TD*%
%TO.P,C11,2*%
%TO.N,GND*%
X55840000Y-113030000D03*
%TO.P,C11,1*%
%TO.N,5V*%
X53340000Y-113030000D03*
%TD*%
%TO.P,C10,2*%
%TO.N,GND*%
X85050000Y-62230000D03*
%TO.P,C10,1*%
%TO.N,5V*%
X82550000Y-62230000D03*
%TD*%
%TO.P,C9,2*%
%TO.N,GND*%
X55840000Y-73660000D03*
%TO.P,C9,1*%
%TO.N,5V*%
X53340000Y-73660000D03*
%TD*%
%TO.P,C8,2*%
%TO.N,GND*%
X92710000Y-44490000D03*
%TO.P,C8,1*%
%TO.N,5V*%
X92710000Y-46990000D03*
%TD*%
%TO.P,C7,2*%
%TO.N,GND*%
X105370000Y-83820000D03*
%TO.P,C7,1*%
%TO.N,5V*%
X102870000Y-83820000D03*
%TD*%
%TO.P,C6,2*%
%TO.N,GND*%
X119340000Y-48260000D03*
%TO.P,C6,1*%
%TO.N,5V*%
X116840000Y-48260000D03*
%TD*%
%TO.P,C5,2*%
%TO.N,GND*%
X68540000Y-113030000D03*
%TO.P,C5,1*%
%TO.N,5V*%
X66040000Y-113030000D03*
%TD*%
%TO.P,C4,2*%
%TO.N,GND*%
X25400000Y-115570000D03*
%TO.P,C4,1*%
%TO.N,5V*%
X22900000Y-115570000D03*
%TD*%
%TO.P,C3,2*%
%TO.N,GND*%
X36790000Y-116840000D03*
%TO.P,C3,1*%
%TO.N,5V*%
X34290000Y-116840000D03*
%TD*%
%TO.P,C2,2*%
%TO.N,GND*%
X119340000Y-83820000D03*
%TO.P,C2,1*%
%TO.N,5V*%
X116840000Y-83820000D03*
%TD*%
%TO.P,C1,2*%
%TO.N,GND*%
X64730000Y-62230000D03*
%TO.P,C1,1*%
%TO.N,5V*%
X62230000Y-62230000D03*
%TD*%
D27*
%TO.N,GND*%
X130810000Y-116840000D03*
X128270000Y-115570000D03*
X22860000Y-20320000D03*
X22860000Y-17780000D03*
X62230000Y-87630000D03*
X55880000Y-86360000D03*
X50800000Y-86360000D03*
X49530000Y-91440000D03*
%TO.N,5V*%
X20320000Y-69850000D03*
X16510000Y-52070000D03*
X119380000Y-91440000D03*
X125730000Y-91440000D03*
X110490000Y-46990000D03*
X124460000Y-21590000D03*
X118110000Y-36830000D03*
X111760000Y-36830000D03*
%TO.N,Net-(J3-Pad2)*%
X116840000Y-33020000D03*
%TO.N,Net-(J3-Pad1)*%
X111760000Y-30480000D03*
%TO.N,D0*%
X104140000Y-60960000D03*
X104140000Y-69850000D03*
%TO.N,D1*%
X110490000Y-55880000D03*
X110490000Y-68580000D03*
X116840000Y-68580000D03*
%TO.N,D2*%
X125730000Y-58420000D03*
X118110000Y-62230000D03*
X118110000Y-58420000D03*
%TO.N,I2C_SDA*%
X24130000Y-54610000D03*
%TO.N,I2C_SCL*%
X43180000Y-63500000D03*
X39370000Y-57150000D03*
X40640000Y-49530000D03*
%TO.N,D3*%
X110490000Y-63500000D03*
%TO.N,D4*%
X133350000Y-77470000D03*
X128368499Y-77371501D03*
X133350000Y-80010000D03*
%TO.N,M_PWMA*%
X26670000Y-57150000D03*
X52070000Y-45720000D03*
%TO.N,Net-(R7-Pad2)*%
X31750000Y-88900000D03*
%TO.N,3VCNT_RESET*%
X13970000Y-67310000D03*
%TO.N,P2S_CE*%
X88900000Y-92710000D03*
X101600000Y-81280000D03*
X104140000Y-77470000D03*
X111760000Y-69850000D03*
X111760000Y-64770000D03*
X111760000Y-62230000D03*
X110490000Y-59690000D03*
%TO.N,P2S_SCK*%
X88900000Y-76200000D03*
X97790000Y-69850000D03*
%TO.N,Net-(U10-Pad13)*%
X38493366Y-105016635D03*
%TD*%
D28*
%TO.N,GND*%
X88681370Y-113030000D02*
X91221370Y-115570000D01*
X87550000Y-113030000D02*
X88681370Y-113030000D01*
X95470000Y-115570000D02*
X102670000Y-122770000D01*
X91221370Y-115570000D02*
X95470000Y-115570000D01*
X117789999Y-46669999D02*
X114300000Y-43180000D01*
X117789999Y-46709999D02*
X117789999Y-46669999D01*
X119340000Y-48260000D02*
X117789999Y-46709999D01*
X134687919Y-74930000D02*
X135890000Y-74930000D01*
X134289999Y-74532080D02*
X134687919Y-74930000D01*
X134289999Y-65100001D02*
X134289999Y-74532080D01*
X135890000Y-63500000D02*
X134289999Y-65100001D01*
X133350000Y-119380000D02*
X130810000Y-116840000D01*
X133350000Y-121920000D02*
X133350000Y-119380000D01*
X129540000Y-115570000D02*
X135890000Y-109220000D01*
X128270000Y-115570000D02*
X129540000Y-115570000D01*
X25400000Y-115570000D02*
X19050000Y-121920000D01*
X100330000Y-77470000D02*
X95250000Y-72390000D01*
X137490001Y-76530001D02*
X135890000Y-74930000D01*
X137490001Y-85962080D02*
X137490001Y-76530001D01*
X137092081Y-86360000D02*
X137490001Y-85962080D01*
X135890000Y-86360000D02*
X137092081Y-86360000D01*
X22860000Y-20320000D02*
X22860000Y-17780000D01*
X26340001Y-21919999D02*
X26670000Y-21590000D01*
X20649999Y-21919999D02*
X26340001Y-21919999D01*
X19050000Y-20320000D02*
X20649999Y-21919999D01*
X60960000Y-88900000D02*
X62230000Y-87630000D01*
X60960000Y-90170000D02*
X60960000Y-88900000D01*
X72789999Y-88029999D02*
X74930000Y-90170000D01*
X62629999Y-88029999D02*
X72789999Y-88029999D01*
X62230000Y-87630000D02*
X62629999Y-88029999D01*
X57150000Y-87630000D02*
X55880000Y-86360000D01*
X62230000Y-87630000D02*
X57150000Y-87630000D01*
X50800000Y-90170000D02*
X49530000Y-91440000D01*
X50800000Y-86360000D02*
X50800000Y-90170000D01*
%TO.N,5V*%
X87630000Y-27940000D02*
X83820000Y-31750000D01*
X87630000Y-17780000D02*
X87630000Y-27940000D01*
X81280000Y-34290000D02*
X69850000Y-34290000D01*
X83820000Y-31750000D02*
X81280000Y-34290000D01*
X36830000Y-80010000D02*
X41910000Y-85090000D01*
X26670000Y-80010000D02*
X36830000Y-80010000D01*
X62230000Y-121920000D02*
X57150000Y-121920000D01*
X53340000Y-118110000D02*
X53340000Y-113030000D01*
X57150000Y-121920000D02*
X53340000Y-118110000D01*
X53340000Y-107950000D02*
X53340000Y-111760000D01*
X64489999Y-111479999D02*
X66040000Y-113030000D01*
X53620001Y-111479999D02*
X64489999Y-111479999D01*
X53340000Y-111760000D02*
X53620001Y-111479999D01*
X64489999Y-110770001D02*
X64489999Y-111479999D01*
X67310000Y-107950000D02*
X64489999Y-110770001D01*
X16510000Y-106680000D02*
X20320000Y-110490000D01*
X16510000Y-101600000D02*
X16510000Y-106680000D01*
X20320000Y-112990000D02*
X22900000Y-115570000D01*
X20320000Y-110490000D02*
X20320000Y-112990000D01*
X16500000Y-52060000D02*
X16510000Y-52070000D01*
X16500000Y-42110000D02*
X16500000Y-52060000D01*
X82550000Y-113030000D02*
X81674990Y-113905010D01*
X73265010Y-113905010D02*
X67310000Y-107950000D01*
X81674990Y-113905010D02*
X73265010Y-113905010D01*
X114054002Y-49530000D02*
X114300001Y-49530000D01*
X111514002Y-46990000D02*
X114054002Y-49530000D01*
X110490000Y-46990000D02*
X111514002Y-46990000D01*
X129540000Y-26670000D02*
X124460000Y-21590000D01*
X135890000Y-26670000D02*
X129540000Y-26670000D01*
X21768630Y-115570000D02*
X22900000Y-115570000D01*
X26859999Y-124270001D02*
X17921999Y-124270001D01*
X17921999Y-124270001D02*
X16699999Y-123048001D01*
X16699999Y-123048001D02*
X16699999Y-120638631D01*
X29210000Y-121920000D02*
X26859999Y-124270001D01*
X16699999Y-120638631D02*
X21768630Y-115570000D01*
X53340000Y-113030000D02*
X53340000Y-111760000D01*
D29*
%TO.N,OUT_LED1*%
X123345001Y-39214999D02*
X130810000Y-31750000D01*
X123345001Y-58264999D02*
X123345001Y-39214999D01*
X121920000Y-59690000D02*
X123345001Y-58264999D01*
%TO.N,OUT_LED2*%
X121920000Y-64770000D02*
X125004999Y-61685001D01*
X125004999Y-61685001D02*
X125004999Y-48985001D01*
X125004999Y-48985001D02*
X130810000Y-43180000D01*
%TO.N,OUT_LED3*%
X121920000Y-69850000D02*
X127000000Y-64770000D01*
X127000000Y-57150000D02*
X130810000Y-53340000D01*
X127000000Y-64770000D02*
X127000000Y-57150000D01*
%TO.N,OUT_LED4*%
X130810000Y-66040000D02*
X121920000Y-74930000D01*
X130810000Y-64770000D02*
X130810000Y-66040000D01*
%TO.N,OUT_LED8*%
X127151997Y-106635001D02*
X111760000Y-91243004D01*
X130810000Y-110490000D02*
X132035001Y-109264999D01*
X132035001Y-109264999D02*
X132035001Y-106635001D01*
X132035001Y-106635001D02*
X127151997Y-106635001D01*
X111760000Y-77470000D02*
X114300000Y-74930000D01*
X111760000Y-91243004D02*
X111760000Y-77470000D01*
%TO.N,Net-(D8-Pad1)*%
X93824999Y-71275001D02*
X95250000Y-69850000D01*
X93824999Y-76884001D02*
X93824999Y-71275001D01*
X124890998Y-107950000D02*
X93824999Y-76884001D01*
X130810000Y-107950000D02*
X124890998Y-107950000D01*
%TO.N,Net-(J1-Pad8)*%
X92710000Y-40640000D02*
X97790000Y-40640000D01*
%TO.N,Net-(J1-Pad7)*%
X97790000Y-38100000D02*
X92710000Y-38100000D01*
%TO.N,Net-(J1-Pad6)*%
X92710000Y-35560000D02*
X97790000Y-35560000D01*
%TO.N,Net-(J1-Pad5)*%
X97790000Y-33020000D02*
X92710000Y-33020000D01*
%TO.N,Net-(J1-Pad4)*%
X92710000Y-30480000D02*
X97790000Y-30480000D01*
%TO.N,Net-(J1-Pad3)*%
X97790000Y-27940000D02*
X92710000Y-27940000D01*
%TO.N,Net-(J1-Pad2)*%
X92710000Y-25400000D02*
X97790000Y-25400000D01*
%TO.N,Net-(J1-Pad1)*%
X105410000Y-27940000D02*
X104140000Y-27940000D01*
X104140000Y-27940000D02*
X99060000Y-22860000D01*
X99060000Y-22860000D02*
X92710000Y-22860000D01*
%TO.N,Net-(J2-Pad4)*%
X55880000Y-33020000D02*
X62230000Y-39370000D01*
%TO.N,Net-(J2-Pad3)*%
X53340000Y-33020000D02*
X59690000Y-39370000D01*
X59690000Y-39370000D02*
X58420000Y-40640000D01*
X58420000Y-40640000D02*
X62230000Y-44450000D01*
%TO.N,Net-(J2-Pad2)*%
X57150000Y-44450000D02*
X62230000Y-49530000D01*
X57150000Y-39370000D02*
X57150000Y-44450000D01*
X50800000Y-33020000D02*
X57150000Y-39370000D01*
%TO.N,Net-(J2-Pad1)*%
X49435001Y-34195001D02*
X49904003Y-34195001D01*
X49904003Y-34195001D02*
X54610000Y-38900998D01*
X48260000Y-33020000D02*
X49435001Y-34195001D01*
X54610000Y-38900998D02*
X54610000Y-52070000D01*
X57150000Y-54610000D02*
X62230000Y-54610000D01*
X54610000Y-52070000D02*
X57150000Y-54610000D01*
%TO.N,Net-(J3-Pad3)*%
X115570000Y-31750000D02*
X114300000Y-33020000D01*
X115570000Y-17780000D02*
X115570000Y-31750000D01*
%TO.N,Net-(J3-Pad2)*%
X114300000Y-35560000D02*
X116840000Y-33020000D01*
%TO.N,Net-(J3-Pad1)*%
X111760000Y-35312998D02*
X111760000Y-30480000D01*
X114300000Y-38100000D02*
X114300000Y-37852998D01*
X114300000Y-37852998D02*
X111760000Y-35312998D01*
%TO.N,D0*%
X104140000Y-60960000D02*
X104140000Y-69850000D01*
%TO.N,D1*%
X109220000Y-69850000D02*
X110490000Y-68580000D01*
X107950000Y-69850000D02*
X109220000Y-69850000D01*
%TO.N,D2*%
X118110000Y-62230000D02*
X118110000Y-58420000D01*
%TO.N,I2C_SDA*%
X26670000Y-26670000D02*
X34290000Y-26670000D01*
X34290000Y-26670000D02*
X41910000Y-26670000D01*
X41910000Y-26670000D02*
X55880000Y-26670000D01*
X55880000Y-26670000D02*
X62230000Y-26670000D01*
X62230000Y-26670000D02*
X68580000Y-26670000D01*
X68580000Y-26670000D02*
X74930000Y-26670000D01*
X14909799Y-38430201D02*
X26670000Y-26670000D01*
X14909799Y-51986801D02*
X14909799Y-38430201D01*
X16017999Y-53095001D02*
X14909799Y-51986801D01*
X17002001Y-53095001D02*
X16017999Y-53095001D01*
X17535001Y-52562001D02*
X17002001Y-53095001D01*
X17535001Y-43428497D02*
X17535001Y-52562001D01*
X17770000Y-43193498D02*
X17535001Y-43428497D01*
X24130000Y-49553498D02*
X17770000Y-43193498D01*
X24130000Y-54610000D02*
X24130000Y-49553498D01*
%TO.N,I2C_SCL*%
X26670000Y-24130000D02*
X34290000Y-24130000D01*
X34290000Y-24130000D02*
X41910000Y-24130000D01*
X41910000Y-24130000D02*
X55880000Y-24130000D01*
X55880000Y-24130000D02*
X62230000Y-24130000D01*
X62230000Y-24130000D02*
X68580000Y-24130000D01*
X68580000Y-24130000D02*
X74930000Y-24130000D01*
X46140000Y-63500000D02*
X43180000Y-63500000D01*
X49520000Y-66880000D02*
X46140000Y-63500000D01*
X40640000Y-55880000D02*
X40640000Y-49530000D01*
X39370000Y-57150000D02*
X40640000Y-55880000D01*
%TO.N,+3V*%
X26670000Y-19050000D02*
X34290000Y-19050000D01*
X34290000Y-19050000D02*
X41910000Y-19050000D01*
X41910000Y-19050000D02*
X55880000Y-19050000D01*
X55880000Y-19050000D02*
X62230000Y-19050000D01*
X62230000Y-19050000D02*
X68580000Y-19050000D01*
X68580000Y-19050000D02*
X74930000Y-19050000D01*
X16500000Y-66880000D02*
X16500000Y-68590000D01*
X16500000Y-68590000D02*
X13970000Y-71120000D01*
X13970000Y-77470000D02*
X16510000Y-80010000D01*
X13970000Y-71120000D02*
X13970000Y-77470000D01*
X23974237Y-78557001D02*
X38282999Y-78557001D01*
X38282999Y-78557001D02*
X41910000Y-74930000D01*
X22521238Y-80010000D02*
X23974237Y-78557001D01*
X16510000Y-80010000D02*
X22521238Y-80010000D01*
X26670000Y-19050000D02*
X74573002Y-19050000D01*
X74573002Y-19050000D02*
X76405001Y-20881999D01*
X76405001Y-24394001D02*
X75494001Y-25305001D01*
X76405001Y-20881999D02*
X76405001Y-24394001D01*
X75494001Y-25305001D02*
X20414999Y-25305001D01*
X20414999Y-25305001D02*
X13970000Y-31750000D01*
X13970000Y-31750000D02*
X13970000Y-64350000D01*
X13970000Y-64350000D02*
X16500000Y-66880000D01*
%TO.N,XSHUT1*%
X26660000Y-31760000D02*
X26670000Y-31750000D01*
X26660000Y-42110000D02*
X26660000Y-31760000D01*
%TO.N,D4*%
X133350000Y-80010000D02*
X133350000Y-77470000D01*
X128466998Y-77470000D02*
X128368499Y-77371501D01*
X133350000Y-77470000D02*
X128466998Y-77470000D01*
%TO.N,XSHUT2*%
X29200000Y-42110000D02*
X29200000Y-36840000D01*
X29200000Y-36840000D02*
X34290000Y-31750000D01*
%TO.N,M_PWMA*%
X38100000Y-45720000D02*
X52070000Y-45720000D01*
X26670000Y-57150000D02*
X38100000Y-45720000D01*
%TO.N,IN1*%
X74930000Y-44450000D02*
X69850000Y-39370000D01*
%TO.N,IN2*%
X72390000Y-44450000D02*
X74930000Y-46990000D01*
X69850000Y-44450000D02*
X72390000Y-44450000D01*
%TO.N,IN3*%
X69850000Y-49530000D02*
X74930000Y-49530000D01*
%TO.N,IN4*%
X72390000Y-54610000D02*
X74930000Y-52070000D01*
X69850000Y-54610000D02*
X72390000Y-54610000D01*
%TO.N,M_PWMB*%
X68735001Y-60804999D02*
X74930000Y-54610000D01*
X40355001Y-60804999D02*
X68735001Y-60804999D01*
X34280000Y-66880000D02*
X40355001Y-60804999D01*
%TO.N,XSHUT3*%
X31740000Y-42110000D02*
X31740000Y-36840000D01*
X31740000Y-36840000D02*
X33020000Y-35560000D01*
X33020000Y-35560000D02*
X34290000Y-35560000D01*
X38100000Y-31750000D02*
X41910000Y-31750000D01*
X34290000Y-35560000D02*
X38100000Y-31750000D01*
%TO.N,EN*%
X52070000Y-42100000D02*
X52060000Y-42110000D01*
X52070000Y-38100000D02*
X52070000Y-42100000D01*
%TO.N,VP*%
X49520000Y-38110000D02*
X49530000Y-38100000D01*
X49520000Y-42110000D02*
X49520000Y-38110000D01*
%TO.N,VN*%
X46990000Y-42100000D02*
X46980000Y-42110000D01*
X46990000Y-38100000D02*
X46990000Y-42100000D01*
%TO.N,IO34*%
X44440000Y-38110000D02*
X44450000Y-38100000D01*
X44440000Y-42110000D02*
X44440000Y-38110000D01*
%TO.N,IO32*%
X39370000Y-42100000D02*
X39360000Y-42110000D01*
X39370000Y-38100000D02*
X39370000Y-42100000D01*
%TO.N,IO33*%
X36820000Y-38110000D02*
X36830000Y-38100000D01*
X36820000Y-42110000D02*
X36820000Y-38110000D01*
%TO.N,IO25*%
X34290000Y-42100000D02*
X34280000Y-42110000D01*
X34290000Y-38100000D02*
X34290000Y-42100000D01*
%TO.N,CNT1_IN*%
X93774999Y-16304999D02*
X95250000Y-17780000D01*
X84025001Y-16304999D02*
X93774999Y-16304999D01*
X82550000Y-17780000D02*
X84025001Y-16304999D01*
%TO.N,Net-(R4-Pad2)*%
X67310000Y-34290000D02*
X69850000Y-36830000D01*
X62230000Y-34290000D02*
X67310000Y-34290000D01*
X64770000Y-31750000D02*
X62230000Y-34290000D01*
X73660000Y-31750000D02*
X64770000Y-31750000D01*
%TO.N,Net-(R5-Pad2)*%
X17780000Y-92710000D02*
X16510000Y-91440000D01*
X20320000Y-92710000D02*
X17780000Y-92710000D01*
%TO.N,Net-(R7-Pad2)*%
X20320000Y-97790000D02*
X29210000Y-88900000D01*
X29210000Y-88900000D02*
X31750000Y-88900000D01*
%TO.N,S2P_LATCH*%
X83964999Y-53195001D02*
X87630000Y-49530000D01*
X79759997Y-53195001D02*
X83964999Y-53195001D01*
X64784797Y-68170201D02*
X79759997Y-53195001D01*
X33429799Y-68170201D02*
X64784797Y-68170201D01*
X26670000Y-74930000D02*
X33429799Y-68170201D01*
%TO.N,S2P_SCL*%
X71079790Y-68620210D02*
X87630000Y-52070000D01*
X35519790Y-68620210D02*
X71079790Y-68620210D01*
X26670000Y-77470000D02*
X35519790Y-68620210D01*
%TO.N,595_OUT0*%
X61104999Y-35704999D02*
X61104999Y-33229999D01*
X104628591Y-29065001D02*
X99598591Y-24035001D01*
X101229991Y-15854989D02*
X106835001Y-21459999D01*
X99598591Y-24035001D02*
X91599999Y-24035001D01*
X63124999Y-31209999D02*
X72534999Y-31209999D01*
X105950001Y-29065001D02*
X104628591Y-29065001D01*
X82736009Y-15854989D02*
X101229991Y-15854989D01*
X61104999Y-33229999D02*
X63124999Y-31209999D01*
X91534999Y-38005001D02*
X87630000Y-41910000D01*
X91599999Y-24035001D02*
X91534999Y-24100001D01*
X91534999Y-24100001D02*
X91534999Y-38005001D01*
X81374999Y-17215999D02*
X82736009Y-15854989D01*
X106835001Y-21459999D02*
X106835001Y-28180001D01*
X81374999Y-22369999D02*
X81374999Y-17215999D01*
X72534999Y-31209999D02*
X81374999Y-22369999D01*
X106835001Y-28180001D02*
X105950001Y-29065001D01*
X62230000Y-36830000D02*
X61104999Y-35704999D01*
%TO.N,S2P_SDA*%
X88170001Y-53195001D02*
X89055001Y-52310001D01*
X87141409Y-53195001D02*
X88170001Y-53195001D01*
X71266191Y-69070219D02*
X87141409Y-53195001D01*
X48701018Y-69070220D02*
X71266191Y-69070219D01*
X43297001Y-74474237D02*
X48701018Y-69070220D01*
X43297001Y-85755761D02*
X43297001Y-74474237D01*
X42575761Y-86477001D02*
X43297001Y-85755761D01*
X89055001Y-45875001D02*
X87630000Y-44450000D01*
X89055001Y-52310001D02*
X89055001Y-45875001D01*
X38704239Y-86477001D02*
X42575761Y-86477001D01*
X37982999Y-85755761D02*
X38704239Y-86477001D01*
X37982999Y-84424239D02*
X37982999Y-85755761D01*
X37261759Y-83702999D02*
X37982999Y-84424239D01*
X28057001Y-83702999D02*
X37261759Y-83702999D01*
X26670000Y-85090000D02*
X28057001Y-83702999D01*
%TO.N,595_OUT6*%
X78834999Y-50894999D02*
X80010000Y-52070000D01*
X71025001Y-50894999D02*
X78834999Y-50894999D01*
X69850000Y-52070000D02*
X71025001Y-50894999D01*
%TO.N,595_OUT5*%
X71214999Y-48354999D02*
X69850000Y-46990000D01*
X78834999Y-48354999D02*
X71214999Y-48354999D01*
X80010000Y-49530000D02*
X78834999Y-48354999D01*
%TO.N,595_OUT1*%
X70975001Y-39858591D02*
X70975001Y-38829999D01*
X74391409Y-43274999D02*
X70975001Y-39858591D01*
X80010000Y-39370000D02*
X76105001Y-43274999D01*
X76105001Y-43274999D02*
X74391409Y-43274999D01*
X70390001Y-38244999D02*
X65895001Y-38244999D01*
X70975001Y-38829999D02*
X70390001Y-38244999D01*
X65895001Y-38244999D02*
X62230000Y-41910000D01*
%TO.N,3VCNT_RESET*%
X13519991Y-67760009D02*
X13970000Y-67310000D01*
X13519991Y-84639991D02*
X13519991Y-67760009D01*
X16510000Y-87630000D02*
X13519991Y-84639991D01*
%TO.N,3VS2P_SCL*%
X31109498Y-66880000D02*
X31740000Y-66880000D01*
X20519498Y-77470000D02*
X31109498Y-66880000D01*
X16510000Y-77470000D02*
X20519498Y-77470000D01*
%TO.N,3VS2P_LATCH*%
X21150000Y-74930000D02*
X29200000Y-66880000D01*
X16510000Y-74930000D02*
X21150000Y-74930000D01*
%TO.N,P2S_CE*%
X34290000Y-104140000D02*
X38100000Y-100330000D01*
X38100000Y-88900000D02*
X34290000Y-85090000D01*
X38100000Y-100330000D02*
X38100000Y-88900000D01*
X88900000Y-93105002D02*
X88900000Y-92710000D01*
X75470001Y-106535001D02*
X88900000Y-93105002D01*
X68435001Y-106535001D02*
X75470001Y-106535001D01*
X67310000Y-105410000D02*
X68435001Y-106535001D01*
X104140000Y-78740000D02*
X104140000Y-77470000D01*
X101600000Y-81280000D02*
X104140000Y-78740000D01*
X111760000Y-69850000D02*
X111760000Y-64770000D01*
X111760000Y-60960000D02*
X110490000Y-59690000D01*
X115175011Y-46164013D02*
X112874999Y-43864001D01*
X112874999Y-43864001D02*
X112874999Y-40399999D01*
X107950000Y-62230000D02*
X106524999Y-60804999D01*
X113759999Y-39514999D02*
X120074003Y-39514999D01*
X112874999Y-40399999D02*
X113759999Y-39514999D01*
X115175011Y-49892441D02*
X115175011Y-46164013D01*
X120794999Y-38794003D02*
X120794999Y-29065001D01*
X120794999Y-29065001D02*
X121920000Y-27940000D01*
X106524999Y-58542453D02*
X115175011Y-49892441D01*
X120074003Y-39514999D02*
X120794999Y-38794003D01*
X111760000Y-62230000D02*
X111760000Y-60960000D01*
X106524999Y-60804999D02*
X106524999Y-58542453D01*
%TO.N,P2S_SHLD*%
X74930000Y-107950000D02*
X92565001Y-90314999D01*
X94999997Y-65895001D02*
X95790001Y-65895001D01*
X95790001Y-65895001D02*
X99204999Y-62480003D01*
X99204999Y-60815001D02*
X100330000Y-59690000D01*
X92565001Y-68329997D02*
X94999997Y-65895001D01*
X99204999Y-62480003D02*
X99204999Y-60815001D01*
X92565001Y-90314999D02*
X92565001Y-68329997D01*
X110734999Y-28965001D02*
X114300000Y-25400000D01*
X110734999Y-44635999D02*
X110734999Y-28965001D01*
X100330000Y-55040998D02*
X110734999Y-44635999D01*
X100330000Y-59690000D02*
X100330000Y-55040998D01*
%TO.N,P2S_SCK*%
X49385001Y-101744999D02*
X41910000Y-109220000D01*
X44450000Y-85090000D02*
X44450000Y-96520000D01*
X49674999Y-101744999D02*
X49385001Y-101744999D01*
X44450000Y-96520000D02*
X49674999Y-101744999D01*
X103414998Y-70198002D02*
X103791998Y-70575002D01*
X122604001Y-23974999D02*
X120171412Y-23974999D01*
X103414998Y-65314998D02*
X103414998Y-70198002D01*
X103791998Y-70575002D02*
X104488002Y-70575002D01*
X104865002Y-70198002D02*
X104865002Y-69501998D01*
X104865002Y-69501998D02*
X104590011Y-69227007D01*
X116020011Y-28126400D02*
X116020011Y-32964991D01*
X116020011Y-32964991D02*
X114840001Y-34145001D01*
X113174999Y-29065001D02*
X114300000Y-27940000D01*
X108679999Y-63355001D02*
X109764998Y-62270002D01*
X120794999Y-52320003D02*
X120794999Y-40099999D01*
X113759999Y-34145001D02*
X113174999Y-33560001D01*
X114840001Y-34145001D02*
X113759999Y-34145001D01*
X104590011Y-63355001D02*
X108679999Y-63355001D01*
X113174999Y-33560001D02*
X113174999Y-29065001D01*
X100330000Y-62230000D02*
X103414998Y-65314998D01*
X120171412Y-23974999D02*
X116020011Y-28126400D01*
X114840001Y-58275001D02*
X120794999Y-52320003D01*
X123495010Y-24866008D02*
X122604001Y-23974999D01*
X104488002Y-70575002D02*
X104865002Y-70198002D01*
X120794999Y-40099999D02*
X121379999Y-39514999D01*
X109764998Y-62270002D02*
X109764998Y-59341998D01*
X122408591Y-39514999D02*
X123495010Y-38428580D01*
X109764998Y-59341998D02*
X110831995Y-58275001D01*
X121379999Y-39514999D02*
X122408591Y-39514999D01*
X123495010Y-38428580D02*
X123495010Y-24866008D01*
X110831995Y-58275001D02*
X114840001Y-58275001D01*
X104590011Y-69227007D02*
X104590011Y-63355001D01*
X61500001Y-94124999D02*
X60419999Y-94124999D01*
X74930000Y-105410000D02*
X68435001Y-98915001D01*
X68435001Y-98915001D02*
X66290003Y-98915001D01*
X60419999Y-94124999D02*
X59834999Y-94709999D01*
X59834999Y-94709999D02*
X59834999Y-95790001D01*
X59834999Y-95790001D02*
X53880001Y-101744999D01*
X66290003Y-98915001D02*
X61500001Y-94124999D01*
X53880001Y-101744999D02*
X49674999Y-101744999D01*
X88900000Y-91440000D02*
X88900000Y-76200000D01*
X74930000Y-105410000D02*
X88900000Y-91440000D01*
X99204999Y-67850001D02*
X99204999Y-63355001D01*
X99789999Y-68435001D02*
X99204999Y-67850001D01*
X100580003Y-68435001D02*
X99789999Y-68435001D01*
X101455001Y-69309999D02*
X100580003Y-68435001D01*
X99204999Y-63355001D02*
X100330000Y-62230000D01*
X101455001Y-70390001D02*
X101455001Y-69309999D01*
X100870001Y-70975001D02*
X101455001Y-70390001D01*
X98915001Y-70975001D02*
X100870001Y-70975001D01*
X97790000Y-69850000D02*
X98915001Y-70975001D01*
%TO.N,P2S_SDA*%
X123795010Y-59479992D02*
X122460001Y-60815001D01*
X132035001Y-32338001D02*
X123795010Y-40577992D01*
X46990000Y-85090000D02*
X73264998Y-85090000D01*
X96375001Y-58359587D02*
X107794999Y-46939589D01*
X107794999Y-46939589D02*
X107794999Y-29795999D01*
X122460001Y-60815001D02*
X120882001Y-60815001D01*
X115802001Y-65895001D02*
X113262001Y-65895001D01*
X112485002Y-65118002D02*
X112485002Y-64421998D01*
X73264998Y-85090000D02*
X94709999Y-63644999D01*
X94709999Y-63644999D02*
X95790001Y-63644999D01*
X129790411Y-30524999D02*
X131398001Y-30524999D01*
X95790001Y-63644999D02*
X96375001Y-63059999D01*
X96375001Y-63059999D02*
X96375001Y-58359587D01*
X111411998Y-64044998D02*
X109561995Y-65895001D01*
X109561995Y-65895001D02*
X107409999Y-65895001D01*
X113262001Y-65895001D02*
X112485002Y-65118002D01*
X105315013Y-67989987D02*
X105315013Y-71076357D01*
X105315013Y-71076357D02*
X101461370Y-74930000D01*
X107409999Y-65895001D02*
X105315013Y-67989987D01*
X120882001Y-60815001D02*
X115802001Y-65895001D01*
X101461370Y-74930000D02*
X100330000Y-74930000D01*
X123795010Y-40577992D02*
X123795010Y-59479992D01*
X114394999Y-17215999D02*
X115005999Y-16604999D01*
X132035001Y-31161999D02*
X132035001Y-32338001D01*
X131398001Y-30524999D02*
X132035001Y-31161999D01*
X122790401Y-23524988D02*
X129790411Y-30524999D01*
X116745001Y-17215999D02*
X116745001Y-20284978D01*
X119985012Y-23524988D02*
X122790401Y-23524988D01*
X116745001Y-20284978D02*
X119985012Y-23524988D01*
X116134001Y-16604999D02*
X116745001Y-17215999D01*
X112485002Y-64421998D02*
X112108002Y-64044998D01*
X107794999Y-29795999D02*
X114394999Y-23195999D01*
X112108002Y-64044998D02*
X111411998Y-64044998D01*
X115005999Y-16604999D02*
X116134001Y-16604999D01*
X114394999Y-23195999D02*
X114394999Y-17215999D01*
%TO.N,Net-(U13-Pad14)*%
X66184999Y-100474999D02*
X60960000Y-95250000D01*
X66184999Y-101744999D02*
X66184999Y-100474999D01*
X67310000Y-102870000D02*
X66184999Y-101744999D01*
%TO.N,Net-(U10-Pad7)*%
X33020000Y-95250000D02*
X34290000Y-93980000D01*
X27940000Y-95250000D02*
X33020000Y-95250000D01*
%TO.N,Net-(U10-Pad14)*%
X41910000Y-106680000D02*
X34290000Y-114300000D01*
X29210000Y-114300000D02*
X20320000Y-105410000D01*
X34290000Y-114300000D02*
X29210000Y-114300000D01*
%TO.N,Net-(U10-Pad13)*%
X41910000Y-104140000D02*
X39370001Y-104140000D01*
X39370001Y-104140000D02*
X38493366Y-105016635D01*
%TO.N,Net-(U10-Pad5)*%
X30480000Y-100330000D02*
X34290000Y-96520000D01*
X27940000Y-100330000D02*
X30480000Y-100330000D01*
%TO.N,Net-(U10-Pad4)*%
X30480000Y-102870000D02*
X34290000Y-99060000D01*
X27940000Y-102870000D02*
X30480000Y-102870000D01*
%TD*%
M02*
