%TF.GenerationSoftware,KiCad,Pcbnew,5.1.12-84ad8e8a86~92~ubuntu20.04.1*%
%TF.CreationDate,2021-11-23T15:55:34+01:00*%
%TF.ProjectId,ESP32wShiftRegisters,45535033-3277-4536-9869-667452656769,rev?*%
%TF.SameCoordinates,Original*%
%TF.FileFunction,Soldermask,Top*%
%TF.FilePolarity,Negative*%
%FSLAX46Y46*%
G04 Gerber Fmt 4.6, Leading zero omitted, Abs format (unit mm)*
G04 Created by KiCad (PCBNEW 5.1.12-84ad8e8a86~92~ubuntu20.04.1) date 2021-11-23 15:55:34*
%MOMM*%
%LPD*%
G01*
G04 APERTURE LIST*
%ADD10R,1.800000X4.400000*%
%ADD11O,1.800000X4.000000*%
%ADD12O,4.000000X1.800000*%
%ADD13O,1.600000X1.600000*%
%ADD14R,1.600000X1.600000*%
%ADD15C,1.800000*%
%ADD16R,1.800000X1.800000*%
%ADD17O,1.905000X2.000000*%
%ADD18R,1.905000X2.000000*%
%ADD19C,1.524000*%
%ADD20R,1.524000X1.524000*%
%ADD21C,1.930400*%
%ADD22C,1.600000*%
%ADD23O,1.700000X1.700000*%
%ADD24R,1.700000X1.700000*%
%ADD25C,3.200000*%
%ADD26C,2.270000*%
%ADD27R,2.270000X2.270000*%
G04 APERTURE END LIST*
D10*
%TO.C,J23*%
X120650000Y-121920000D03*
D11*
X114850000Y-121920000D03*
D12*
X117650000Y-126720000D03*
%TD*%
D13*
%TO.C,RN1*%
X95250000Y-52070000D03*
X95250000Y-54610000D03*
X95250000Y-57150000D03*
X95250000Y-59690000D03*
X95250000Y-62230000D03*
X95250000Y-64770000D03*
X95250000Y-67310000D03*
X95250000Y-69850000D03*
D14*
X95250000Y-72390000D03*
%TD*%
D15*
%TO.C,D8*%
X130810000Y-110490000D03*
D16*
X130810000Y-107950000D03*
%TD*%
D15*
%TO.C,D7*%
X130810000Y-99060000D03*
D16*
X130810000Y-96520000D03*
%TD*%
D15*
%TO.C,D6*%
X130810000Y-87630000D03*
D16*
X130810000Y-85090000D03*
%TD*%
D15*
%TO.C,D5*%
X130810000Y-76200000D03*
D16*
X130810000Y-73660000D03*
%TD*%
D15*
%TO.C,D4*%
X130810000Y-64770000D03*
D16*
X130810000Y-62230000D03*
%TD*%
D15*
%TO.C,D3*%
X130810000Y-53340000D03*
D16*
X130810000Y-50800000D03*
%TD*%
D15*
%TO.C,D2*%
X130810000Y-43180000D03*
D16*
X130810000Y-40640000D03*
%TD*%
D15*
%TO.C,D1*%
X130810000Y-31750000D03*
D16*
X130810000Y-29210000D03*
%TD*%
D17*
%TO.C,U14*%
X62230000Y-121920000D03*
X64770000Y-121920000D03*
D18*
X67310000Y-121920000D03*
%TD*%
D13*
%TO.C,U13*%
X67310000Y-107950000D03*
X74930000Y-90170000D03*
X67310000Y-105410000D03*
X74930000Y-92710000D03*
X67310000Y-102870000D03*
X74930000Y-95250000D03*
X67310000Y-100330000D03*
X74930000Y-97790000D03*
X67310000Y-97790000D03*
X74930000Y-100330000D03*
X67310000Y-95250000D03*
X74930000Y-102870000D03*
X67310000Y-92710000D03*
X74930000Y-105410000D03*
X67310000Y-90170000D03*
D14*
X74930000Y-107950000D03*
%TD*%
D13*
%TO.C,U12*%
X34290000Y-111760000D03*
X41910000Y-91440000D03*
X34290000Y-109220000D03*
X41910000Y-93980000D03*
X34290000Y-106680000D03*
X41910000Y-96520000D03*
X34290000Y-104140000D03*
X41910000Y-99060000D03*
X34290000Y-101600000D03*
X41910000Y-101600000D03*
X34290000Y-99060000D03*
X41910000Y-104140000D03*
X34290000Y-96520000D03*
X41910000Y-106680000D03*
X34290000Y-93980000D03*
X41910000Y-109220000D03*
X34290000Y-91440000D03*
D14*
X41910000Y-111760000D03*
%TD*%
D13*
%TO.C,U11*%
X121920000Y-25400000D03*
X114300000Y-43180000D03*
X121920000Y-27940000D03*
X114300000Y-40640000D03*
X121920000Y-30480000D03*
X114300000Y-38100000D03*
X121920000Y-33020000D03*
X114300000Y-35560000D03*
X121920000Y-35560000D03*
X114300000Y-33020000D03*
X121920000Y-38100000D03*
X114300000Y-30480000D03*
X121920000Y-40640000D03*
X114300000Y-27940000D03*
X121920000Y-43180000D03*
D14*
X114300000Y-25400000D03*
%TD*%
D13*
%TO.C,U10*%
X20320000Y-110490000D03*
X27940000Y-92710000D03*
X20320000Y-107950000D03*
X27940000Y-95250000D03*
X20320000Y-105410000D03*
X27940000Y-97790000D03*
X20320000Y-102870000D03*
X27940000Y-100330000D03*
X20320000Y-100330000D03*
X27940000Y-102870000D03*
X20320000Y-97790000D03*
X27940000Y-105410000D03*
X20320000Y-95250000D03*
X27940000Y-107950000D03*
X20320000Y-92710000D03*
D14*
X27940000Y-110490000D03*
%TD*%
D13*
%TO.C,U9*%
X53340000Y-107950000D03*
X60960000Y-90170000D03*
X53340000Y-105410000D03*
X60960000Y-92710000D03*
X53340000Y-102870000D03*
X60960000Y-95250000D03*
X53340000Y-100330000D03*
X60960000Y-97790000D03*
X53340000Y-97790000D03*
X60960000Y-100330000D03*
X53340000Y-95250000D03*
X60960000Y-102870000D03*
X53340000Y-92710000D03*
X60960000Y-105410000D03*
X53340000Y-90170000D03*
D14*
X60960000Y-107950000D03*
%TD*%
D13*
%TO.C,U8*%
X107950000Y-59690000D03*
X100330000Y-77470000D03*
X107950000Y-62230000D03*
X100330000Y-74930000D03*
X107950000Y-64770000D03*
X100330000Y-72390000D03*
X107950000Y-67310000D03*
X100330000Y-69850000D03*
X107950000Y-69850000D03*
X100330000Y-67310000D03*
X107950000Y-72390000D03*
X100330000Y-64770000D03*
X107950000Y-74930000D03*
X100330000Y-62230000D03*
X107950000Y-77470000D03*
D14*
X100330000Y-59690000D03*
%TD*%
D19*
%TO.C,U7*%
X26670000Y-87630000D03*
X26670000Y-85090000D03*
X26670000Y-82550000D03*
X26670000Y-80010000D03*
X26670000Y-77470000D03*
D20*
X26670000Y-74930000D03*
D19*
X16510000Y-87630000D03*
X16510000Y-85090000D03*
X16510000Y-82550000D03*
X16510000Y-80010000D03*
X16510000Y-77470000D03*
D20*
X16510000Y-74930000D03*
%TD*%
D19*
%TO.C,U6*%
X34290000Y-85090000D03*
X36830000Y-85090000D03*
X39370000Y-85090000D03*
X41910000Y-85090000D03*
X44450000Y-85090000D03*
D20*
X46990000Y-85090000D03*
D19*
X34290000Y-74930000D03*
X36830000Y-74930000D03*
X39370000Y-74930000D03*
X41910000Y-74930000D03*
X44450000Y-74930000D03*
D20*
X46990000Y-74930000D03*
%TD*%
D21*
%TO.C,U5*%
X52060000Y-42110000D03*
X49520000Y-42110000D03*
X46980000Y-42110000D03*
X44440000Y-42110000D03*
X41900000Y-42110000D03*
X39360000Y-42110000D03*
X36820000Y-42110000D03*
X34280000Y-42110000D03*
X31740000Y-42110000D03*
X29200000Y-42110000D03*
X26660000Y-42110000D03*
X24120000Y-42110000D03*
X21580000Y-42110000D03*
X19040000Y-42110000D03*
X16500000Y-42110000D03*
X52060000Y-66880000D03*
X49520000Y-66880000D03*
X46980000Y-66880000D03*
X44440000Y-66880000D03*
X41900000Y-66880000D03*
X39360000Y-66880000D03*
X36820000Y-66880000D03*
X34280000Y-66880000D03*
X31740000Y-66880000D03*
X29200000Y-66880000D03*
X26660000Y-66880000D03*
X24120000Y-66880000D03*
X21580000Y-66880000D03*
X19040000Y-66880000D03*
X16500000Y-66880000D03*
%TD*%
D13*
%TO.C,U4*%
X69850000Y-34290000D03*
X62230000Y-57150000D03*
X69850000Y-36830000D03*
X62230000Y-54610000D03*
X69850000Y-39370000D03*
X62230000Y-52070000D03*
X69850000Y-41910000D03*
X62230000Y-49530000D03*
X69850000Y-44450000D03*
X62230000Y-46990000D03*
X69850000Y-46990000D03*
X62230000Y-44450000D03*
X69850000Y-49530000D03*
X62230000Y-41910000D03*
X69850000Y-52070000D03*
X62230000Y-39370000D03*
X69850000Y-54610000D03*
X62230000Y-36830000D03*
X69850000Y-57150000D03*
D14*
X62230000Y-34290000D03*
%TD*%
D13*
%TO.C,U3*%
X121920000Y-54610000D03*
X114300000Y-77470000D03*
X121920000Y-57150000D03*
X114300000Y-74930000D03*
X121920000Y-59690000D03*
X114300000Y-72390000D03*
X121920000Y-62230000D03*
X114300000Y-69850000D03*
X121920000Y-64770000D03*
X114300000Y-67310000D03*
X121920000Y-67310000D03*
X114300000Y-64770000D03*
X121920000Y-69850000D03*
X114300000Y-62230000D03*
X121920000Y-72390000D03*
X114300000Y-59690000D03*
X121920000Y-74930000D03*
X114300000Y-57150000D03*
X121920000Y-77470000D03*
D14*
X114300000Y-54610000D03*
%TD*%
D13*
%TO.C,U2*%
X87630000Y-39370000D03*
X80010000Y-57150000D03*
X87630000Y-41910000D03*
X80010000Y-54610000D03*
X87630000Y-44450000D03*
X80010000Y-52070000D03*
X87630000Y-46990000D03*
X80010000Y-49530000D03*
X87630000Y-49530000D03*
X80010000Y-46990000D03*
X87630000Y-52070000D03*
X80010000Y-44450000D03*
X87630000Y-54610000D03*
X80010000Y-41910000D03*
X87630000Y-57150000D03*
D14*
X80010000Y-39370000D03*
%TD*%
D13*
%TO.C,U1*%
X105410000Y-25400000D03*
X97790000Y-43180000D03*
X105410000Y-27940000D03*
X97790000Y-40640000D03*
X105410000Y-30480000D03*
X97790000Y-38100000D03*
X105410000Y-33020000D03*
X97790000Y-35560000D03*
X105410000Y-35560000D03*
X97790000Y-33020000D03*
X105410000Y-38100000D03*
X97790000Y-30480000D03*
X105410000Y-40640000D03*
X97790000Y-27940000D03*
X105410000Y-43180000D03*
D14*
X97790000Y-25400000D03*
%TD*%
D13*
%TO.C,R8*%
X67310000Y-86360000D03*
D22*
X67310000Y-76200000D03*
%TD*%
D13*
%TO.C,R7*%
X52070000Y-82550000D03*
D22*
X62230000Y-82550000D03*
%TD*%
D13*
%TO.C,R6*%
X39370000Y-121920000D03*
D22*
X29210000Y-121920000D03*
%TD*%
D13*
%TO.C,R5*%
X16510000Y-91440000D03*
D22*
X16510000Y-101600000D03*
%TD*%
D13*
%TO.C,R4*%
X73660000Y-31750000D03*
D22*
X83820000Y-31750000D03*
%TD*%
D13*
%TO.C,R3*%
X109220000Y-40640000D03*
D22*
X109220000Y-30480000D03*
%TD*%
D13*
%TO.C,R2*%
X91440000Y-69850000D03*
D22*
X81280000Y-69850000D03*
%TD*%
D13*
%TO.C,R1*%
X111760000Y-49530000D03*
D22*
X101600000Y-49530000D03*
%TD*%
D23*
%TO.C,J22*%
X82550000Y-17780000D03*
X85090000Y-17780000D03*
D24*
X87630000Y-17780000D03*
%TD*%
D23*
%TO.C,J21*%
X95250000Y-17780000D03*
X97790000Y-17780000D03*
D24*
X100330000Y-17780000D03*
%TD*%
D23*
%TO.C,J20*%
X135890000Y-111760000D03*
X135890000Y-109220000D03*
D24*
X135890000Y-106680000D03*
%TD*%
D23*
%TO.C,J19*%
X55880000Y-26670000D03*
X55880000Y-24130000D03*
X55880000Y-21590000D03*
D24*
X55880000Y-19050000D03*
%TD*%
D23*
%TO.C,J18*%
X135890000Y-100330000D03*
X135890000Y-97790000D03*
D24*
X135890000Y-95250000D03*
%TD*%
D23*
%TO.C,J17*%
X52070000Y-38100000D03*
X49530000Y-38100000D03*
X46990000Y-38100000D03*
X44450000Y-38100000D03*
X41910000Y-38100000D03*
X39370000Y-38100000D03*
X36830000Y-38100000D03*
D24*
X34290000Y-38100000D03*
%TD*%
D23*
%TO.C,J16*%
X41910000Y-31750000D03*
X41910000Y-29210000D03*
X41910000Y-26670000D03*
X41910000Y-24130000D03*
X41910000Y-21590000D03*
D24*
X41910000Y-19050000D03*
%TD*%
D23*
%TO.C,J15*%
X74930000Y-39370000D03*
X74930000Y-41910000D03*
X74930000Y-44450000D03*
X74930000Y-46990000D03*
X74930000Y-49530000D03*
X74930000Y-52070000D03*
D24*
X74930000Y-54610000D03*
%TD*%
D23*
%TO.C,J14*%
X62230000Y-26670000D03*
X62230000Y-24130000D03*
X62230000Y-21590000D03*
D24*
X62230000Y-19050000D03*
%TD*%
D23*
%TO.C,J13*%
X135890000Y-88900000D03*
X135890000Y-86360000D03*
D24*
X135890000Y-83820000D03*
%TD*%
D23*
%TO.C,J12*%
X34290000Y-31750000D03*
X34290000Y-29210000D03*
X34290000Y-26670000D03*
X34290000Y-24130000D03*
X34290000Y-21590000D03*
D24*
X34290000Y-19050000D03*
%TD*%
D23*
%TO.C,J11*%
X74930000Y-26670000D03*
X74930000Y-24130000D03*
X74930000Y-21590000D03*
D24*
X74930000Y-19050000D03*
%TD*%
D23*
%TO.C,J10*%
X135890000Y-77470000D03*
X135890000Y-74930000D03*
D24*
X135890000Y-72390000D03*
%TD*%
D23*
%TO.C,J9*%
X135890000Y-66040000D03*
X135890000Y-63500000D03*
D24*
X135890000Y-60960000D03*
%TD*%
D23*
%TO.C,J8*%
X26670000Y-31750000D03*
X26670000Y-29210000D03*
X26670000Y-26670000D03*
X26670000Y-24130000D03*
X26670000Y-21590000D03*
D24*
X26670000Y-19050000D03*
%TD*%
D23*
%TO.C,J7*%
X68580000Y-26670000D03*
X68580000Y-24130000D03*
X68580000Y-21590000D03*
D24*
X68580000Y-19050000D03*
%TD*%
D23*
%TO.C,J6*%
X135890000Y-54610000D03*
X135890000Y-52070000D03*
D24*
X135890000Y-49530000D03*
%TD*%
D23*
%TO.C,J5*%
X135890000Y-43180000D03*
X135890000Y-40640000D03*
D24*
X135890000Y-38100000D03*
%TD*%
D23*
%TO.C,J4*%
X135890000Y-31750000D03*
X135890000Y-29210000D03*
D24*
X135890000Y-26670000D03*
%TD*%
D23*
%TO.C,J3*%
X128270000Y-17780000D03*
X125730000Y-17780000D03*
X123190000Y-17780000D03*
X120650000Y-17780000D03*
X118110000Y-17780000D03*
X115570000Y-17780000D03*
X113030000Y-17780000D03*
D24*
X110490000Y-17780000D03*
%TD*%
D23*
%TO.C,J2*%
X55880000Y-33020000D03*
X53340000Y-33020000D03*
X50800000Y-33020000D03*
D24*
X48260000Y-33020000D03*
%TD*%
D23*
%TO.C,J1*%
X92710000Y-40640000D03*
X92710000Y-38100000D03*
X92710000Y-35560000D03*
X92710000Y-33020000D03*
X92710000Y-30480000D03*
X92710000Y-27940000D03*
X92710000Y-25400000D03*
D24*
X92710000Y-22860000D03*
%TD*%
D25*
%TO.C,H4*%
X19050000Y-20320000D03*
%TD*%
%TO.C,H2*%
X19050000Y-121920000D03*
%TD*%
%TO.C,H1*%
X133350000Y-121920000D03*
%TD*%
D26*
%TO.C,D9*%
X102670000Y-122770000D03*
X95170000Y-122770000D03*
X87670000Y-122770000D03*
D27*
X77670000Y-122770000D03*
%TD*%
D22*
%TO.C,C13*%
X87550000Y-113030000D03*
D14*
X82550000Y-113030000D03*
%TD*%
D22*
%TO.C,C12*%
X109220000Y-22860000D03*
X109220000Y-25360000D03*
%TD*%
%TO.C,C11*%
X55840000Y-113030000D03*
X53340000Y-113030000D03*
%TD*%
%TO.C,C10*%
X85050000Y-62230000D03*
X82550000Y-62230000D03*
%TD*%
%TO.C,C9*%
X55840000Y-73660000D03*
X53340000Y-73660000D03*
%TD*%
%TO.C,C8*%
X92710000Y-44490000D03*
X92710000Y-46990000D03*
%TD*%
%TO.C,C7*%
X105370000Y-83820000D03*
X102870000Y-83820000D03*
%TD*%
%TO.C,C6*%
X119340000Y-48260000D03*
X116840000Y-48260000D03*
%TD*%
%TO.C,C5*%
X68540000Y-113030000D03*
X66040000Y-113030000D03*
%TD*%
%TO.C,C4*%
X25400000Y-115570000D03*
X22900000Y-115570000D03*
%TD*%
%TO.C,C3*%
X36790000Y-116840000D03*
X34290000Y-116840000D03*
%TD*%
%TO.C,C2*%
X119340000Y-83820000D03*
X116840000Y-83820000D03*
%TD*%
%TO.C,C1*%
X64730000Y-62230000D03*
X62230000Y-62230000D03*
%TD*%
M02*
