M48
; DRILL file {KiCad 5.1.12-84ad8e8a86~92~ubuntu20.04.1} date Tue 23 Nov 2021 15:55:27 CET
; FORMAT={-:-/ absolute / inch / decimal}
; #@! TF.CreationDate,2021-11-23T15:55:27+01:00
; #@! TF.GenerationSoftware,Kicad,Pcbnew,5.1.12-84ad8e8a86~92~ubuntu20.04.1
; #@! TF.FileFunction,Plated,1,4,PTH
FMAT,2
INCH
T1C0.0157
T2C0.0315
T3C0.0354
T4C0.0394
T5C0.0400
T6C0.0433
T7C0.0594
%
G90
G05
T1
X0.55Y-2.65
X0.65Y-2.05
X0.8Y-2.75
X0.9Y-0.7
X0.9Y-0.8
X0.95Y-2.15
X1.05Y-2.25
X1.25Y-3.5
X1.5155Y-4.1345
X1.55Y-2.25
X1.6Y-1.95
X1.7Y-2.5
X1.95Y-3.6
X2.0Y-3.4
X2.05Y-1.8
X2.2Y-3.4
X2.45Y-3.45
X3.5Y-3.0
X3.5Y-3.65
X3.85Y-2.75
X4.0Y-3.2
X4.1Y-2.4
X4.1Y-2.75
X4.1Y-3.05
X4.35Y-1.85
X4.35Y-2.2
X4.35Y-2.35
X4.35Y-2.5
X4.35Y-2.7
X4.4Y-1.2
X4.4Y-1.45
X4.4Y-2.45
X4.4Y-2.55
X4.4Y-2.75
X4.6Y-1.3
X4.6Y-2.7
X4.65Y-1.45
X4.65Y-2.3
X4.65Y-2.45
X4.7Y-3.6
X4.9Y-0.85
X4.95Y-2.3
X4.95Y-3.6
X5.05Y-4.55
X5.0539Y-3.0461
X5.15Y-4.6
X5.25Y-3.05
X5.25Y-3.15
T2
X0.65Y-3.6
X0.65Y-4.0
X0.8Y-3.65
X0.8Y-3.75
X0.8Y-3.85
X0.8Y-3.95
X0.8Y-4.05
X0.8Y-4.15
X0.8Y-4.25
X0.8Y-4.35
X0.9016Y-4.55
X1.0Y-4.55
X1.1Y-3.65
X1.1Y-3.75
X1.1Y-3.85
X1.1Y-3.95
X1.1Y-4.05
X1.1Y-4.15
X1.1Y-4.25
X1.1Y-4.35
X1.15Y-4.8
X1.35Y-3.6
X1.35Y-3.7
X1.35Y-3.8
X1.35Y-3.9
X1.35Y-4.0
X1.35Y-4.1
X1.35Y-4.2
X1.35Y-4.3
X1.35Y-4.4
X1.35Y-4.6
X1.4484Y-4.6
X1.55Y-4.8
X1.65Y-3.6
X1.65Y-3.7
X1.65Y-3.8
X1.65Y-3.9
X1.65Y-4.0
X1.65Y-4.1
X1.65Y-4.2
X1.65Y-4.3
X1.65Y-4.4
X2.05Y-3.25
X2.1Y-2.9
X2.1Y-3.55
X2.1Y-3.65
X2.1Y-3.75
X2.1Y-3.85
X2.1Y-3.95
X2.1Y-4.05
X2.1Y-4.15
X2.1Y-4.25
X2.1Y-4.45
X2.1984Y-2.9
X2.1984Y-4.45
X2.4Y-3.55
X2.4Y-3.65
X2.4Y-3.75
X2.4Y-3.85
X2.4Y-3.95
X2.4Y-4.05
X2.4Y-4.15
X2.4Y-4.25
X2.45Y-1.35
X2.45Y-1.45
X2.45Y-1.55
X2.45Y-1.65
X2.45Y-1.75
X2.45Y-1.85
X2.45Y-1.95
X2.45Y-2.05
X2.45Y-2.15
X2.45Y-2.25
X2.45Y-2.45
X2.45Y-3.25
X2.5484Y-2.45
X2.6Y-4.45
X2.65Y-3.0
X2.65Y-3.4
X2.65Y-3.55
X2.65Y-3.65
X2.65Y-3.75
X2.65Y-3.85
X2.65Y-3.95
X2.65Y-4.05
X2.65Y-4.15
X2.65Y-4.25
X2.6984Y-4.45
X2.75Y-1.35
X2.75Y-1.45
X2.75Y-1.55
X2.75Y-1.65
X2.75Y-1.75
X2.75Y-1.85
X2.75Y-1.95
X2.75Y-2.05
X2.75Y-2.15
X2.75Y-2.25
X2.9Y-1.25
X2.95Y-3.55
X2.95Y-3.65
X2.95Y-3.75
X2.95Y-3.85
X2.95Y-3.95
X2.95Y-4.05
X2.95Y-4.15
X2.95Y-4.25
X3.15Y-1.55
X3.15Y-1.65
X3.15Y-1.75
X3.15Y-1.85
X3.15Y-1.95
X3.15Y-2.05
X3.15Y-2.15
X3.15Y-2.25
X3.2Y-2.75
X3.25Y-2.45
X3.25Y-4.45
X3.3Y-1.25
X3.3484Y-2.45
X3.4469Y-4.45
X3.45Y-1.55
X3.45Y-1.65
X3.45Y-1.75
X3.45Y-1.85
X3.45Y-1.95
X3.45Y-2.05
X3.45Y-2.15
X3.45Y-2.25
X3.6Y-2.75
X3.65Y-1.7516
X3.65Y-1.85
X3.75Y-2.05
X3.75Y-2.15
X3.75Y-2.25
X3.75Y-2.35
X3.75Y-2.45
X3.75Y-2.55
X3.75Y-2.65
X3.75Y-2.75
X3.75Y-2.85
X3.85Y-1.0
X3.85Y-1.1
X3.85Y-1.2
X3.85Y-1.3
X3.85Y-1.4
X3.85Y-1.5
X3.85Y-1.6
X3.85Y-1.7
X3.95Y-2.35
X3.95Y-2.45
X3.95Y-2.55
X3.95Y-2.65
X3.95Y-2.75
X3.95Y-2.85
X3.95Y-2.95
X3.95Y-3.05
X4.0Y-1.95
X4.05Y-3.3
X4.1484Y-3.3
X4.15Y-1.0
X4.15Y-1.1
X4.15Y-1.2
X4.15Y-1.3
X4.15Y-1.4
X4.15Y-1.5
X4.15Y-1.6
X4.15Y-1.7
X4.25Y-2.35
X4.25Y-2.45
X4.25Y-2.55
X4.25Y-2.65
X4.25Y-2.75
X4.25Y-2.85
X4.25Y-2.95
X4.25Y-3.05
X4.3Y-0.9
X4.3Y-0.9984
X4.3Y-1.2
X4.3Y-1.6
X4.4Y-1.95
X4.5Y-1.0
X4.5Y-1.1
X4.5Y-1.2
X4.5Y-1.3
X4.5Y-1.4
X4.5Y-1.5
X4.5Y-1.6
X4.5Y-1.7
X4.5Y-2.15
X4.5Y-2.25
X4.5Y-2.35
X4.5Y-2.45
X4.5Y-2.55
X4.5Y-2.65
X4.5Y-2.75
X4.5Y-2.85
X4.5Y-2.95
X4.5Y-3.05
X4.6Y-1.9
X4.6Y-3.3
X4.6984Y-1.9
X4.6984Y-3.3
X4.8Y-1.0
X4.8Y-1.1
X4.8Y-1.2
X4.8Y-1.3
X4.8Y-1.4
X4.8Y-1.5
X4.8Y-1.6
X4.8Y-1.7
X4.8Y-2.15
X4.8Y-2.25
X4.8Y-2.35
X4.8Y-2.45
X4.8Y-2.55
X4.8Y-2.65
X4.8Y-2.75
X4.8Y-2.85
X4.8Y-2.95
X4.8Y-3.05
T3
X5.15Y-1.15
X5.15Y-1.25
X5.15Y-1.6
X5.15Y-1.7
X5.15Y-2.0
X5.15Y-2.1
X5.15Y-2.45
X5.15Y-2.55
X5.15Y-2.9
X5.15Y-3.0
X5.15Y-3.35
X5.15Y-3.45
X5.15Y-3.8
X5.15Y-3.9
X5.15Y-4.25
X5.15Y-4.35
T4
X0.6496Y-1.6579
X0.6496Y-2.6331
X0.7496Y-1.6579
X0.7496Y-2.6331
X0.8496Y-1.6579
X0.8496Y-2.6331
X0.9496Y-1.6579
X0.9496Y-2.6331
X1.0496Y-1.6579
X1.0496Y-2.6331
X1.05Y-0.75
X1.05Y-0.85
X1.05Y-0.95
X1.05Y-1.05
X1.05Y-1.15
X1.05Y-1.25
X1.1496Y-1.6579
X1.1496Y-2.6331
X1.2496Y-1.6579
X1.2496Y-2.6331
X1.3496Y-1.6579
X1.3496Y-2.6331
X1.35Y-0.75
X1.35Y-0.85
X1.35Y-0.95
X1.35Y-1.05
X1.35Y-1.15
X1.35Y-1.25
X1.35Y-1.5
X1.4496Y-1.6579
X1.4496Y-2.6331
X1.45Y-1.5
X1.5496Y-1.6579
X1.5496Y-2.6331
X1.55Y-1.5
X1.6496Y-1.6579
X1.6496Y-2.6331
X1.65Y-0.75
X1.65Y-0.85
X1.65Y-0.95
X1.65Y-1.05
X1.65Y-1.15
X1.65Y-1.25
X1.65Y-1.5
X1.7496Y-1.6579
X1.7496Y-2.6331
X1.75Y-1.5
X1.8496Y-1.6579
X1.8496Y-2.6331
X1.85Y-1.5
X1.9Y-1.3
X1.9496Y-1.6579
X1.9496Y-2.6331
X1.95Y-1.5
X2.0Y-1.3
X2.0496Y-1.6579
X2.0496Y-2.6331
X2.05Y-1.5
X2.1Y-1.3
X2.2Y-0.75
X2.2Y-0.85
X2.2Y-0.95
X2.2Y-1.05
X2.2Y-1.3
X2.45Y-0.75
X2.45Y-0.85
X2.45Y-0.95
X2.45Y-1.05
X2.7Y-0.75
X2.7Y-0.85
X2.7Y-0.95
X2.7Y-1.05
X2.95Y-0.75
X2.95Y-0.85
X2.95Y-0.95
X2.95Y-1.05
X2.95Y-1.55
X2.95Y-1.65
X2.95Y-1.75
X2.95Y-1.85
X2.95Y-1.95
X2.95Y-2.05
X2.95Y-2.15
X3.25Y-0.7
X3.35Y-0.7
X3.45Y-0.7
X3.65Y-0.9
X3.65Y-1.0
X3.65Y-1.1
X3.65Y-1.2
X3.65Y-1.3
X3.65Y-1.4
X3.65Y-1.5
X3.65Y-1.6
X3.75Y-0.7
X3.85Y-0.7
X3.95Y-0.7
X4.35Y-0.7
X4.45Y-0.7
X4.55Y-0.7
X4.65Y-0.7
X4.75Y-0.7
X4.85Y-0.7
X4.95Y-0.7
X5.05Y-0.7
X5.35Y-1.05
X5.35Y-1.15
X5.35Y-1.25
X5.35Y-1.5
X5.35Y-1.6
X5.35Y-1.7
X5.35Y-1.95
X5.35Y-2.05
X5.35Y-2.15
X5.35Y-2.4
X5.35Y-2.5
X5.35Y-2.6
X5.35Y-2.85
X5.35Y-2.95
X5.35Y-3.05
X5.35Y-3.3
X5.35Y-3.4
X5.35Y-3.5
X5.35Y-3.75
X5.35Y-3.85
X5.35Y-3.95
X5.35Y-4.2
X5.35Y-4.3
X5.35Y-4.4
T5
X0.65Y-2.95
X0.65Y-3.05
X0.65Y-3.15
X0.65Y-3.25
X0.65Y-3.35
X0.65Y-3.45
X1.05Y-2.95
X1.05Y-3.05
X1.05Y-3.15
X1.05Y-3.25
X1.05Y-3.35
X1.05Y-3.45
X1.35Y-2.95
X1.35Y-3.35
X1.45Y-2.95
X1.45Y-3.35
X1.55Y-2.95
X1.55Y-3.35
X1.65Y-2.95
X1.65Y-3.35
X1.75Y-2.95
X1.75Y-3.35
X1.85Y-2.95
X1.85Y-3.35
T6
X2.45Y-4.8
X2.55Y-4.8
X2.65Y-4.8
T7
X3.0579Y-4.8335
X3.4516Y-4.8335
X3.7469Y-4.8335
X4.0421Y-4.8335
T2
G00X4.5217Y-4.7567
M15
G01X4.5217Y-4.8433
M16
G05
G00X4.5886Y-4.989
M15
G01X4.6752Y-4.989
M16
G05
G00X4.75Y-4.7488
M15
G01X4.75Y-4.8512
M16
G05
T0
M30
