%TF.GenerationSoftware,KiCad,Pcbnew,5.1.12-84ad8e8a86~92~ubuntu20.04.1*%
%TF.CreationDate,2021-11-23T15:55:34+01:00*%
%TF.ProjectId,ESP32wShiftRegisters,45535033-3277-4536-9869-667452656769,rev?*%
%TF.SameCoordinates,Original*%
%TF.FileFunction,Legend,Top*%
%TF.FilePolarity,Positive*%
%FSLAX46Y46*%
G04 Gerber Fmt 4.6, Leading zero omitted, Abs format (unit mm)*
G04 Created by KiCad (PCBNEW 5.1.12-84ad8e8a86~92~ubuntu20.04.1) date 2021-11-23 15:55:34*
%MOMM*%
%LPD*%
G01*
G04 APERTURE LIST*
%ADD10C,0.120000*%
%ADD11C,0.127000*%
%ADD12C,0.254000*%
%ADD13C,0.200000*%
%ADD14C,0.150000*%
G04 APERTURE END LIST*
D10*
%TO.C,J23*%
X121650000Y-117320000D02*
X121650000Y-119420000D01*
X121950000Y-117020000D02*
X120350000Y-117020000D01*
X121950000Y-118720000D02*
X121950000Y-117020000D01*
X121650000Y-126520000D02*
X119850000Y-126520000D01*
X121650000Y-124420000D02*
X121650000Y-126520000D01*
X106950000Y-117320000D02*
X121650000Y-117320000D01*
X106950000Y-126520000D02*
X106950000Y-117320000D01*
X115450000Y-126520000D02*
X106950000Y-126520000D01*
%TO.C,RN1*%
X93850000Y-73830000D02*
X96650000Y-73830000D01*
X96650000Y-73830000D02*
X96650000Y-50630000D01*
X96650000Y-50630000D02*
X93850000Y-50630000D01*
X93850000Y-50630000D02*
X93850000Y-73830000D01*
X93850000Y-71120000D02*
X96650000Y-71120000D01*
%TO.C,D8*%
X132046000Y-107660000D02*
X131890000Y-107660000D01*
X129730000Y-107660000D02*
X129574000Y-107660000D01*
X129730163Y-110261130D02*
G75*
G02*
X129730000Y-108179039I1079837J1041130D01*
G01*
X131889837Y-110261130D02*
G75*
G03*
X131890000Y-108179039I-1079837J1041130D01*
G01*
X129731392Y-110892335D02*
G75*
G02*
X129574484Y-107660000I1078608J1672335D01*
G01*
X131888608Y-110892335D02*
G75*
G03*
X132045516Y-107660000I-1078608J1672335D01*
G01*
%TO.C,D7*%
X132046000Y-96230000D02*
X131890000Y-96230000D01*
X129730000Y-96230000D02*
X129574000Y-96230000D01*
X129730163Y-98831130D02*
G75*
G02*
X129730000Y-96749039I1079837J1041130D01*
G01*
X131889837Y-98831130D02*
G75*
G03*
X131890000Y-96749039I-1079837J1041130D01*
G01*
X129731392Y-99462335D02*
G75*
G02*
X129574484Y-96230000I1078608J1672335D01*
G01*
X131888608Y-99462335D02*
G75*
G03*
X132045516Y-96230000I-1078608J1672335D01*
G01*
%TO.C,D6*%
X132046000Y-84800000D02*
X131890000Y-84800000D01*
X129730000Y-84800000D02*
X129574000Y-84800000D01*
X129730163Y-87401130D02*
G75*
G02*
X129730000Y-85319039I1079837J1041130D01*
G01*
X131889837Y-87401130D02*
G75*
G03*
X131890000Y-85319039I-1079837J1041130D01*
G01*
X129731392Y-88032335D02*
G75*
G02*
X129574484Y-84800000I1078608J1672335D01*
G01*
X131888608Y-88032335D02*
G75*
G03*
X132045516Y-84800000I-1078608J1672335D01*
G01*
%TO.C,D5*%
X132046000Y-73370000D02*
X131890000Y-73370000D01*
X129730000Y-73370000D02*
X129574000Y-73370000D01*
X129730163Y-75971130D02*
G75*
G02*
X129730000Y-73889039I1079837J1041130D01*
G01*
X131889837Y-75971130D02*
G75*
G03*
X131890000Y-73889039I-1079837J1041130D01*
G01*
X129731392Y-76602335D02*
G75*
G02*
X129574484Y-73370000I1078608J1672335D01*
G01*
X131888608Y-76602335D02*
G75*
G03*
X132045516Y-73370000I-1078608J1672335D01*
G01*
%TO.C,D4*%
X132046000Y-61940000D02*
X131890000Y-61940000D01*
X129730000Y-61940000D02*
X129574000Y-61940000D01*
X129730163Y-64541130D02*
G75*
G02*
X129730000Y-62459039I1079837J1041130D01*
G01*
X131889837Y-64541130D02*
G75*
G03*
X131890000Y-62459039I-1079837J1041130D01*
G01*
X129731392Y-65172335D02*
G75*
G02*
X129574484Y-61940000I1078608J1672335D01*
G01*
X131888608Y-65172335D02*
G75*
G03*
X132045516Y-61940000I-1078608J1672335D01*
G01*
%TO.C,D3*%
X132046000Y-50510000D02*
X131890000Y-50510000D01*
X129730000Y-50510000D02*
X129574000Y-50510000D01*
X129730163Y-53111130D02*
G75*
G02*
X129730000Y-51029039I1079837J1041130D01*
G01*
X131889837Y-53111130D02*
G75*
G03*
X131890000Y-51029039I-1079837J1041130D01*
G01*
X129731392Y-53742335D02*
G75*
G02*
X129574484Y-50510000I1078608J1672335D01*
G01*
X131888608Y-53742335D02*
G75*
G03*
X132045516Y-50510000I-1078608J1672335D01*
G01*
%TO.C,D2*%
X132046000Y-40350000D02*
X131890000Y-40350000D01*
X129730000Y-40350000D02*
X129574000Y-40350000D01*
X129730163Y-42951130D02*
G75*
G02*
X129730000Y-40869039I1079837J1041130D01*
G01*
X131889837Y-42951130D02*
G75*
G03*
X131890000Y-40869039I-1079837J1041130D01*
G01*
X129731392Y-43582335D02*
G75*
G02*
X129574484Y-40350000I1078608J1672335D01*
G01*
X131888608Y-43582335D02*
G75*
G03*
X132045516Y-40350000I-1078608J1672335D01*
G01*
%TO.C,D1*%
X132046000Y-28920000D02*
X131890000Y-28920000D01*
X129730000Y-28920000D02*
X129574000Y-28920000D01*
X129730163Y-31521130D02*
G75*
G02*
X129730000Y-29439039I1079837J1041130D01*
G01*
X131889837Y-31521130D02*
G75*
G03*
X131890000Y-29439039I-1079837J1041130D01*
G01*
X129731392Y-32152335D02*
G75*
G02*
X129574484Y-28920000I1078608J1672335D01*
G01*
X131888608Y-32152335D02*
G75*
G03*
X132045516Y-28920000I-1078608J1672335D01*
G01*
%TO.C,U14*%
X69890000Y-125190000D02*
X59650000Y-125190000D01*
X69890000Y-120549000D02*
X59650000Y-120549000D01*
X69890000Y-125190000D02*
X69890000Y-120549000D01*
X59650000Y-125190000D02*
X59650000Y-120549000D01*
X69890000Y-123680000D02*
X59650000Y-123680000D01*
X66620000Y-125190000D02*
X66620000Y-123680000D01*
X62919000Y-125190000D02*
X62919000Y-123680000D01*
%TO.C,U13*%
X72120000Y-109280000D02*
X73770000Y-109280000D01*
X73770000Y-109280000D02*
X73770000Y-88840000D01*
X73770000Y-88840000D02*
X68470000Y-88840000D01*
X68470000Y-88840000D02*
X68470000Y-109280000D01*
X68470000Y-109280000D02*
X70120000Y-109280000D01*
X76260000Y-109340000D02*
X76260000Y-88780000D01*
X76260000Y-88780000D02*
X65980000Y-88780000D01*
X65980000Y-88780000D02*
X65980000Y-109340000D01*
X65980000Y-109340000D02*
X76260000Y-109340000D01*
X70120000Y-109280000D02*
G75*
G02*
X72120000Y-109280000I1000000J0D01*
G01*
%TO.C,U12*%
X39100000Y-113090000D02*
X40750000Y-113090000D01*
X40750000Y-113090000D02*
X40750000Y-90110000D01*
X40750000Y-90110000D02*
X35450000Y-90110000D01*
X35450000Y-90110000D02*
X35450000Y-113090000D01*
X35450000Y-113090000D02*
X37100000Y-113090000D01*
X43240000Y-113150000D02*
X43240000Y-90050000D01*
X43240000Y-90050000D02*
X32960000Y-90050000D01*
X32960000Y-90050000D02*
X32960000Y-113150000D01*
X32960000Y-113150000D02*
X43240000Y-113150000D01*
X37100000Y-113090000D02*
G75*
G02*
X39100000Y-113090000I1000000J0D01*
G01*
%TO.C,U11*%
X117110000Y-24070000D02*
X115460000Y-24070000D01*
X115460000Y-24070000D02*
X115460000Y-44510000D01*
X115460000Y-44510000D02*
X120760000Y-44510000D01*
X120760000Y-44510000D02*
X120760000Y-24070000D01*
X120760000Y-24070000D02*
X119110000Y-24070000D01*
X112970000Y-24010000D02*
X112970000Y-44570000D01*
X112970000Y-44570000D02*
X123250000Y-44570000D01*
X123250000Y-44570000D02*
X123250000Y-24010000D01*
X123250000Y-24010000D02*
X112970000Y-24010000D01*
X119110000Y-24070000D02*
G75*
G02*
X117110000Y-24070000I-1000000J0D01*
G01*
%TO.C,U10*%
X25130000Y-111820000D02*
X26780000Y-111820000D01*
X26780000Y-111820000D02*
X26780000Y-91380000D01*
X26780000Y-91380000D02*
X21480000Y-91380000D01*
X21480000Y-91380000D02*
X21480000Y-111820000D01*
X21480000Y-111820000D02*
X23130000Y-111820000D01*
X29270000Y-111880000D02*
X29270000Y-91320000D01*
X29270000Y-91320000D02*
X18990000Y-91320000D01*
X18990000Y-91320000D02*
X18990000Y-111880000D01*
X18990000Y-111880000D02*
X29270000Y-111880000D01*
X23130000Y-111820000D02*
G75*
G02*
X25130000Y-111820000I1000000J0D01*
G01*
%TO.C,U9*%
X58150000Y-109280000D02*
X59800000Y-109280000D01*
X59800000Y-109280000D02*
X59800000Y-88840000D01*
X59800000Y-88840000D02*
X54500000Y-88840000D01*
X54500000Y-88840000D02*
X54500000Y-109280000D01*
X54500000Y-109280000D02*
X56150000Y-109280000D01*
X62290000Y-109340000D02*
X62290000Y-88780000D01*
X62290000Y-88780000D02*
X52010000Y-88780000D01*
X52010000Y-88780000D02*
X52010000Y-109340000D01*
X52010000Y-109340000D02*
X62290000Y-109340000D01*
X56150000Y-109280000D02*
G75*
G02*
X58150000Y-109280000I1000000J0D01*
G01*
%TO.C,U8*%
X103140000Y-58360000D02*
X101490000Y-58360000D01*
X101490000Y-58360000D02*
X101490000Y-78800000D01*
X101490000Y-78800000D02*
X106790000Y-78800000D01*
X106790000Y-78800000D02*
X106790000Y-58360000D01*
X106790000Y-58360000D02*
X105140000Y-58360000D01*
X99000000Y-58300000D02*
X99000000Y-78860000D01*
X99000000Y-78860000D02*
X109280000Y-78860000D01*
X109280000Y-78860000D02*
X109280000Y-58300000D01*
X109280000Y-58300000D02*
X99000000Y-58300000D01*
X105140000Y-58360000D02*
G75*
G02*
X103140000Y-58360000I-1000000J0D01*
G01*
D11*
%TO.C,U7*%
X28255000Y-73255000D02*
X28255000Y-89305000D01*
X28255000Y-89305000D02*
X14925000Y-89305000D01*
X14925000Y-89305000D02*
X14925000Y-73255000D01*
X14925000Y-73255000D02*
X28255000Y-73255000D01*
%TO.C,U6*%
X48665000Y-86675000D02*
X32615000Y-86675000D01*
X32615000Y-86675000D02*
X32615000Y-73345000D01*
X32615000Y-73345000D02*
X48665000Y-73345000D01*
X48665000Y-73345000D02*
X48665000Y-86675000D01*
D12*
%TO.C,U5*%
X6370000Y-40640000D02*
X58370000Y-40640000D01*
X58370000Y-40640000D02*
X58370000Y-68540000D01*
X58370000Y-68540000D02*
X6370000Y-68540000D01*
X6370000Y-68540000D02*
X6370000Y-40640000D01*
D10*
%TO.C,U4*%
X65040000Y-32960000D02*
X63390000Y-32960000D01*
X63390000Y-32960000D02*
X63390000Y-58480000D01*
X63390000Y-58480000D02*
X68690000Y-58480000D01*
X68690000Y-58480000D02*
X68690000Y-32960000D01*
X68690000Y-32960000D02*
X67040000Y-32960000D01*
X60900000Y-32900000D02*
X60900000Y-58540000D01*
X60900000Y-58540000D02*
X71180000Y-58540000D01*
X71180000Y-58540000D02*
X71180000Y-32900000D01*
X71180000Y-32900000D02*
X60900000Y-32900000D01*
X67040000Y-32960000D02*
G75*
G02*
X65040000Y-32960000I-1000000J0D01*
G01*
%TO.C,U3*%
X117110000Y-53280000D02*
X115460000Y-53280000D01*
X115460000Y-53280000D02*
X115460000Y-78800000D01*
X115460000Y-78800000D02*
X120760000Y-78800000D01*
X120760000Y-78800000D02*
X120760000Y-53280000D01*
X120760000Y-53280000D02*
X119110000Y-53280000D01*
X112970000Y-53220000D02*
X112970000Y-78860000D01*
X112970000Y-78860000D02*
X123250000Y-78860000D01*
X123250000Y-78860000D02*
X123250000Y-53220000D01*
X123250000Y-53220000D02*
X112970000Y-53220000D01*
X119110000Y-53280000D02*
G75*
G02*
X117110000Y-53280000I-1000000J0D01*
G01*
%TO.C,U2*%
X82820000Y-38040000D02*
X81170000Y-38040000D01*
X81170000Y-38040000D02*
X81170000Y-58480000D01*
X81170000Y-58480000D02*
X86470000Y-58480000D01*
X86470000Y-58480000D02*
X86470000Y-38040000D01*
X86470000Y-38040000D02*
X84820000Y-38040000D01*
X78680000Y-37980000D02*
X78680000Y-58540000D01*
X78680000Y-58540000D02*
X88960000Y-58540000D01*
X88960000Y-58540000D02*
X88960000Y-37980000D01*
X88960000Y-37980000D02*
X78680000Y-37980000D01*
X84820000Y-38040000D02*
G75*
G02*
X82820000Y-38040000I-1000000J0D01*
G01*
%TO.C,U1*%
X100600000Y-24070000D02*
X98950000Y-24070000D01*
X98950000Y-24070000D02*
X98950000Y-44510000D01*
X98950000Y-44510000D02*
X104250000Y-44510000D01*
X104250000Y-44510000D02*
X104250000Y-24070000D01*
X104250000Y-24070000D02*
X102600000Y-24070000D01*
X96460000Y-24010000D02*
X96460000Y-44570000D01*
X96460000Y-44570000D02*
X106740000Y-44570000D01*
X106740000Y-44570000D02*
X106740000Y-24010000D01*
X106740000Y-24010000D02*
X96460000Y-24010000D01*
X102600000Y-24070000D02*
G75*
G02*
X100600000Y-24070000I-1000000J0D01*
G01*
%TO.C,R8*%
X68680000Y-78010000D02*
X65940000Y-78010000D01*
X65940000Y-78010000D02*
X65940000Y-84550000D01*
X65940000Y-84550000D02*
X68680000Y-84550000D01*
X68680000Y-84550000D02*
X68680000Y-78010000D01*
X67310000Y-77240000D02*
X67310000Y-78010000D01*
X67310000Y-85320000D02*
X67310000Y-84550000D01*
%TO.C,R7*%
X60420000Y-83920000D02*
X60420000Y-81180000D01*
X60420000Y-81180000D02*
X53880000Y-81180000D01*
X53880000Y-81180000D02*
X53880000Y-83920000D01*
X53880000Y-83920000D02*
X60420000Y-83920000D01*
X61190000Y-82550000D02*
X60420000Y-82550000D01*
X53110000Y-82550000D02*
X53880000Y-82550000D01*
%TO.C,R6*%
X31020000Y-120550000D02*
X31020000Y-123290000D01*
X31020000Y-123290000D02*
X37560000Y-123290000D01*
X37560000Y-123290000D02*
X37560000Y-120550000D01*
X37560000Y-120550000D02*
X31020000Y-120550000D01*
X30250000Y-121920000D02*
X31020000Y-121920000D01*
X38330000Y-121920000D02*
X37560000Y-121920000D01*
%TO.C,R5*%
X15140000Y-99790000D02*
X17880000Y-99790000D01*
X17880000Y-99790000D02*
X17880000Y-93250000D01*
X17880000Y-93250000D02*
X15140000Y-93250000D01*
X15140000Y-93250000D02*
X15140000Y-99790000D01*
X16510000Y-100560000D02*
X16510000Y-99790000D01*
X16510000Y-92480000D02*
X16510000Y-93250000D01*
%TO.C,R4*%
X82010000Y-33120000D02*
X82010000Y-30380000D01*
X82010000Y-30380000D02*
X75470000Y-30380000D01*
X75470000Y-30380000D02*
X75470000Y-33120000D01*
X75470000Y-33120000D02*
X82010000Y-33120000D01*
X82780000Y-31750000D02*
X82010000Y-31750000D01*
X74700000Y-31750000D02*
X75470000Y-31750000D01*
%TO.C,R3*%
X110590000Y-32290000D02*
X107850000Y-32290000D01*
X107850000Y-32290000D02*
X107850000Y-38830000D01*
X107850000Y-38830000D02*
X110590000Y-38830000D01*
X110590000Y-38830000D02*
X110590000Y-32290000D01*
X109220000Y-31520000D02*
X109220000Y-32290000D01*
X109220000Y-39600000D02*
X109220000Y-38830000D01*
%TO.C,R2*%
X83090000Y-68480000D02*
X83090000Y-71220000D01*
X83090000Y-71220000D02*
X89630000Y-71220000D01*
X89630000Y-71220000D02*
X89630000Y-68480000D01*
X89630000Y-68480000D02*
X83090000Y-68480000D01*
X82320000Y-69850000D02*
X83090000Y-69850000D01*
X90400000Y-69850000D02*
X89630000Y-69850000D01*
%TO.C,R1*%
X103410000Y-48160000D02*
X103410000Y-50900000D01*
X103410000Y-50900000D02*
X109950000Y-50900000D01*
X109950000Y-50900000D02*
X109950000Y-48160000D01*
X109950000Y-48160000D02*
X103410000Y-48160000D01*
X102640000Y-49530000D02*
X103410000Y-49530000D01*
X110720000Y-49530000D02*
X109950000Y-49530000D01*
%TO.C,J22*%
X81220000Y-16450000D02*
X81220000Y-19110000D01*
X86360000Y-16450000D02*
X81220000Y-16450000D01*
X86360000Y-19110000D02*
X81220000Y-19110000D01*
X86360000Y-16450000D02*
X86360000Y-19110000D01*
X87630000Y-16450000D02*
X88960000Y-16450000D01*
X88960000Y-16450000D02*
X88960000Y-17780000D01*
%TO.C,J21*%
X93920000Y-16450000D02*
X93920000Y-19110000D01*
X99060000Y-16450000D02*
X93920000Y-16450000D01*
X99060000Y-19110000D02*
X93920000Y-19110000D01*
X99060000Y-16450000D02*
X99060000Y-19110000D01*
X100330000Y-16450000D02*
X101660000Y-16450000D01*
X101660000Y-16450000D02*
X101660000Y-17780000D01*
%TO.C,J20*%
X134560000Y-113090000D02*
X137220000Y-113090000D01*
X134560000Y-107950000D02*
X134560000Y-113090000D01*
X137220000Y-107950000D02*
X137220000Y-113090000D01*
X134560000Y-107950000D02*
X137220000Y-107950000D01*
X134560000Y-106680000D02*
X134560000Y-105350000D01*
X134560000Y-105350000D02*
X135890000Y-105350000D01*
%TO.C,J19*%
X54550000Y-20320000D02*
X57210000Y-20320000D01*
X54550000Y-20320000D02*
X54550000Y-28000000D01*
X54550000Y-28000000D02*
X57210000Y-28000000D01*
X57210000Y-20320000D02*
X57210000Y-28000000D01*
X57210000Y-17720000D02*
X57210000Y-19050000D01*
X55880000Y-17720000D02*
X57210000Y-17720000D01*
%TO.C,J18*%
X134560000Y-101660000D02*
X137220000Y-101660000D01*
X134560000Y-96520000D02*
X134560000Y-101660000D01*
X137220000Y-96520000D02*
X137220000Y-101660000D01*
X134560000Y-96520000D02*
X137220000Y-96520000D01*
X134560000Y-95250000D02*
X134560000Y-93920000D01*
X134560000Y-93920000D02*
X135890000Y-93920000D01*
%TO.C,J17*%
X35560000Y-39430000D02*
X35560000Y-36770000D01*
X35560000Y-39430000D02*
X53400000Y-39430000D01*
X53400000Y-39430000D02*
X53400000Y-36770000D01*
X35560000Y-36770000D02*
X53400000Y-36770000D01*
X32960000Y-36770000D02*
X34290000Y-36770000D01*
X32960000Y-38100000D02*
X32960000Y-36770000D01*
%TO.C,J16*%
X40580000Y-33080000D02*
X43240000Y-33080000D01*
X40580000Y-20320000D02*
X40580000Y-33080000D01*
X43240000Y-20320000D02*
X43240000Y-33080000D01*
X40580000Y-20320000D02*
X43240000Y-20320000D01*
X40580000Y-19050000D02*
X40580000Y-17720000D01*
X40580000Y-17720000D02*
X41910000Y-17720000D01*
%TO.C,J15*%
X76260000Y-38040000D02*
X73600000Y-38040000D01*
X76260000Y-53340000D02*
X76260000Y-38040000D01*
X73600000Y-53340000D02*
X73600000Y-38040000D01*
X76260000Y-53340000D02*
X73600000Y-53340000D01*
X76260000Y-54610000D02*
X76260000Y-55940000D01*
X76260000Y-55940000D02*
X74930000Y-55940000D01*
%TO.C,J14*%
X60900000Y-20320000D02*
X63560000Y-20320000D01*
X60900000Y-20320000D02*
X60900000Y-28000000D01*
X60900000Y-28000000D02*
X63560000Y-28000000D01*
X63560000Y-20320000D02*
X63560000Y-28000000D01*
X63560000Y-17720000D02*
X63560000Y-19050000D01*
X62230000Y-17720000D02*
X63560000Y-17720000D01*
%TO.C,J13*%
X134560000Y-90230000D02*
X137220000Y-90230000D01*
X134560000Y-85090000D02*
X134560000Y-90230000D01*
X137220000Y-85090000D02*
X137220000Y-90230000D01*
X134560000Y-85090000D02*
X137220000Y-85090000D01*
X134560000Y-83820000D02*
X134560000Y-82490000D01*
X134560000Y-82490000D02*
X135890000Y-82490000D01*
%TO.C,J12*%
X32960000Y-33080000D02*
X35620000Y-33080000D01*
X32960000Y-20320000D02*
X32960000Y-33080000D01*
X35620000Y-20320000D02*
X35620000Y-33080000D01*
X32960000Y-20320000D02*
X35620000Y-20320000D01*
X32960000Y-19050000D02*
X32960000Y-17720000D01*
X32960000Y-17720000D02*
X34290000Y-17720000D01*
%TO.C,J11*%
X73600000Y-20320000D02*
X76260000Y-20320000D01*
X73600000Y-20320000D02*
X73600000Y-28000000D01*
X73600000Y-28000000D02*
X76260000Y-28000000D01*
X76260000Y-20320000D02*
X76260000Y-28000000D01*
X76260000Y-17720000D02*
X76260000Y-19050000D01*
X74930000Y-17720000D02*
X76260000Y-17720000D01*
%TO.C,J10*%
X134560000Y-78800000D02*
X137220000Y-78800000D01*
X134560000Y-73660000D02*
X134560000Y-78800000D01*
X137220000Y-73660000D02*
X137220000Y-78800000D01*
X134560000Y-73660000D02*
X137220000Y-73660000D01*
X134560000Y-72390000D02*
X134560000Y-71060000D01*
X134560000Y-71060000D02*
X135890000Y-71060000D01*
%TO.C,J9*%
X134560000Y-67370000D02*
X137220000Y-67370000D01*
X134560000Y-62230000D02*
X134560000Y-67370000D01*
X137220000Y-62230000D02*
X137220000Y-67370000D01*
X134560000Y-62230000D02*
X137220000Y-62230000D01*
X134560000Y-60960000D02*
X134560000Y-59630000D01*
X134560000Y-59630000D02*
X135890000Y-59630000D01*
%TO.C,J8*%
X25340000Y-33080000D02*
X28000000Y-33080000D01*
X25340000Y-20320000D02*
X25340000Y-33080000D01*
X28000000Y-20320000D02*
X28000000Y-33080000D01*
X25340000Y-20320000D02*
X28000000Y-20320000D01*
X25340000Y-19050000D02*
X25340000Y-17720000D01*
X25340000Y-17720000D02*
X26670000Y-17720000D01*
%TO.C,J7*%
X67250000Y-20320000D02*
X69910000Y-20320000D01*
X67250000Y-20320000D02*
X67250000Y-28000000D01*
X67250000Y-28000000D02*
X69910000Y-28000000D01*
X69910000Y-20320000D02*
X69910000Y-28000000D01*
X69910000Y-17720000D02*
X69910000Y-19050000D01*
X68580000Y-17720000D02*
X69910000Y-17720000D01*
%TO.C,J6*%
X134560000Y-55940000D02*
X137220000Y-55940000D01*
X134560000Y-50800000D02*
X134560000Y-55940000D01*
X137220000Y-50800000D02*
X137220000Y-55940000D01*
X134560000Y-50800000D02*
X137220000Y-50800000D01*
X134560000Y-49530000D02*
X134560000Y-48200000D01*
X134560000Y-48200000D02*
X135890000Y-48200000D01*
%TO.C,J5*%
X134560000Y-44510000D02*
X137220000Y-44510000D01*
X134560000Y-39370000D02*
X134560000Y-44510000D01*
X137220000Y-39370000D02*
X137220000Y-44510000D01*
X134560000Y-39370000D02*
X137220000Y-39370000D01*
X134560000Y-38100000D02*
X134560000Y-36770000D01*
X134560000Y-36770000D02*
X135890000Y-36770000D01*
%TO.C,J4*%
X134560000Y-33080000D02*
X137220000Y-33080000D01*
X134560000Y-27940000D02*
X134560000Y-33080000D01*
X137220000Y-27940000D02*
X137220000Y-33080000D01*
X134560000Y-27940000D02*
X137220000Y-27940000D01*
X134560000Y-26670000D02*
X134560000Y-25340000D01*
X134560000Y-25340000D02*
X135890000Y-25340000D01*
%TO.C,J3*%
X111760000Y-19110000D02*
X111760000Y-16450000D01*
X111760000Y-19110000D02*
X129600000Y-19110000D01*
X129600000Y-19110000D02*
X129600000Y-16450000D01*
X111760000Y-16450000D02*
X129600000Y-16450000D01*
X109160000Y-16450000D02*
X110490000Y-16450000D01*
X109160000Y-17780000D02*
X109160000Y-16450000D01*
%TO.C,J2*%
X49530000Y-34350000D02*
X49530000Y-31690000D01*
X49530000Y-34350000D02*
X57210000Y-34350000D01*
X57210000Y-34350000D02*
X57210000Y-31690000D01*
X49530000Y-31690000D02*
X57210000Y-31690000D01*
X46930000Y-31690000D02*
X48260000Y-31690000D01*
X46930000Y-33020000D02*
X46930000Y-31690000D01*
%TO.C,J1*%
X91380000Y-24130000D02*
X94040000Y-24130000D01*
X91380000Y-24130000D02*
X91380000Y-41970000D01*
X91380000Y-41970000D02*
X94040000Y-41970000D01*
X94040000Y-24130000D02*
X94040000Y-41970000D01*
X94040000Y-21530000D02*
X94040000Y-22860000D01*
X92710000Y-21530000D02*
X94040000Y-21530000D01*
D11*
%TO.C,D9*%
X75020000Y-119520000D02*
X75020000Y-124320000D01*
X75020000Y-124320000D02*
X105320000Y-124320000D01*
X105320000Y-124320000D02*
X105320000Y-119520000D01*
X105320000Y-119520000D02*
X75020000Y-119520000D01*
D13*
X77570000Y-124770000D02*
G75*
G03*
X77570000Y-124770000I-100000J0D01*
G01*
D10*
%TO.C,C13*%
X81977738Y-111415000D02*
X82527738Y-111415000D01*
X82252738Y-111140000D02*
X82252738Y-111690000D01*
X87717077Y-114090000D02*
G75*
G02*
X82382923Y-114090000I-2667077J1060000D01*
G01*
X87717077Y-111970000D02*
G75*
G03*
X82382923Y-111970000I-2667077J-1060000D01*
G01*
%TO.C,C12*%
X107800000Y-26130000D02*
X107800000Y-22090000D01*
X110640000Y-26130000D02*
X110640000Y-22090000D01*
X107800000Y-26130000D02*
X108425000Y-26130000D01*
X110015000Y-26130000D02*
X110640000Y-26130000D01*
X107800000Y-22090000D02*
X108425000Y-22090000D01*
X110015000Y-22090000D02*
X110640000Y-22090000D01*
%TO.C,C11*%
X52570000Y-111610000D02*
X56610000Y-111610000D01*
X52570000Y-114450000D02*
X56610000Y-114450000D01*
X52570000Y-111610000D02*
X52570000Y-112235000D01*
X52570000Y-113825000D02*
X52570000Y-114450000D01*
X56610000Y-111610000D02*
X56610000Y-112235000D01*
X56610000Y-113825000D02*
X56610000Y-114450000D01*
%TO.C,C10*%
X81780000Y-60810000D02*
X85820000Y-60810000D01*
X81780000Y-63650000D02*
X85820000Y-63650000D01*
X81780000Y-60810000D02*
X81780000Y-61435000D01*
X81780000Y-63025000D02*
X81780000Y-63650000D01*
X85820000Y-60810000D02*
X85820000Y-61435000D01*
X85820000Y-63025000D02*
X85820000Y-63650000D01*
%TO.C,C9*%
X52570000Y-72240000D02*
X56610000Y-72240000D01*
X52570000Y-75080000D02*
X56610000Y-75080000D01*
X52570000Y-72240000D02*
X52570000Y-72865000D01*
X52570000Y-74455000D02*
X52570000Y-75080000D01*
X56610000Y-72240000D02*
X56610000Y-72865000D01*
X56610000Y-74455000D02*
X56610000Y-75080000D01*
%TO.C,C8*%
X91290000Y-47760000D02*
X91290000Y-43720000D01*
X94130000Y-47760000D02*
X94130000Y-43720000D01*
X91290000Y-47760000D02*
X91915000Y-47760000D01*
X93505000Y-47760000D02*
X94130000Y-47760000D01*
X91290000Y-43720000D02*
X91915000Y-43720000D01*
X93505000Y-43720000D02*
X94130000Y-43720000D01*
%TO.C,C7*%
X102100000Y-82400000D02*
X106140000Y-82400000D01*
X102100000Y-85240000D02*
X106140000Y-85240000D01*
X102100000Y-82400000D02*
X102100000Y-83025000D01*
X102100000Y-84615000D02*
X102100000Y-85240000D01*
X106140000Y-82400000D02*
X106140000Y-83025000D01*
X106140000Y-84615000D02*
X106140000Y-85240000D01*
%TO.C,C6*%
X116070000Y-46840000D02*
X120110000Y-46840000D01*
X116070000Y-49680000D02*
X120110000Y-49680000D01*
X116070000Y-46840000D02*
X116070000Y-47465000D01*
X116070000Y-49055000D02*
X116070000Y-49680000D01*
X120110000Y-46840000D02*
X120110000Y-47465000D01*
X120110000Y-49055000D02*
X120110000Y-49680000D01*
%TO.C,C5*%
X65270000Y-111610000D02*
X69310000Y-111610000D01*
X65270000Y-114450000D02*
X69310000Y-114450000D01*
X65270000Y-111610000D02*
X65270000Y-112235000D01*
X65270000Y-113825000D02*
X65270000Y-114450000D01*
X69310000Y-111610000D02*
X69310000Y-112235000D01*
X69310000Y-113825000D02*
X69310000Y-114450000D01*
%TO.C,C4*%
X22130000Y-114150000D02*
X26170000Y-114150000D01*
X22130000Y-116990000D02*
X26170000Y-116990000D01*
X22130000Y-114150000D02*
X22130000Y-114775000D01*
X22130000Y-116365000D02*
X22130000Y-116990000D01*
X26170000Y-114150000D02*
X26170000Y-114775000D01*
X26170000Y-116365000D02*
X26170000Y-116990000D01*
%TO.C,C3*%
X33520000Y-115420000D02*
X37560000Y-115420000D01*
X33520000Y-118260000D02*
X37560000Y-118260000D01*
X33520000Y-115420000D02*
X33520000Y-116045000D01*
X33520000Y-117635000D02*
X33520000Y-118260000D01*
X37560000Y-115420000D02*
X37560000Y-116045000D01*
X37560000Y-117635000D02*
X37560000Y-118260000D01*
%TO.C,C2*%
X116070000Y-82400000D02*
X120110000Y-82400000D01*
X116070000Y-85240000D02*
X120110000Y-85240000D01*
X116070000Y-82400000D02*
X116070000Y-83025000D01*
X116070000Y-84615000D02*
X116070000Y-85240000D01*
X120110000Y-82400000D02*
X120110000Y-83025000D01*
X120110000Y-84615000D02*
X120110000Y-85240000D01*
%TO.C,C1*%
X61460000Y-60810000D02*
X65500000Y-60810000D01*
X61460000Y-63650000D02*
X65500000Y-63650000D01*
X61460000Y-60810000D02*
X61460000Y-61435000D01*
X61460000Y-63025000D02*
X61460000Y-63650000D01*
X65500000Y-60810000D02*
X65500000Y-61435000D01*
X65500000Y-63025000D02*
X65500000Y-63650000D01*
%TO.C,J23*%
D14*
X122602380Y-122729523D02*
X123316666Y-122729523D01*
X123459523Y-122777142D01*
X123554761Y-122872380D01*
X123602380Y-123015238D01*
X123602380Y-123110476D01*
X122697619Y-122300952D02*
X122650000Y-122253333D01*
X122602380Y-122158095D01*
X122602380Y-121920000D01*
X122650000Y-121824761D01*
X122697619Y-121777142D01*
X122792857Y-121729523D01*
X122888095Y-121729523D01*
X123030952Y-121777142D01*
X123602380Y-122348571D01*
X123602380Y-121729523D01*
X122602380Y-121396190D02*
X122602380Y-120777142D01*
X122983333Y-121110476D01*
X122983333Y-120967619D01*
X123030952Y-120872380D01*
X123078571Y-120824761D01*
X123173809Y-120777142D01*
X123411904Y-120777142D01*
X123507142Y-120824761D01*
X123554761Y-120872380D01*
X123602380Y-120967619D01*
X123602380Y-121253333D01*
X123554761Y-121348571D01*
X123507142Y-121396190D01*
%TO.C,RN1*%
X93302380Y-61650476D02*
X92826190Y-61983809D01*
X93302380Y-62221904D02*
X92302380Y-62221904D01*
X92302380Y-61840952D01*
X92350000Y-61745714D01*
X92397619Y-61698095D01*
X92492857Y-61650476D01*
X92635714Y-61650476D01*
X92730952Y-61698095D01*
X92778571Y-61745714D01*
X92826190Y-61840952D01*
X92826190Y-62221904D01*
X93302380Y-61221904D02*
X92302380Y-61221904D01*
X93302380Y-60650476D01*
X92302380Y-60650476D01*
X93302380Y-59650476D02*
X93302380Y-60221904D01*
X93302380Y-59936190D02*
X92302380Y-59936190D01*
X92445238Y-60031428D01*
X92540476Y-60126666D01*
X92588095Y-60221904D01*
%TO.C,D8*%
X134222380Y-109958095D02*
X133222380Y-109958095D01*
X133222380Y-109720000D01*
X133270000Y-109577142D01*
X133365238Y-109481904D01*
X133460476Y-109434285D01*
X133650952Y-109386666D01*
X133793809Y-109386666D01*
X133984285Y-109434285D01*
X134079523Y-109481904D01*
X134174761Y-109577142D01*
X134222380Y-109720000D01*
X134222380Y-109958095D01*
X133650952Y-108815238D02*
X133603333Y-108910476D01*
X133555714Y-108958095D01*
X133460476Y-109005714D01*
X133412857Y-109005714D01*
X133317619Y-108958095D01*
X133270000Y-108910476D01*
X133222380Y-108815238D01*
X133222380Y-108624761D01*
X133270000Y-108529523D01*
X133317619Y-108481904D01*
X133412857Y-108434285D01*
X133460476Y-108434285D01*
X133555714Y-108481904D01*
X133603333Y-108529523D01*
X133650952Y-108624761D01*
X133650952Y-108815238D01*
X133698571Y-108910476D01*
X133746190Y-108958095D01*
X133841428Y-109005714D01*
X134031904Y-109005714D01*
X134127142Y-108958095D01*
X134174761Y-108910476D01*
X134222380Y-108815238D01*
X134222380Y-108624761D01*
X134174761Y-108529523D01*
X134127142Y-108481904D01*
X134031904Y-108434285D01*
X133841428Y-108434285D01*
X133746190Y-108481904D01*
X133698571Y-108529523D01*
X133650952Y-108624761D01*
%TO.C,D7*%
X134222380Y-98528095D02*
X133222380Y-98528095D01*
X133222380Y-98290000D01*
X133270000Y-98147142D01*
X133365238Y-98051904D01*
X133460476Y-98004285D01*
X133650952Y-97956666D01*
X133793809Y-97956666D01*
X133984285Y-98004285D01*
X134079523Y-98051904D01*
X134174761Y-98147142D01*
X134222380Y-98290000D01*
X134222380Y-98528095D01*
X133222380Y-97623333D02*
X133222380Y-96956666D01*
X134222380Y-97385238D01*
%TO.C,D6*%
X134222380Y-87098095D02*
X133222380Y-87098095D01*
X133222380Y-86860000D01*
X133270000Y-86717142D01*
X133365238Y-86621904D01*
X133460476Y-86574285D01*
X133650952Y-86526666D01*
X133793809Y-86526666D01*
X133984285Y-86574285D01*
X134079523Y-86621904D01*
X134174761Y-86717142D01*
X134222380Y-86860000D01*
X134222380Y-87098095D01*
X133222380Y-85669523D02*
X133222380Y-85860000D01*
X133270000Y-85955238D01*
X133317619Y-86002857D01*
X133460476Y-86098095D01*
X133650952Y-86145714D01*
X134031904Y-86145714D01*
X134127142Y-86098095D01*
X134174761Y-86050476D01*
X134222380Y-85955238D01*
X134222380Y-85764761D01*
X134174761Y-85669523D01*
X134127142Y-85621904D01*
X134031904Y-85574285D01*
X133793809Y-85574285D01*
X133698571Y-85621904D01*
X133650952Y-85669523D01*
X133603333Y-85764761D01*
X133603333Y-85955238D01*
X133650952Y-86050476D01*
X133698571Y-86098095D01*
X133793809Y-86145714D01*
%TO.C,D5*%
X134222380Y-75668095D02*
X133222380Y-75668095D01*
X133222380Y-75430000D01*
X133270000Y-75287142D01*
X133365238Y-75191904D01*
X133460476Y-75144285D01*
X133650952Y-75096666D01*
X133793809Y-75096666D01*
X133984285Y-75144285D01*
X134079523Y-75191904D01*
X134174761Y-75287142D01*
X134222380Y-75430000D01*
X134222380Y-75668095D01*
X133222380Y-74191904D02*
X133222380Y-74668095D01*
X133698571Y-74715714D01*
X133650952Y-74668095D01*
X133603333Y-74572857D01*
X133603333Y-74334761D01*
X133650952Y-74239523D01*
X133698571Y-74191904D01*
X133793809Y-74144285D01*
X134031904Y-74144285D01*
X134127142Y-74191904D01*
X134174761Y-74239523D01*
X134222380Y-74334761D01*
X134222380Y-74572857D01*
X134174761Y-74668095D01*
X134127142Y-74715714D01*
%TO.C,D4*%
X134222380Y-64238095D02*
X133222380Y-64238095D01*
X133222380Y-64000000D01*
X133270000Y-63857142D01*
X133365238Y-63761904D01*
X133460476Y-63714285D01*
X133650952Y-63666666D01*
X133793809Y-63666666D01*
X133984285Y-63714285D01*
X134079523Y-63761904D01*
X134174761Y-63857142D01*
X134222380Y-64000000D01*
X134222380Y-64238095D01*
X133555714Y-62809523D02*
X134222380Y-62809523D01*
X133174761Y-63047619D02*
X133889047Y-63285714D01*
X133889047Y-62666666D01*
%TO.C,D3*%
X134222380Y-52808095D02*
X133222380Y-52808095D01*
X133222380Y-52570000D01*
X133270000Y-52427142D01*
X133365238Y-52331904D01*
X133460476Y-52284285D01*
X133650952Y-52236666D01*
X133793809Y-52236666D01*
X133984285Y-52284285D01*
X134079523Y-52331904D01*
X134174761Y-52427142D01*
X134222380Y-52570000D01*
X134222380Y-52808095D01*
X133222380Y-51903333D02*
X133222380Y-51284285D01*
X133603333Y-51617619D01*
X133603333Y-51474761D01*
X133650952Y-51379523D01*
X133698571Y-51331904D01*
X133793809Y-51284285D01*
X134031904Y-51284285D01*
X134127142Y-51331904D01*
X134174761Y-51379523D01*
X134222380Y-51474761D01*
X134222380Y-51760476D01*
X134174761Y-51855714D01*
X134127142Y-51903333D01*
%TO.C,D2*%
X134222380Y-42648095D02*
X133222380Y-42648095D01*
X133222380Y-42410000D01*
X133270000Y-42267142D01*
X133365238Y-42171904D01*
X133460476Y-42124285D01*
X133650952Y-42076666D01*
X133793809Y-42076666D01*
X133984285Y-42124285D01*
X134079523Y-42171904D01*
X134174761Y-42267142D01*
X134222380Y-42410000D01*
X134222380Y-42648095D01*
X133317619Y-41695714D02*
X133270000Y-41648095D01*
X133222380Y-41552857D01*
X133222380Y-41314761D01*
X133270000Y-41219523D01*
X133317619Y-41171904D01*
X133412857Y-41124285D01*
X133508095Y-41124285D01*
X133650952Y-41171904D01*
X134222380Y-41743333D01*
X134222380Y-41124285D01*
%TO.C,D1*%
X134222380Y-31218095D02*
X133222380Y-31218095D01*
X133222380Y-30980000D01*
X133270000Y-30837142D01*
X133365238Y-30741904D01*
X133460476Y-30694285D01*
X133650952Y-30646666D01*
X133793809Y-30646666D01*
X133984285Y-30694285D01*
X134079523Y-30741904D01*
X134174761Y-30837142D01*
X134222380Y-30980000D01*
X134222380Y-31218095D01*
X134222380Y-29694285D02*
X134222380Y-30265714D01*
X134222380Y-29980000D02*
X133222380Y-29980000D01*
X133365238Y-30075238D01*
X133460476Y-30170476D01*
X133508095Y-30265714D01*
%TO.C,U14*%
X63531904Y-125642380D02*
X63531904Y-126451904D01*
X63579523Y-126547142D01*
X63627142Y-126594761D01*
X63722380Y-126642380D01*
X63912857Y-126642380D01*
X64008095Y-126594761D01*
X64055714Y-126547142D01*
X64103333Y-126451904D01*
X64103333Y-125642380D01*
X65103333Y-126642380D02*
X64531904Y-126642380D01*
X64817619Y-126642380D02*
X64817619Y-125642380D01*
X64722380Y-125785238D01*
X64627142Y-125880476D01*
X64531904Y-125928095D01*
X65960476Y-125975714D02*
X65960476Y-126642380D01*
X65722380Y-125594761D02*
X65484285Y-126309047D01*
X66103333Y-126309047D01*
%TO.C,U13*%
X69881904Y-109732380D02*
X69881904Y-110541904D01*
X69929523Y-110637142D01*
X69977142Y-110684761D01*
X70072380Y-110732380D01*
X70262857Y-110732380D01*
X70358095Y-110684761D01*
X70405714Y-110637142D01*
X70453333Y-110541904D01*
X70453333Y-109732380D01*
X71453333Y-110732380D02*
X70881904Y-110732380D01*
X71167619Y-110732380D02*
X71167619Y-109732380D01*
X71072380Y-109875238D01*
X70977142Y-109970476D01*
X70881904Y-110018095D01*
X71786666Y-109732380D02*
X72405714Y-109732380D01*
X72072380Y-110113333D01*
X72215238Y-110113333D01*
X72310476Y-110160952D01*
X72358095Y-110208571D01*
X72405714Y-110303809D01*
X72405714Y-110541904D01*
X72358095Y-110637142D01*
X72310476Y-110684761D01*
X72215238Y-110732380D01*
X71929523Y-110732380D01*
X71834285Y-110684761D01*
X71786666Y-110637142D01*
%TO.C,U12*%
X36861904Y-113542380D02*
X36861904Y-114351904D01*
X36909523Y-114447142D01*
X36957142Y-114494761D01*
X37052380Y-114542380D01*
X37242857Y-114542380D01*
X37338095Y-114494761D01*
X37385714Y-114447142D01*
X37433333Y-114351904D01*
X37433333Y-113542380D01*
X38433333Y-114542380D02*
X37861904Y-114542380D01*
X38147619Y-114542380D02*
X38147619Y-113542380D01*
X38052380Y-113685238D01*
X37957142Y-113780476D01*
X37861904Y-113828095D01*
X38814285Y-113637619D02*
X38861904Y-113590000D01*
X38957142Y-113542380D01*
X39195238Y-113542380D01*
X39290476Y-113590000D01*
X39338095Y-113637619D01*
X39385714Y-113732857D01*
X39385714Y-113828095D01*
X39338095Y-113970952D01*
X38766666Y-114542380D01*
X39385714Y-114542380D01*
%TO.C,U11*%
X116871904Y-22522380D02*
X116871904Y-23331904D01*
X116919523Y-23427142D01*
X116967142Y-23474761D01*
X117062380Y-23522380D01*
X117252857Y-23522380D01*
X117348095Y-23474761D01*
X117395714Y-23427142D01*
X117443333Y-23331904D01*
X117443333Y-22522380D01*
X118443333Y-23522380D02*
X117871904Y-23522380D01*
X118157619Y-23522380D02*
X118157619Y-22522380D01*
X118062380Y-22665238D01*
X117967142Y-22760476D01*
X117871904Y-22808095D01*
X119395714Y-23522380D02*
X118824285Y-23522380D01*
X119110000Y-23522380D02*
X119110000Y-22522380D01*
X119014761Y-22665238D01*
X118919523Y-22760476D01*
X118824285Y-22808095D01*
%TO.C,U10*%
X22891904Y-112272380D02*
X22891904Y-113081904D01*
X22939523Y-113177142D01*
X22987142Y-113224761D01*
X23082380Y-113272380D01*
X23272857Y-113272380D01*
X23368095Y-113224761D01*
X23415714Y-113177142D01*
X23463333Y-113081904D01*
X23463333Y-112272380D01*
X24463333Y-113272380D02*
X23891904Y-113272380D01*
X24177619Y-113272380D02*
X24177619Y-112272380D01*
X24082380Y-112415238D01*
X23987142Y-112510476D01*
X23891904Y-112558095D01*
X25082380Y-112272380D02*
X25177619Y-112272380D01*
X25272857Y-112320000D01*
X25320476Y-112367619D01*
X25368095Y-112462857D01*
X25415714Y-112653333D01*
X25415714Y-112891428D01*
X25368095Y-113081904D01*
X25320476Y-113177142D01*
X25272857Y-113224761D01*
X25177619Y-113272380D01*
X25082380Y-113272380D01*
X24987142Y-113224761D01*
X24939523Y-113177142D01*
X24891904Y-113081904D01*
X24844285Y-112891428D01*
X24844285Y-112653333D01*
X24891904Y-112462857D01*
X24939523Y-112367619D01*
X24987142Y-112320000D01*
X25082380Y-112272380D01*
%TO.C,U9*%
X56388095Y-109732380D02*
X56388095Y-110541904D01*
X56435714Y-110637142D01*
X56483333Y-110684761D01*
X56578571Y-110732380D01*
X56769047Y-110732380D01*
X56864285Y-110684761D01*
X56911904Y-110637142D01*
X56959523Y-110541904D01*
X56959523Y-109732380D01*
X57483333Y-110732380D02*
X57673809Y-110732380D01*
X57769047Y-110684761D01*
X57816666Y-110637142D01*
X57911904Y-110494285D01*
X57959523Y-110303809D01*
X57959523Y-109922857D01*
X57911904Y-109827619D01*
X57864285Y-109780000D01*
X57769047Y-109732380D01*
X57578571Y-109732380D01*
X57483333Y-109780000D01*
X57435714Y-109827619D01*
X57388095Y-109922857D01*
X57388095Y-110160952D01*
X57435714Y-110256190D01*
X57483333Y-110303809D01*
X57578571Y-110351428D01*
X57769047Y-110351428D01*
X57864285Y-110303809D01*
X57911904Y-110256190D01*
X57959523Y-110160952D01*
%TO.C,U8*%
X103378095Y-56812380D02*
X103378095Y-57621904D01*
X103425714Y-57717142D01*
X103473333Y-57764761D01*
X103568571Y-57812380D01*
X103759047Y-57812380D01*
X103854285Y-57764761D01*
X103901904Y-57717142D01*
X103949523Y-57621904D01*
X103949523Y-56812380D01*
X104568571Y-57240952D02*
X104473333Y-57193333D01*
X104425714Y-57145714D01*
X104378095Y-57050476D01*
X104378095Y-57002857D01*
X104425714Y-56907619D01*
X104473333Y-56860000D01*
X104568571Y-56812380D01*
X104759047Y-56812380D01*
X104854285Y-56860000D01*
X104901904Y-56907619D01*
X104949523Y-57002857D01*
X104949523Y-57050476D01*
X104901904Y-57145714D01*
X104854285Y-57193333D01*
X104759047Y-57240952D01*
X104568571Y-57240952D01*
X104473333Y-57288571D01*
X104425714Y-57336190D01*
X104378095Y-57431428D01*
X104378095Y-57621904D01*
X104425714Y-57717142D01*
X104473333Y-57764761D01*
X104568571Y-57812380D01*
X104759047Y-57812380D01*
X104854285Y-57764761D01*
X104901904Y-57717142D01*
X104949523Y-57621904D01*
X104949523Y-57431428D01*
X104901904Y-57336190D01*
X104854285Y-57288571D01*
X104759047Y-57240952D01*
%TO.C,U7*%
X17503095Y-71597380D02*
X17503095Y-72406904D01*
X17550714Y-72502142D01*
X17598333Y-72549761D01*
X17693571Y-72597380D01*
X17884047Y-72597380D01*
X17979285Y-72549761D01*
X18026904Y-72502142D01*
X18074523Y-72406904D01*
X18074523Y-71597380D01*
X18455476Y-71597380D02*
X19122142Y-71597380D01*
X18693571Y-72597380D01*
%TO.C,U6*%
X49227380Y-77446904D02*
X50036904Y-77446904D01*
X50132142Y-77399285D01*
X50179761Y-77351666D01*
X50227380Y-77256428D01*
X50227380Y-77065952D01*
X50179761Y-76970714D01*
X50132142Y-76923095D01*
X50036904Y-76875476D01*
X49227380Y-76875476D01*
X49227380Y-75970714D02*
X49227380Y-76161190D01*
X49275000Y-76256428D01*
X49322619Y-76304047D01*
X49465476Y-76399285D01*
X49655952Y-76446904D01*
X50036904Y-76446904D01*
X50132142Y-76399285D01*
X50179761Y-76351666D01*
X50227380Y-76256428D01*
X50227380Y-76065952D01*
X50179761Y-75970714D01*
X50132142Y-75923095D01*
X50036904Y-75875476D01*
X49798809Y-75875476D01*
X49703571Y-75923095D01*
X49655952Y-75970714D01*
X49608333Y-76065952D01*
X49608333Y-76256428D01*
X49655952Y-76351666D01*
X49703571Y-76399285D01*
X49798809Y-76446904D01*
%TO.C,U5*%
X17653095Y-38187380D02*
X17653095Y-38996904D01*
X17700714Y-39092142D01*
X17748333Y-39139761D01*
X17843571Y-39187380D01*
X18034047Y-39187380D01*
X18129285Y-39139761D01*
X18176904Y-39092142D01*
X18224523Y-38996904D01*
X18224523Y-38187380D01*
X19176904Y-38187380D02*
X18700714Y-38187380D01*
X18653095Y-38663571D01*
X18700714Y-38615952D01*
X18795952Y-38568333D01*
X19034047Y-38568333D01*
X19129285Y-38615952D01*
X19176904Y-38663571D01*
X19224523Y-38758809D01*
X19224523Y-38996904D01*
X19176904Y-39092142D01*
X19129285Y-39139761D01*
X19034047Y-39187380D01*
X18795952Y-39187380D01*
X18700714Y-39139761D01*
X18653095Y-39092142D01*
X25464761Y-56411428D02*
X25971428Y-56411428D01*
X26188571Y-57207619D02*
X25464761Y-57207619D01*
X25464761Y-55687619D01*
X26188571Y-55687619D01*
X26767619Y-57135238D02*
X26984761Y-57207619D01*
X27346666Y-57207619D01*
X27491428Y-57135238D01*
X27563809Y-57062857D01*
X27636190Y-56918095D01*
X27636190Y-56773333D01*
X27563809Y-56628571D01*
X27491428Y-56556190D01*
X27346666Y-56483809D01*
X27057142Y-56411428D01*
X26912380Y-56339047D01*
X26840000Y-56266666D01*
X26767619Y-56121904D01*
X26767619Y-55977142D01*
X26840000Y-55832380D01*
X26912380Y-55760000D01*
X27057142Y-55687619D01*
X27419047Y-55687619D01*
X27636190Y-55760000D01*
X28287619Y-57207619D02*
X28287619Y-55687619D01*
X28866666Y-55687619D01*
X29011428Y-55760000D01*
X29083809Y-55832380D01*
X29156190Y-55977142D01*
X29156190Y-56194285D01*
X29083809Y-56339047D01*
X29011428Y-56411428D01*
X28866666Y-56483809D01*
X28287619Y-56483809D01*
X29662857Y-55687619D02*
X30603809Y-55687619D01*
X30097142Y-56266666D01*
X30314285Y-56266666D01*
X30459047Y-56339047D01*
X30531428Y-56411428D01*
X30603809Y-56556190D01*
X30603809Y-56918095D01*
X30531428Y-57062857D01*
X30459047Y-57135238D01*
X30314285Y-57207619D01*
X29880000Y-57207619D01*
X29735238Y-57135238D01*
X29662857Y-57062857D01*
X31182857Y-55832380D02*
X31255238Y-55760000D01*
X31400000Y-55687619D01*
X31761904Y-55687619D01*
X31906666Y-55760000D01*
X31979047Y-55832380D01*
X32051428Y-55977142D01*
X32051428Y-56121904D01*
X31979047Y-56339047D01*
X31110476Y-57207619D01*
X32051428Y-57207619D01*
X32702857Y-56628571D02*
X33860952Y-56628571D01*
X34584761Y-57207619D02*
X34584761Y-55687619D01*
X34946666Y-55687619D01*
X35163809Y-55760000D01*
X35308571Y-55904761D01*
X35380952Y-56049523D01*
X35453333Y-56339047D01*
X35453333Y-56556190D01*
X35380952Y-56845714D01*
X35308571Y-56990476D01*
X35163809Y-57135238D01*
X34946666Y-57207619D01*
X34584761Y-57207619D01*
X36683809Y-57135238D02*
X36539047Y-57207619D01*
X36249523Y-57207619D01*
X36104761Y-57135238D01*
X36032380Y-56990476D01*
X36032380Y-56411428D01*
X36104761Y-56266666D01*
X36249523Y-56194285D01*
X36539047Y-56194285D01*
X36683809Y-56266666D01*
X36756190Y-56411428D01*
X36756190Y-56556190D01*
X36032380Y-56700952D01*
X37262857Y-56194285D02*
X37624761Y-57207619D01*
X37986666Y-56194285D01*
X38565714Y-57207619D02*
X38565714Y-55687619D01*
X38710476Y-56628571D02*
X39144761Y-57207619D01*
X39144761Y-56194285D02*
X38565714Y-56773333D01*
X39796190Y-57207619D02*
X39796190Y-56194285D01*
X39796190Y-55687619D02*
X39723809Y-55760000D01*
X39796190Y-55832380D01*
X39868571Y-55760000D01*
X39796190Y-55687619D01*
X39796190Y-55832380D01*
X40302857Y-56194285D02*
X40881904Y-56194285D01*
X40520000Y-55687619D02*
X40520000Y-56990476D01*
X40592380Y-57135238D01*
X40737142Y-57207619D01*
X40881904Y-57207619D01*
X41026666Y-55230600D02*
X42329523Y-55230600D01*
X41171428Y-55687619D02*
X41678095Y-57207619D01*
X42184761Y-55687619D01*
X42329523Y-55230600D02*
X43777142Y-55230600D01*
X43487619Y-57207619D02*
X42619047Y-57207619D01*
X43053333Y-57207619D02*
X43053333Y-55687619D01*
X42908571Y-55904761D01*
X42763809Y-56049523D01*
X42619047Y-56121904D01*
X52149523Y-46762857D02*
X52416190Y-46762857D01*
X52530476Y-47181904D02*
X52149523Y-47181904D01*
X52149523Y-46381904D01*
X52530476Y-46381904D01*
X52873333Y-47181904D02*
X52873333Y-46381904D01*
X53330476Y-47181904D01*
X53330476Y-46381904D01*
X49533333Y-46381904D02*
X49800000Y-47181904D01*
X50066666Y-46381904D01*
X50333333Y-47181904D02*
X50333333Y-46381904D01*
X50638095Y-46381904D01*
X50714285Y-46420000D01*
X50752380Y-46458095D01*
X50790476Y-46534285D01*
X50790476Y-46648571D01*
X50752380Y-46724761D01*
X50714285Y-46762857D01*
X50638095Y-46800952D01*
X50333333Y-46800952D01*
X46974285Y-46381904D02*
X47240952Y-47181904D01*
X47507619Y-46381904D01*
X47774285Y-47181904D02*
X47774285Y-46381904D01*
X48231428Y-47181904D01*
X48231428Y-46381904D01*
X43939047Y-47181904D02*
X43939047Y-46381904D01*
X44472380Y-46381904D02*
X44624761Y-46381904D01*
X44700952Y-46420000D01*
X44777142Y-46496190D01*
X44815238Y-46648571D01*
X44815238Y-46915238D01*
X44777142Y-47067619D01*
X44700952Y-47143809D01*
X44624761Y-47181904D01*
X44472380Y-47181904D01*
X44396190Y-47143809D01*
X44320000Y-47067619D01*
X44281904Y-46915238D01*
X44281904Y-46648571D01*
X44320000Y-46496190D01*
X44396190Y-46420000D01*
X44472380Y-46381904D01*
X45081904Y-46381904D02*
X45577142Y-46381904D01*
X45310476Y-46686666D01*
X45424761Y-46686666D01*
X45500952Y-46724761D01*
X45539047Y-46762857D01*
X45577142Y-46839047D01*
X45577142Y-47029523D01*
X45539047Y-47105714D01*
X45500952Y-47143809D01*
X45424761Y-47181904D01*
X45196190Y-47181904D01*
X45120000Y-47143809D01*
X45081904Y-47105714D01*
X46262857Y-46648571D02*
X46262857Y-47181904D01*
X46072380Y-46343809D02*
X45881904Y-46915238D01*
X46377142Y-46915238D01*
X41399047Y-47181904D02*
X41399047Y-46381904D01*
X41932380Y-46381904D02*
X42084761Y-46381904D01*
X42160952Y-46420000D01*
X42237142Y-46496190D01*
X42275238Y-46648571D01*
X42275238Y-46915238D01*
X42237142Y-47067619D01*
X42160952Y-47143809D01*
X42084761Y-47181904D01*
X41932380Y-47181904D01*
X41856190Y-47143809D01*
X41780000Y-47067619D01*
X41741904Y-46915238D01*
X41741904Y-46648571D01*
X41780000Y-46496190D01*
X41856190Y-46420000D01*
X41932380Y-46381904D01*
X42541904Y-46381904D02*
X43037142Y-46381904D01*
X42770476Y-46686666D01*
X42884761Y-46686666D01*
X42960952Y-46724761D01*
X42999047Y-46762857D01*
X43037142Y-46839047D01*
X43037142Y-47029523D01*
X42999047Y-47105714D01*
X42960952Y-47143809D01*
X42884761Y-47181904D01*
X42656190Y-47181904D01*
X42580000Y-47143809D01*
X42541904Y-47105714D01*
X43760952Y-46381904D02*
X43380000Y-46381904D01*
X43341904Y-46762857D01*
X43380000Y-46724761D01*
X43456190Y-46686666D01*
X43646666Y-46686666D01*
X43722857Y-46724761D01*
X43760952Y-46762857D01*
X43799047Y-46839047D01*
X43799047Y-47029523D01*
X43760952Y-47105714D01*
X43722857Y-47143809D01*
X43646666Y-47181904D01*
X43456190Y-47181904D01*
X43380000Y-47143809D01*
X43341904Y-47105714D01*
X38859047Y-47181904D02*
X38859047Y-46381904D01*
X39392380Y-46381904D02*
X39544761Y-46381904D01*
X39620952Y-46420000D01*
X39697142Y-46496190D01*
X39735238Y-46648571D01*
X39735238Y-46915238D01*
X39697142Y-47067619D01*
X39620952Y-47143809D01*
X39544761Y-47181904D01*
X39392380Y-47181904D01*
X39316190Y-47143809D01*
X39240000Y-47067619D01*
X39201904Y-46915238D01*
X39201904Y-46648571D01*
X39240000Y-46496190D01*
X39316190Y-46420000D01*
X39392380Y-46381904D01*
X40001904Y-46381904D02*
X40497142Y-46381904D01*
X40230476Y-46686666D01*
X40344761Y-46686666D01*
X40420952Y-46724761D01*
X40459047Y-46762857D01*
X40497142Y-46839047D01*
X40497142Y-47029523D01*
X40459047Y-47105714D01*
X40420952Y-47143809D01*
X40344761Y-47181904D01*
X40116190Y-47181904D01*
X40040000Y-47143809D01*
X40001904Y-47105714D01*
X40801904Y-46458095D02*
X40840000Y-46420000D01*
X40916190Y-46381904D01*
X41106666Y-46381904D01*
X41182857Y-46420000D01*
X41220952Y-46458095D01*
X41259047Y-46534285D01*
X41259047Y-46610476D01*
X41220952Y-46724761D01*
X40763809Y-47181904D01*
X41259047Y-47181904D01*
X36319047Y-47181904D02*
X36319047Y-46381904D01*
X36852380Y-46381904D02*
X37004761Y-46381904D01*
X37080952Y-46420000D01*
X37157142Y-46496190D01*
X37195238Y-46648571D01*
X37195238Y-46915238D01*
X37157142Y-47067619D01*
X37080952Y-47143809D01*
X37004761Y-47181904D01*
X36852380Y-47181904D01*
X36776190Y-47143809D01*
X36700000Y-47067619D01*
X36661904Y-46915238D01*
X36661904Y-46648571D01*
X36700000Y-46496190D01*
X36776190Y-46420000D01*
X36852380Y-46381904D01*
X37461904Y-46381904D02*
X37957142Y-46381904D01*
X37690476Y-46686666D01*
X37804761Y-46686666D01*
X37880952Y-46724761D01*
X37919047Y-46762857D01*
X37957142Y-46839047D01*
X37957142Y-47029523D01*
X37919047Y-47105714D01*
X37880952Y-47143809D01*
X37804761Y-47181904D01*
X37576190Y-47181904D01*
X37500000Y-47143809D01*
X37461904Y-47105714D01*
X38223809Y-46381904D02*
X38719047Y-46381904D01*
X38452380Y-46686666D01*
X38566666Y-46686666D01*
X38642857Y-46724761D01*
X38680952Y-46762857D01*
X38719047Y-46839047D01*
X38719047Y-47029523D01*
X38680952Y-47105714D01*
X38642857Y-47143809D01*
X38566666Y-47181904D01*
X38338095Y-47181904D01*
X38261904Y-47143809D01*
X38223809Y-47105714D01*
X33779047Y-47181904D02*
X33779047Y-46381904D01*
X34312380Y-46381904D02*
X34464761Y-46381904D01*
X34540952Y-46420000D01*
X34617142Y-46496190D01*
X34655238Y-46648571D01*
X34655238Y-46915238D01*
X34617142Y-47067619D01*
X34540952Y-47143809D01*
X34464761Y-47181904D01*
X34312380Y-47181904D01*
X34236190Y-47143809D01*
X34160000Y-47067619D01*
X34121904Y-46915238D01*
X34121904Y-46648571D01*
X34160000Y-46496190D01*
X34236190Y-46420000D01*
X34312380Y-46381904D01*
X34960000Y-46458095D02*
X34998095Y-46420000D01*
X35074285Y-46381904D01*
X35264761Y-46381904D01*
X35340952Y-46420000D01*
X35379047Y-46458095D01*
X35417142Y-46534285D01*
X35417142Y-46610476D01*
X35379047Y-46724761D01*
X34921904Y-47181904D01*
X35417142Y-47181904D01*
X36140952Y-46381904D02*
X35760000Y-46381904D01*
X35721904Y-46762857D01*
X35760000Y-46724761D01*
X35836190Y-46686666D01*
X36026666Y-46686666D01*
X36102857Y-46724761D01*
X36140952Y-46762857D01*
X36179047Y-46839047D01*
X36179047Y-47029523D01*
X36140952Y-47105714D01*
X36102857Y-47143809D01*
X36026666Y-47181904D01*
X35836190Y-47181904D01*
X35760000Y-47143809D01*
X35721904Y-47105714D01*
X31239047Y-47181904D02*
X31239047Y-46381904D01*
X31772380Y-46381904D02*
X31924761Y-46381904D01*
X32000952Y-46420000D01*
X32077142Y-46496190D01*
X32115238Y-46648571D01*
X32115238Y-46915238D01*
X32077142Y-47067619D01*
X32000952Y-47143809D01*
X31924761Y-47181904D01*
X31772380Y-47181904D01*
X31696190Y-47143809D01*
X31620000Y-47067619D01*
X31581904Y-46915238D01*
X31581904Y-46648571D01*
X31620000Y-46496190D01*
X31696190Y-46420000D01*
X31772380Y-46381904D01*
X32420000Y-46458095D02*
X32458095Y-46420000D01*
X32534285Y-46381904D01*
X32724761Y-46381904D01*
X32800952Y-46420000D01*
X32839047Y-46458095D01*
X32877142Y-46534285D01*
X32877142Y-46610476D01*
X32839047Y-46724761D01*
X32381904Y-47181904D01*
X32877142Y-47181904D01*
X33562857Y-46381904D02*
X33410476Y-46381904D01*
X33334285Y-46420000D01*
X33296190Y-46458095D01*
X33220000Y-46572380D01*
X33181904Y-46724761D01*
X33181904Y-47029523D01*
X33220000Y-47105714D01*
X33258095Y-47143809D01*
X33334285Y-47181904D01*
X33486666Y-47181904D01*
X33562857Y-47143809D01*
X33600952Y-47105714D01*
X33639047Y-47029523D01*
X33639047Y-46839047D01*
X33600952Y-46762857D01*
X33562857Y-46724761D01*
X33486666Y-46686666D01*
X33334285Y-46686666D01*
X33258095Y-46724761D01*
X33220000Y-46762857D01*
X33181904Y-46839047D01*
X28699047Y-47181904D02*
X28699047Y-46381904D01*
X29232380Y-46381904D02*
X29384761Y-46381904D01*
X29460952Y-46420000D01*
X29537142Y-46496190D01*
X29575238Y-46648571D01*
X29575238Y-46915238D01*
X29537142Y-47067619D01*
X29460952Y-47143809D01*
X29384761Y-47181904D01*
X29232380Y-47181904D01*
X29156190Y-47143809D01*
X29080000Y-47067619D01*
X29041904Y-46915238D01*
X29041904Y-46648571D01*
X29080000Y-46496190D01*
X29156190Y-46420000D01*
X29232380Y-46381904D01*
X29880000Y-46458095D02*
X29918095Y-46420000D01*
X29994285Y-46381904D01*
X30184761Y-46381904D01*
X30260952Y-46420000D01*
X30299047Y-46458095D01*
X30337142Y-46534285D01*
X30337142Y-46610476D01*
X30299047Y-46724761D01*
X29841904Y-47181904D01*
X30337142Y-47181904D01*
X30603809Y-46381904D02*
X31137142Y-46381904D01*
X30794285Y-47181904D01*
X26159047Y-47181904D02*
X26159047Y-46381904D01*
X26692380Y-46381904D02*
X26844761Y-46381904D01*
X26920952Y-46420000D01*
X26997142Y-46496190D01*
X27035238Y-46648571D01*
X27035238Y-46915238D01*
X26997142Y-47067619D01*
X26920952Y-47143809D01*
X26844761Y-47181904D01*
X26692380Y-47181904D01*
X26616190Y-47143809D01*
X26540000Y-47067619D01*
X26501904Y-46915238D01*
X26501904Y-46648571D01*
X26540000Y-46496190D01*
X26616190Y-46420000D01*
X26692380Y-46381904D01*
X27797142Y-47181904D02*
X27340000Y-47181904D01*
X27568571Y-47181904D02*
X27568571Y-46381904D01*
X27492380Y-46496190D01*
X27416190Y-46572380D01*
X27340000Y-46610476D01*
X28482857Y-46648571D02*
X28482857Y-47181904D01*
X28292380Y-46343809D02*
X28101904Y-46915238D01*
X28597142Y-46915238D01*
X23619047Y-47181904D02*
X23619047Y-46381904D01*
X24152380Y-46381904D02*
X24304761Y-46381904D01*
X24380952Y-46420000D01*
X24457142Y-46496190D01*
X24495238Y-46648571D01*
X24495238Y-46915238D01*
X24457142Y-47067619D01*
X24380952Y-47143809D01*
X24304761Y-47181904D01*
X24152380Y-47181904D01*
X24076190Y-47143809D01*
X24000000Y-47067619D01*
X23961904Y-46915238D01*
X23961904Y-46648571D01*
X24000000Y-46496190D01*
X24076190Y-46420000D01*
X24152380Y-46381904D01*
X25257142Y-47181904D02*
X24800000Y-47181904D01*
X25028571Y-47181904D02*
X25028571Y-46381904D01*
X24952380Y-46496190D01*
X24876190Y-46572380D01*
X24800000Y-46610476D01*
X25561904Y-46458095D02*
X25600000Y-46420000D01*
X25676190Y-46381904D01*
X25866666Y-46381904D01*
X25942857Y-46420000D01*
X25980952Y-46458095D01*
X26019047Y-46534285D01*
X26019047Y-46610476D01*
X25980952Y-46724761D01*
X25523809Y-47181904D01*
X26019047Y-47181904D01*
X21079047Y-47181904D02*
X21079047Y-46381904D01*
X21612380Y-46381904D02*
X21764761Y-46381904D01*
X21840952Y-46420000D01*
X21917142Y-46496190D01*
X21955238Y-46648571D01*
X21955238Y-46915238D01*
X21917142Y-47067619D01*
X21840952Y-47143809D01*
X21764761Y-47181904D01*
X21612380Y-47181904D01*
X21536190Y-47143809D01*
X21460000Y-47067619D01*
X21421904Y-46915238D01*
X21421904Y-46648571D01*
X21460000Y-46496190D01*
X21536190Y-46420000D01*
X21612380Y-46381904D01*
X22717142Y-47181904D02*
X22260000Y-47181904D01*
X22488571Y-47181904D02*
X22488571Y-46381904D01*
X22412380Y-46496190D01*
X22336190Y-46572380D01*
X22260000Y-46610476D01*
X22983809Y-46381904D02*
X23479047Y-46381904D01*
X23212380Y-46686666D01*
X23326666Y-46686666D01*
X23402857Y-46724761D01*
X23440952Y-46762857D01*
X23479047Y-46839047D01*
X23479047Y-47029523D01*
X23440952Y-47105714D01*
X23402857Y-47143809D01*
X23326666Y-47181904D01*
X23098095Y-47181904D01*
X23021904Y-47143809D01*
X22983809Y-47105714D01*
X19110476Y-46420000D02*
X19034285Y-46381904D01*
X18920000Y-46381904D01*
X18805714Y-46420000D01*
X18729523Y-46496190D01*
X18691428Y-46572380D01*
X18653333Y-46724761D01*
X18653333Y-46839047D01*
X18691428Y-46991428D01*
X18729523Y-47067619D01*
X18805714Y-47143809D01*
X18920000Y-47181904D01*
X18996190Y-47181904D01*
X19110476Y-47143809D01*
X19148571Y-47105714D01*
X19148571Y-46839047D01*
X18996190Y-46839047D01*
X19491428Y-47181904D02*
X19491428Y-46381904D01*
X19948571Y-47181904D01*
X19948571Y-46381904D01*
X20329523Y-47181904D02*
X20329523Y-46381904D01*
X20520000Y-46381904D01*
X20634285Y-46420000D01*
X20710476Y-46496190D01*
X20748571Y-46572380D01*
X20786666Y-46724761D01*
X20786666Y-46839047D01*
X20748571Y-46991428D01*
X20710476Y-47067619D01*
X20634285Y-47143809D01*
X20520000Y-47181904D01*
X20329523Y-47181904D01*
X16303809Y-46381904D02*
X16570476Y-47181904D01*
X16837142Y-46381904D01*
X17103809Y-47181904D02*
X17103809Y-46381904D01*
X17484761Y-47181904D02*
X17484761Y-46381904D01*
X17941904Y-47181904D01*
X17941904Y-46381904D01*
X51539047Y-64901904D02*
X51539047Y-64101904D01*
X52072380Y-64101904D02*
X52224761Y-64101904D01*
X52300952Y-64140000D01*
X52377142Y-64216190D01*
X52415238Y-64368571D01*
X52415238Y-64635238D01*
X52377142Y-64787619D01*
X52300952Y-64863809D01*
X52224761Y-64901904D01*
X52072380Y-64901904D01*
X51996190Y-64863809D01*
X51920000Y-64787619D01*
X51881904Y-64635238D01*
X51881904Y-64368571D01*
X51920000Y-64216190D01*
X51996190Y-64140000D01*
X52072380Y-64101904D01*
X52720000Y-64178095D02*
X52758095Y-64140000D01*
X52834285Y-64101904D01*
X53024761Y-64101904D01*
X53100952Y-64140000D01*
X53139047Y-64178095D01*
X53177142Y-64254285D01*
X53177142Y-64330476D01*
X53139047Y-64444761D01*
X52681904Y-64901904D01*
X53177142Y-64901904D01*
X53443809Y-64101904D02*
X53939047Y-64101904D01*
X53672380Y-64406666D01*
X53786666Y-64406666D01*
X53862857Y-64444761D01*
X53900952Y-64482857D01*
X53939047Y-64559047D01*
X53939047Y-64749523D01*
X53900952Y-64825714D01*
X53862857Y-64863809D01*
X53786666Y-64901904D01*
X53558095Y-64901904D01*
X53481904Y-64863809D01*
X53443809Y-64825714D01*
X48999047Y-64901904D02*
X48999047Y-64101904D01*
X49532380Y-64101904D02*
X49684761Y-64101904D01*
X49760952Y-64140000D01*
X49837142Y-64216190D01*
X49875238Y-64368571D01*
X49875238Y-64635238D01*
X49837142Y-64787619D01*
X49760952Y-64863809D01*
X49684761Y-64901904D01*
X49532380Y-64901904D01*
X49456190Y-64863809D01*
X49380000Y-64787619D01*
X49341904Y-64635238D01*
X49341904Y-64368571D01*
X49380000Y-64216190D01*
X49456190Y-64140000D01*
X49532380Y-64101904D01*
X50180000Y-64178095D02*
X50218095Y-64140000D01*
X50294285Y-64101904D01*
X50484761Y-64101904D01*
X50560952Y-64140000D01*
X50599047Y-64178095D01*
X50637142Y-64254285D01*
X50637142Y-64330476D01*
X50599047Y-64444761D01*
X50141904Y-64901904D01*
X50637142Y-64901904D01*
X50941904Y-64178095D02*
X50980000Y-64140000D01*
X51056190Y-64101904D01*
X51246666Y-64101904D01*
X51322857Y-64140000D01*
X51360952Y-64178095D01*
X51399047Y-64254285D01*
X51399047Y-64330476D01*
X51360952Y-64444761D01*
X50903809Y-64901904D01*
X51399047Y-64901904D01*
X46840000Y-64901904D02*
X46840000Y-64101904D01*
X47373333Y-64101904D02*
X47525714Y-64101904D01*
X47601904Y-64140000D01*
X47678095Y-64216190D01*
X47716190Y-64368571D01*
X47716190Y-64635238D01*
X47678095Y-64787619D01*
X47601904Y-64863809D01*
X47525714Y-64901904D01*
X47373333Y-64901904D01*
X47297142Y-64863809D01*
X47220952Y-64787619D01*
X47182857Y-64635238D01*
X47182857Y-64368571D01*
X47220952Y-64216190D01*
X47297142Y-64140000D01*
X47373333Y-64101904D01*
X48478095Y-64901904D02*
X48020952Y-64901904D01*
X48249523Y-64901904D02*
X48249523Y-64101904D01*
X48173333Y-64216190D01*
X48097142Y-64292380D01*
X48020952Y-64330476D01*
X44300000Y-64901904D02*
X44300000Y-64101904D01*
X44833333Y-64101904D02*
X44985714Y-64101904D01*
X45061904Y-64140000D01*
X45138095Y-64216190D01*
X45176190Y-64368571D01*
X45176190Y-64635238D01*
X45138095Y-64787619D01*
X45061904Y-64863809D01*
X44985714Y-64901904D01*
X44833333Y-64901904D01*
X44757142Y-64863809D01*
X44680952Y-64787619D01*
X44642857Y-64635238D01*
X44642857Y-64368571D01*
X44680952Y-64216190D01*
X44757142Y-64140000D01*
X44833333Y-64101904D01*
X45442857Y-64101904D02*
X45938095Y-64101904D01*
X45671428Y-64406666D01*
X45785714Y-64406666D01*
X45861904Y-64444761D01*
X45900000Y-64482857D01*
X45938095Y-64559047D01*
X45938095Y-64749523D01*
X45900000Y-64825714D01*
X45861904Y-64863809D01*
X45785714Y-64901904D01*
X45557142Y-64901904D01*
X45480952Y-64863809D01*
X45442857Y-64825714D01*
X41379047Y-64901904D02*
X41379047Y-64101904D01*
X41912380Y-64101904D02*
X42064761Y-64101904D01*
X42140952Y-64140000D01*
X42217142Y-64216190D01*
X42255238Y-64368571D01*
X42255238Y-64635238D01*
X42217142Y-64787619D01*
X42140952Y-64863809D01*
X42064761Y-64901904D01*
X41912380Y-64901904D01*
X41836190Y-64863809D01*
X41760000Y-64787619D01*
X41721904Y-64635238D01*
X41721904Y-64368571D01*
X41760000Y-64216190D01*
X41836190Y-64140000D01*
X41912380Y-64101904D01*
X42560000Y-64178095D02*
X42598095Y-64140000D01*
X42674285Y-64101904D01*
X42864761Y-64101904D01*
X42940952Y-64140000D01*
X42979047Y-64178095D01*
X43017142Y-64254285D01*
X43017142Y-64330476D01*
X42979047Y-64444761D01*
X42521904Y-64901904D01*
X43017142Y-64901904D01*
X43779047Y-64901904D02*
X43321904Y-64901904D01*
X43550476Y-64901904D02*
X43550476Y-64101904D01*
X43474285Y-64216190D01*
X43398095Y-64292380D01*
X43321904Y-64330476D01*
X38839047Y-64901904D02*
X38839047Y-64101904D01*
X39372380Y-64101904D02*
X39524761Y-64101904D01*
X39600952Y-64140000D01*
X39677142Y-64216190D01*
X39715238Y-64368571D01*
X39715238Y-64635238D01*
X39677142Y-64787619D01*
X39600952Y-64863809D01*
X39524761Y-64901904D01*
X39372380Y-64901904D01*
X39296190Y-64863809D01*
X39220000Y-64787619D01*
X39181904Y-64635238D01*
X39181904Y-64368571D01*
X39220000Y-64216190D01*
X39296190Y-64140000D01*
X39372380Y-64101904D01*
X40477142Y-64901904D02*
X40020000Y-64901904D01*
X40248571Y-64901904D02*
X40248571Y-64101904D01*
X40172380Y-64216190D01*
X40096190Y-64292380D01*
X40020000Y-64330476D01*
X40858095Y-64901904D02*
X41010476Y-64901904D01*
X41086666Y-64863809D01*
X41124761Y-64825714D01*
X41200952Y-64711428D01*
X41239047Y-64559047D01*
X41239047Y-64254285D01*
X41200952Y-64178095D01*
X41162857Y-64140000D01*
X41086666Y-64101904D01*
X40934285Y-64101904D01*
X40858095Y-64140000D01*
X40820000Y-64178095D01*
X40781904Y-64254285D01*
X40781904Y-64444761D01*
X40820000Y-64520952D01*
X40858095Y-64559047D01*
X40934285Y-64597142D01*
X41086666Y-64597142D01*
X41162857Y-64559047D01*
X41200952Y-64520952D01*
X41239047Y-64444761D01*
X36299047Y-64901904D02*
X36299047Y-64101904D01*
X36832380Y-64101904D02*
X36984761Y-64101904D01*
X37060952Y-64140000D01*
X37137142Y-64216190D01*
X37175238Y-64368571D01*
X37175238Y-64635238D01*
X37137142Y-64787619D01*
X37060952Y-64863809D01*
X36984761Y-64901904D01*
X36832380Y-64901904D01*
X36756190Y-64863809D01*
X36680000Y-64787619D01*
X36641904Y-64635238D01*
X36641904Y-64368571D01*
X36680000Y-64216190D01*
X36756190Y-64140000D01*
X36832380Y-64101904D01*
X37937142Y-64901904D02*
X37480000Y-64901904D01*
X37708571Y-64901904D02*
X37708571Y-64101904D01*
X37632380Y-64216190D01*
X37556190Y-64292380D01*
X37480000Y-64330476D01*
X38394285Y-64444761D02*
X38318095Y-64406666D01*
X38280000Y-64368571D01*
X38241904Y-64292380D01*
X38241904Y-64254285D01*
X38280000Y-64178095D01*
X38318095Y-64140000D01*
X38394285Y-64101904D01*
X38546666Y-64101904D01*
X38622857Y-64140000D01*
X38660952Y-64178095D01*
X38699047Y-64254285D01*
X38699047Y-64292380D01*
X38660952Y-64368571D01*
X38622857Y-64406666D01*
X38546666Y-64444761D01*
X38394285Y-64444761D01*
X38318095Y-64482857D01*
X38280000Y-64520952D01*
X38241904Y-64597142D01*
X38241904Y-64749523D01*
X38280000Y-64825714D01*
X38318095Y-64863809D01*
X38394285Y-64901904D01*
X38546666Y-64901904D01*
X38622857Y-64863809D01*
X38660952Y-64825714D01*
X38699047Y-64749523D01*
X38699047Y-64597142D01*
X38660952Y-64520952D01*
X38622857Y-64482857D01*
X38546666Y-64444761D01*
X34140000Y-64901904D02*
X34140000Y-64101904D01*
X34673333Y-64101904D02*
X34825714Y-64101904D01*
X34901904Y-64140000D01*
X34978095Y-64216190D01*
X35016190Y-64368571D01*
X35016190Y-64635238D01*
X34978095Y-64787619D01*
X34901904Y-64863809D01*
X34825714Y-64901904D01*
X34673333Y-64901904D01*
X34597142Y-64863809D01*
X34520952Y-64787619D01*
X34482857Y-64635238D01*
X34482857Y-64368571D01*
X34520952Y-64216190D01*
X34597142Y-64140000D01*
X34673333Y-64101904D01*
X35740000Y-64101904D02*
X35359047Y-64101904D01*
X35320952Y-64482857D01*
X35359047Y-64444761D01*
X35435238Y-64406666D01*
X35625714Y-64406666D01*
X35701904Y-64444761D01*
X35740000Y-64482857D01*
X35778095Y-64559047D01*
X35778095Y-64749523D01*
X35740000Y-64825714D01*
X35701904Y-64863809D01*
X35625714Y-64901904D01*
X35435238Y-64901904D01*
X35359047Y-64863809D01*
X35320952Y-64825714D01*
X31219047Y-64901904D02*
X31219047Y-64101904D01*
X31752380Y-64101904D02*
X31904761Y-64101904D01*
X31980952Y-64140000D01*
X32057142Y-64216190D01*
X32095238Y-64368571D01*
X32095238Y-64635238D01*
X32057142Y-64787619D01*
X31980952Y-64863809D01*
X31904761Y-64901904D01*
X31752380Y-64901904D01*
X31676190Y-64863809D01*
X31600000Y-64787619D01*
X31561904Y-64635238D01*
X31561904Y-64368571D01*
X31600000Y-64216190D01*
X31676190Y-64140000D01*
X31752380Y-64101904D01*
X32857142Y-64901904D02*
X32400000Y-64901904D01*
X32628571Y-64901904D02*
X32628571Y-64101904D01*
X32552380Y-64216190D01*
X32476190Y-64292380D01*
X32400000Y-64330476D01*
X33123809Y-64101904D02*
X33657142Y-64101904D01*
X33314285Y-64901904D01*
X28679047Y-64901904D02*
X28679047Y-64101904D01*
X29212380Y-64101904D02*
X29364761Y-64101904D01*
X29440952Y-64140000D01*
X29517142Y-64216190D01*
X29555238Y-64368571D01*
X29555238Y-64635238D01*
X29517142Y-64787619D01*
X29440952Y-64863809D01*
X29364761Y-64901904D01*
X29212380Y-64901904D01*
X29136190Y-64863809D01*
X29060000Y-64787619D01*
X29021904Y-64635238D01*
X29021904Y-64368571D01*
X29060000Y-64216190D01*
X29136190Y-64140000D01*
X29212380Y-64101904D01*
X30317142Y-64901904D02*
X29860000Y-64901904D01*
X30088571Y-64901904D02*
X30088571Y-64101904D01*
X30012380Y-64216190D01*
X29936190Y-64292380D01*
X29860000Y-64330476D01*
X31002857Y-64101904D02*
X30850476Y-64101904D01*
X30774285Y-64140000D01*
X30736190Y-64178095D01*
X30660000Y-64292380D01*
X30621904Y-64444761D01*
X30621904Y-64749523D01*
X30660000Y-64825714D01*
X30698095Y-64863809D01*
X30774285Y-64901904D01*
X30926666Y-64901904D01*
X31002857Y-64863809D01*
X31040952Y-64825714D01*
X31079047Y-64749523D01*
X31079047Y-64559047D01*
X31040952Y-64482857D01*
X31002857Y-64444761D01*
X30926666Y-64406666D01*
X30774285Y-64406666D01*
X30698095Y-64444761D01*
X30660000Y-64482857D01*
X30621904Y-64559047D01*
X26520000Y-64901904D02*
X26520000Y-64101904D01*
X27053333Y-64101904D02*
X27205714Y-64101904D01*
X27281904Y-64140000D01*
X27358095Y-64216190D01*
X27396190Y-64368571D01*
X27396190Y-64635238D01*
X27358095Y-64787619D01*
X27281904Y-64863809D01*
X27205714Y-64901904D01*
X27053333Y-64901904D01*
X26977142Y-64863809D01*
X26900952Y-64787619D01*
X26862857Y-64635238D01*
X26862857Y-64368571D01*
X26900952Y-64216190D01*
X26977142Y-64140000D01*
X27053333Y-64101904D01*
X28081904Y-64368571D02*
X28081904Y-64901904D01*
X27891428Y-64063809D02*
X27700952Y-64635238D01*
X28196190Y-64635238D01*
X23980000Y-64901904D02*
X23980000Y-64101904D01*
X24513333Y-64101904D02*
X24665714Y-64101904D01*
X24741904Y-64140000D01*
X24818095Y-64216190D01*
X24856190Y-64368571D01*
X24856190Y-64635238D01*
X24818095Y-64787619D01*
X24741904Y-64863809D01*
X24665714Y-64901904D01*
X24513333Y-64901904D01*
X24437142Y-64863809D01*
X24360952Y-64787619D01*
X24322857Y-64635238D01*
X24322857Y-64368571D01*
X24360952Y-64216190D01*
X24437142Y-64140000D01*
X24513333Y-64101904D01*
X25160952Y-64178095D02*
X25199047Y-64140000D01*
X25275238Y-64101904D01*
X25465714Y-64101904D01*
X25541904Y-64140000D01*
X25580000Y-64178095D01*
X25618095Y-64254285D01*
X25618095Y-64330476D01*
X25580000Y-64444761D01*
X25122857Y-64901904D01*
X25618095Y-64901904D01*
X21059047Y-64901904D02*
X21059047Y-64101904D01*
X21592380Y-64101904D02*
X21744761Y-64101904D01*
X21820952Y-64140000D01*
X21897142Y-64216190D01*
X21935238Y-64368571D01*
X21935238Y-64635238D01*
X21897142Y-64787619D01*
X21820952Y-64863809D01*
X21744761Y-64901904D01*
X21592380Y-64901904D01*
X21516190Y-64863809D01*
X21440000Y-64787619D01*
X21401904Y-64635238D01*
X21401904Y-64368571D01*
X21440000Y-64216190D01*
X21516190Y-64140000D01*
X21592380Y-64101904D01*
X22697142Y-64901904D02*
X22240000Y-64901904D01*
X22468571Y-64901904D02*
X22468571Y-64101904D01*
X22392380Y-64216190D01*
X22316190Y-64292380D01*
X22240000Y-64330476D01*
X23420952Y-64101904D02*
X23040000Y-64101904D01*
X23001904Y-64482857D01*
X23040000Y-64444761D01*
X23116190Y-64406666D01*
X23306666Y-64406666D01*
X23382857Y-64444761D01*
X23420952Y-64482857D01*
X23459047Y-64559047D01*
X23459047Y-64749523D01*
X23420952Y-64825714D01*
X23382857Y-64863809D01*
X23306666Y-64901904D01*
X23116190Y-64901904D01*
X23040000Y-64863809D01*
X23001904Y-64825714D01*
X19090476Y-64140000D02*
X19014285Y-64101904D01*
X18900000Y-64101904D01*
X18785714Y-64140000D01*
X18709523Y-64216190D01*
X18671428Y-64292380D01*
X18633333Y-64444761D01*
X18633333Y-64559047D01*
X18671428Y-64711428D01*
X18709523Y-64787619D01*
X18785714Y-64863809D01*
X18900000Y-64901904D01*
X18976190Y-64901904D01*
X19090476Y-64863809D01*
X19128571Y-64825714D01*
X19128571Y-64559047D01*
X18976190Y-64559047D01*
X19471428Y-64901904D02*
X19471428Y-64101904D01*
X19928571Y-64901904D01*
X19928571Y-64101904D01*
X20309523Y-64901904D02*
X20309523Y-64101904D01*
X20500000Y-64101904D01*
X20614285Y-64140000D01*
X20690476Y-64216190D01*
X20728571Y-64292380D01*
X20766666Y-64444761D01*
X20766666Y-64559047D01*
X20728571Y-64711428D01*
X20690476Y-64787619D01*
X20614285Y-64863809D01*
X20500000Y-64901904D01*
X20309523Y-64901904D01*
X16169523Y-64101904D02*
X16664761Y-64101904D01*
X16398095Y-64406666D01*
X16512380Y-64406666D01*
X16588571Y-64444761D01*
X16626666Y-64482857D01*
X16664761Y-64559047D01*
X16664761Y-64749523D01*
X16626666Y-64825714D01*
X16588571Y-64863809D01*
X16512380Y-64901904D01*
X16283809Y-64901904D01*
X16207619Y-64863809D01*
X16169523Y-64825714D01*
X16893333Y-64101904D02*
X17160000Y-64901904D01*
X17426666Y-64101904D01*
X17617142Y-64101904D02*
X18112380Y-64101904D01*
X17845714Y-64406666D01*
X17960000Y-64406666D01*
X18036190Y-64444761D01*
X18074285Y-64482857D01*
X18112380Y-64559047D01*
X18112380Y-64749523D01*
X18074285Y-64825714D01*
X18036190Y-64863809D01*
X17960000Y-64901904D01*
X17731428Y-64901904D01*
X17655238Y-64863809D01*
X17617142Y-64825714D01*
%TO.C,U4*%
X65278095Y-31412380D02*
X65278095Y-32221904D01*
X65325714Y-32317142D01*
X65373333Y-32364761D01*
X65468571Y-32412380D01*
X65659047Y-32412380D01*
X65754285Y-32364761D01*
X65801904Y-32317142D01*
X65849523Y-32221904D01*
X65849523Y-31412380D01*
X66754285Y-31745714D02*
X66754285Y-32412380D01*
X66516190Y-31364761D02*
X66278095Y-32079047D01*
X66897142Y-32079047D01*
%TO.C,U3*%
X117348095Y-51732380D02*
X117348095Y-52541904D01*
X117395714Y-52637142D01*
X117443333Y-52684761D01*
X117538571Y-52732380D01*
X117729047Y-52732380D01*
X117824285Y-52684761D01*
X117871904Y-52637142D01*
X117919523Y-52541904D01*
X117919523Y-51732380D01*
X118300476Y-51732380D02*
X118919523Y-51732380D01*
X118586190Y-52113333D01*
X118729047Y-52113333D01*
X118824285Y-52160952D01*
X118871904Y-52208571D01*
X118919523Y-52303809D01*
X118919523Y-52541904D01*
X118871904Y-52637142D01*
X118824285Y-52684761D01*
X118729047Y-52732380D01*
X118443333Y-52732380D01*
X118348095Y-52684761D01*
X118300476Y-52637142D01*
%TO.C,U2*%
X83058095Y-36492380D02*
X83058095Y-37301904D01*
X83105714Y-37397142D01*
X83153333Y-37444761D01*
X83248571Y-37492380D01*
X83439047Y-37492380D01*
X83534285Y-37444761D01*
X83581904Y-37397142D01*
X83629523Y-37301904D01*
X83629523Y-36492380D01*
X84058095Y-36587619D02*
X84105714Y-36540000D01*
X84200952Y-36492380D01*
X84439047Y-36492380D01*
X84534285Y-36540000D01*
X84581904Y-36587619D01*
X84629523Y-36682857D01*
X84629523Y-36778095D01*
X84581904Y-36920952D01*
X84010476Y-37492380D01*
X84629523Y-37492380D01*
%TO.C,U1*%
X100838095Y-22522380D02*
X100838095Y-23331904D01*
X100885714Y-23427142D01*
X100933333Y-23474761D01*
X101028571Y-23522380D01*
X101219047Y-23522380D01*
X101314285Y-23474761D01*
X101361904Y-23427142D01*
X101409523Y-23331904D01*
X101409523Y-22522380D01*
X102409523Y-23522380D02*
X101838095Y-23522380D01*
X102123809Y-23522380D02*
X102123809Y-22522380D01*
X102028571Y-22665238D01*
X101933333Y-22760476D01*
X101838095Y-22808095D01*
%TO.C,R8*%
X70132380Y-81446666D02*
X69656190Y-81780000D01*
X70132380Y-82018095D02*
X69132380Y-82018095D01*
X69132380Y-81637142D01*
X69180000Y-81541904D01*
X69227619Y-81494285D01*
X69322857Y-81446666D01*
X69465714Y-81446666D01*
X69560952Y-81494285D01*
X69608571Y-81541904D01*
X69656190Y-81637142D01*
X69656190Y-82018095D01*
X69560952Y-80875238D02*
X69513333Y-80970476D01*
X69465714Y-81018095D01*
X69370476Y-81065714D01*
X69322857Y-81065714D01*
X69227619Y-81018095D01*
X69180000Y-80970476D01*
X69132380Y-80875238D01*
X69132380Y-80684761D01*
X69180000Y-80589523D01*
X69227619Y-80541904D01*
X69322857Y-80494285D01*
X69370476Y-80494285D01*
X69465714Y-80541904D01*
X69513333Y-80589523D01*
X69560952Y-80684761D01*
X69560952Y-80875238D01*
X69608571Y-80970476D01*
X69656190Y-81018095D01*
X69751428Y-81065714D01*
X69941904Y-81065714D01*
X70037142Y-81018095D01*
X70084761Y-80970476D01*
X70132380Y-80875238D01*
X70132380Y-80684761D01*
X70084761Y-80589523D01*
X70037142Y-80541904D01*
X69941904Y-80494285D01*
X69751428Y-80494285D01*
X69656190Y-80541904D01*
X69608571Y-80589523D01*
X69560952Y-80684761D01*
%TO.C,R7*%
X56983333Y-85372380D02*
X56650000Y-84896190D01*
X56411904Y-85372380D02*
X56411904Y-84372380D01*
X56792857Y-84372380D01*
X56888095Y-84420000D01*
X56935714Y-84467619D01*
X56983333Y-84562857D01*
X56983333Y-84705714D01*
X56935714Y-84800952D01*
X56888095Y-84848571D01*
X56792857Y-84896190D01*
X56411904Y-84896190D01*
X57316666Y-84372380D02*
X57983333Y-84372380D01*
X57554761Y-85372380D01*
%TO.C,R6*%
X34123333Y-120002380D02*
X33790000Y-119526190D01*
X33551904Y-120002380D02*
X33551904Y-119002380D01*
X33932857Y-119002380D01*
X34028095Y-119050000D01*
X34075714Y-119097619D01*
X34123333Y-119192857D01*
X34123333Y-119335714D01*
X34075714Y-119430952D01*
X34028095Y-119478571D01*
X33932857Y-119526190D01*
X33551904Y-119526190D01*
X34980476Y-119002380D02*
X34790000Y-119002380D01*
X34694761Y-119050000D01*
X34647142Y-119097619D01*
X34551904Y-119240476D01*
X34504285Y-119430952D01*
X34504285Y-119811904D01*
X34551904Y-119907142D01*
X34599523Y-119954761D01*
X34694761Y-120002380D01*
X34885238Y-120002380D01*
X34980476Y-119954761D01*
X35028095Y-119907142D01*
X35075714Y-119811904D01*
X35075714Y-119573809D01*
X35028095Y-119478571D01*
X34980476Y-119430952D01*
X34885238Y-119383333D01*
X34694761Y-119383333D01*
X34599523Y-119430952D01*
X34551904Y-119478571D01*
X34504285Y-119573809D01*
%TO.C,R5*%
X14592380Y-96686666D02*
X14116190Y-97020000D01*
X14592380Y-97258095D02*
X13592380Y-97258095D01*
X13592380Y-96877142D01*
X13640000Y-96781904D01*
X13687619Y-96734285D01*
X13782857Y-96686666D01*
X13925714Y-96686666D01*
X14020952Y-96734285D01*
X14068571Y-96781904D01*
X14116190Y-96877142D01*
X14116190Y-97258095D01*
X13592380Y-95781904D02*
X13592380Y-96258095D01*
X14068571Y-96305714D01*
X14020952Y-96258095D01*
X13973333Y-96162857D01*
X13973333Y-95924761D01*
X14020952Y-95829523D01*
X14068571Y-95781904D01*
X14163809Y-95734285D01*
X14401904Y-95734285D01*
X14497142Y-95781904D01*
X14544761Y-95829523D01*
X14592380Y-95924761D01*
X14592380Y-96162857D01*
X14544761Y-96258095D01*
X14497142Y-96305714D01*
%TO.C,R4*%
X78573333Y-34572380D02*
X78240000Y-34096190D01*
X78001904Y-34572380D02*
X78001904Y-33572380D01*
X78382857Y-33572380D01*
X78478095Y-33620000D01*
X78525714Y-33667619D01*
X78573333Y-33762857D01*
X78573333Y-33905714D01*
X78525714Y-34000952D01*
X78478095Y-34048571D01*
X78382857Y-34096190D01*
X78001904Y-34096190D01*
X79430476Y-33905714D02*
X79430476Y-34572380D01*
X79192380Y-33524761D02*
X78954285Y-34239047D01*
X79573333Y-34239047D01*
%TO.C,R3*%
X112042380Y-35726666D02*
X111566190Y-36060000D01*
X112042380Y-36298095D02*
X111042380Y-36298095D01*
X111042380Y-35917142D01*
X111090000Y-35821904D01*
X111137619Y-35774285D01*
X111232857Y-35726666D01*
X111375714Y-35726666D01*
X111470952Y-35774285D01*
X111518571Y-35821904D01*
X111566190Y-35917142D01*
X111566190Y-36298095D01*
X111042380Y-35393333D02*
X111042380Y-34774285D01*
X111423333Y-35107619D01*
X111423333Y-34964761D01*
X111470952Y-34869523D01*
X111518571Y-34821904D01*
X111613809Y-34774285D01*
X111851904Y-34774285D01*
X111947142Y-34821904D01*
X111994761Y-34869523D01*
X112042380Y-34964761D01*
X112042380Y-35250476D01*
X111994761Y-35345714D01*
X111947142Y-35393333D01*
%TO.C,R2*%
X86193333Y-67932380D02*
X85860000Y-67456190D01*
X85621904Y-67932380D02*
X85621904Y-66932380D01*
X86002857Y-66932380D01*
X86098095Y-66980000D01*
X86145714Y-67027619D01*
X86193333Y-67122857D01*
X86193333Y-67265714D01*
X86145714Y-67360952D01*
X86098095Y-67408571D01*
X86002857Y-67456190D01*
X85621904Y-67456190D01*
X86574285Y-67027619D02*
X86621904Y-66980000D01*
X86717142Y-66932380D01*
X86955238Y-66932380D01*
X87050476Y-66980000D01*
X87098095Y-67027619D01*
X87145714Y-67122857D01*
X87145714Y-67218095D01*
X87098095Y-67360952D01*
X86526666Y-67932380D01*
X87145714Y-67932380D01*
%TO.C,R1*%
X106513333Y-47612380D02*
X106180000Y-47136190D01*
X105941904Y-47612380D02*
X105941904Y-46612380D01*
X106322857Y-46612380D01*
X106418095Y-46660000D01*
X106465714Y-46707619D01*
X106513333Y-46802857D01*
X106513333Y-46945714D01*
X106465714Y-47040952D01*
X106418095Y-47088571D01*
X106322857Y-47136190D01*
X105941904Y-47136190D01*
X107465714Y-47612380D02*
X106894285Y-47612380D01*
X107180000Y-47612380D02*
X107180000Y-46612380D01*
X107084761Y-46755238D01*
X106989523Y-46850476D01*
X106894285Y-46898095D01*
%TO.C,J22*%
X89412380Y-18589523D02*
X90126666Y-18589523D01*
X90269523Y-18637142D01*
X90364761Y-18732380D01*
X90412380Y-18875238D01*
X90412380Y-18970476D01*
X89507619Y-18160952D02*
X89460000Y-18113333D01*
X89412380Y-18018095D01*
X89412380Y-17780000D01*
X89460000Y-17684761D01*
X89507619Y-17637142D01*
X89602857Y-17589523D01*
X89698095Y-17589523D01*
X89840952Y-17637142D01*
X90412380Y-18208571D01*
X90412380Y-17589523D01*
X89507619Y-17208571D02*
X89460000Y-17160952D01*
X89412380Y-17065714D01*
X89412380Y-16827619D01*
X89460000Y-16732380D01*
X89507619Y-16684761D01*
X89602857Y-16637142D01*
X89698095Y-16637142D01*
X89840952Y-16684761D01*
X90412380Y-17256190D01*
X90412380Y-16637142D01*
%TO.C,J21*%
X102112380Y-18589523D02*
X102826666Y-18589523D01*
X102969523Y-18637142D01*
X103064761Y-18732380D01*
X103112380Y-18875238D01*
X103112380Y-18970476D01*
X102207619Y-18160952D02*
X102160000Y-18113333D01*
X102112380Y-18018095D01*
X102112380Y-17780000D01*
X102160000Y-17684761D01*
X102207619Y-17637142D01*
X102302857Y-17589523D01*
X102398095Y-17589523D01*
X102540952Y-17637142D01*
X103112380Y-18208571D01*
X103112380Y-17589523D01*
X103112380Y-16637142D02*
X103112380Y-17208571D01*
X103112380Y-16922857D02*
X102112380Y-16922857D01*
X102255238Y-17018095D01*
X102350476Y-17113333D01*
X102398095Y-17208571D01*
%TO.C,J20*%
X135080476Y-103802380D02*
X135080476Y-104516666D01*
X135032857Y-104659523D01*
X134937619Y-104754761D01*
X134794761Y-104802380D01*
X134699523Y-104802380D01*
X135509047Y-103897619D02*
X135556666Y-103850000D01*
X135651904Y-103802380D01*
X135890000Y-103802380D01*
X135985238Y-103850000D01*
X136032857Y-103897619D01*
X136080476Y-103992857D01*
X136080476Y-104088095D01*
X136032857Y-104230952D01*
X135461428Y-104802380D01*
X136080476Y-104802380D01*
X136699523Y-103802380D02*
X136794761Y-103802380D01*
X136890000Y-103850000D01*
X136937619Y-103897619D01*
X136985238Y-103992857D01*
X137032857Y-104183333D01*
X137032857Y-104421428D01*
X136985238Y-104611904D01*
X136937619Y-104707142D01*
X136890000Y-104754761D01*
X136794761Y-104802380D01*
X136699523Y-104802380D01*
X136604285Y-104754761D01*
X136556666Y-104707142D01*
X136509047Y-104611904D01*
X136461428Y-104421428D01*
X136461428Y-104183333D01*
X136509047Y-103992857D01*
X136556666Y-103897619D01*
X136604285Y-103850000D01*
X136699523Y-103802380D01*
%TO.C,J19*%
X55070476Y-15732380D02*
X55070476Y-16446666D01*
X55022857Y-16589523D01*
X54927619Y-16684761D01*
X54784761Y-16732380D01*
X54689523Y-16732380D01*
X56070476Y-16732380D02*
X55499047Y-16732380D01*
X55784761Y-16732380D02*
X55784761Y-15732380D01*
X55689523Y-15875238D01*
X55594285Y-15970476D01*
X55499047Y-16018095D01*
X56546666Y-16732380D02*
X56737142Y-16732380D01*
X56832380Y-16684761D01*
X56880000Y-16637142D01*
X56975238Y-16494285D01*
X57022857Y-16303809D01*
X57022857Y-15922857D01*
X56975238Y-15827619D01*
X56927619Y-15780000D01*
X56832380Y-15732380D01*
X56641904Y-15732380D01*
X56546666Y-15780000D01*
X56499047Y-15827619D01*
X56451428Y-15922857D01*
X56451428Y-16160952D01*
X56499047Y-16256190D01*
X56546666Y-16303809D01*
X56641904Y-16351428D01*
X56832380Y-16351428D01*
X56927619Y-16303809D01*
X56975238Y-16256190D01*
X57022857Y-16160952D01*
%TO.C,J18*%
X135080476Y-92372380D02*
X135080476Y-93086666D01*
X135032857Y-93229523D01*
X134937619Y-93324761D01*
X134794761Y-93372380D01*
X134699523Y-93372380D01*
X136080476Y-93372380D02*
X135509047Y-93372380D01*
X135794761Y-93372380D02*
X135794761Y-92372380D01*
X135699523Y-92515238D01*
X135604285Y-92610476D01*
X135509047Y-92658095D01*
X136651904Y-92800952D02*
X136556666Y-92753333D01*
X136509047Y-92705714D01*
X136461428Y-92610476D01*
X136461428Y-92562857D01*
X136509047Y-92467619D01*
X136556666Y-92420000D01*
X136651904Y-92372380D01*
X136842380Y-92372380D01*
X136937619Y-92420000D01*
X136985238Y-92467619D01*
X137032857Y-92562857D01*
X137032857Y-92610476D01*
X136985238Y-92705714D01*
X136937619Y-92753333D01*
X136842380Y-92800952D01*
X136651904Y-92800952D01*
X136556666Y-92848571D01*
X136509047Y-92896190D01*
X136461428Y-92991428D01*
X136461428Y-93181904D01*
X136509047Y-93277142D01*
X136556666Y-93324761D01*
X136651904Y-93372380D01*
X136842380Y-93372380D01*
X136937619Y-93324761D01*
X136985238Y-93277142D01*
X137032857Y-93181904D01*
X137032857Y-92991428D01*
X136985238Y-92896190D01*
X136937619Y-92848571D01*
X136842380Y-92800952D01*
%TO.C,J17*%
X30972380Y-38909523D02*
X31686666Y-38909523D01*
X31829523Y-38957142D01*
X31924761Y-39052380D01*
X31972380Y-39195238D01*
X31972380Y-39290476D01*
X31972380Y-37909523D02*
X31972380Y-38480952D01*
X31972380Y-38195238D02*
X30972380Y-38195238D01*
X31115238Y-38290476D01*
X31210476Y-38385714D01*
X31258095Y-38480952D01*
X30972380Y-37576190D02*
X30972380Y-36909523D01*
X31972380Y-37338095D01*
%TO.C,J16*%
X41100476Y-16172380D02*
X41100476Y-16886666D01*
X41052857Y-17029523D01*
X40957619Y-17124761D01*
X40814761Y-17172380D01*
X40719523Y-17172380D01*
X42100476Y-17172380D02*
X41529047Y-17172380D01*
X41814761Y-17172380D02*
X41814761Y-16172380D01*
X41719523Y-16315238D01*
X41624285Y-16410476D01*
X41529047Y-16458095D01*
X42957619Y-16172380D02*
X42767142Y-16172380D01*
X42671904Y-16220000D01*
X42624285Y-16267619D01*
X42529047Y-16410476D01*
X42481428Y-16600952D01*
X42481428Y-16981904D01*
X42529047Y-17077142D01*
X42576666Y-17124761D01*
X42671904Y-17172380D01*
X42862380Y-17172380D01*
X42957619Y-17124761D01*
X43005238Y-17077142D01*
X43052857Y-16981904D01*
X43052857Y-16743809D01*
X43005238Y-16648571D01*
X42957619Y-16600952D01*
X42862380Y-16553333D01*
X42671904Y-16553333D01*
X42576666Y-16600952D01*
X42529047Y-16648571D01*
X42481428Y-16743809D01*
%TO.C,J15*%
X74120476Y-56392380D02*
X74120476Y-57106666D01*
X74072857Y-57249523D01*
X73977619Y-57344761D01*
X73834761Y-57392380D01*
X73739523Y-57392380D01*
X75120476Y-57392380D02*
X74549047Y-57392380D01*
X74834761Y-57392380D02*
X74834761Y-56392380D01*
X74739523Y-56535238D01*
X74644285Y-56630476D01*
X74549047Y-56678095D01*
X76025238Y-56392380D02*
X75549047Y-56392380D01*
X75501428Y-56868571D01*
X75549047Y-56820952D01*
X75644285Y-56773333D01*
X75882380Y-56773333D01*
X75977619Y-56820952D01*
X76025238Y-56868571D01*
X76072857Y-56963809D01*
X76072857Y-57201904D01*
X76025238Y-57297142D01*
X75977619Y-57344761D01*
X75882380Y-57392380D01*
X75644285Y-57392380D01*
X75549047Y-57344761D01*
X75501428Y-57297142D01*
%TO.C,J14*%
X61420476Y-15732380D02*
X61420476Y-16446666D01*
X61372857Y-16589523D01*
X61277619Y-16684761D01*
X61134761Y-16732380D01*
X61039523Y-16732380D01*
X62420476Y-16732380D02*
X61849047Y-16732380D01*
X62134761Y-16732380D02*
X62134761Y-15732380D01*
X62039523Y-15875238D01*
X61944285Y-15970476D01*
X61849047Y-16018095D01*
X63277619Y-16065714D02*
X63277619Y-16732380D01*
X63039523Y-15684761D02*
X62801428Y-16399047D01*
X63420476Y-16399047D01*
%TO.C,J13*%
X135080476Y-80942380D02*
X135080476Y-81656666D01*
X135032857Y-81799523D01*
X134937619Y-81894761D01*
X134794761Y-81942380D01*
X134699523Y-81942380D01*
X136080476Y-81942380D02*
X135509047Y-81942380D01*
X135794761Y-81942380D02*
X135794761Y-80942380D01*
X135699523Y-81085238D01*
X135604285Y-81180476D01*
X135509047Y-81228095D01*
X136413809Y-80942380D02*
X137032857Y-80942380D01*
X136699523Y-81323333D01*
X136842380Y-81323333D01*
X136937619Y-81370952D01*
X136985238Y-81418571D01*
X137032857Y-81513809D01*
X137032857Y-81751904D01*
X136985238Y-81847142D01*
X136937619Y-81894761D01*
X136842380Y-81942380D01*
X136556666Y-81942380D01*
X136461428Y-81894761D01*
X136413809Y-81847142D01*
%TO.C,J12*%
X33480476Y-16172380D02*
X33480476Y-16886666D01*
X33432857Y-17029523D01*
X33337619Y-17124761D01*
X33194761Y-17172380D01*
X33099523Y-17172380D01*
X34480476Y-17172380D02*
X33909047Y-17172380D01*
X34194761Y-17172380D02*
X34194761Y-16172380D01*
X34099523Y-16315238D01*
X34004285Y-16410476D01*
X33909047Y-16458095D01*
X34861428Y-16267619D02*
X34909047Y-16220000D01*
X35004285Y-16172380D01*
X35242380Y-16172380D01*
X35337619Y-16220000D01*
X35385238Y-16267619D01*
X35432857Y-16362857D01*
X35432857Y-16458095D01*
X35385238Y-16600952D01*
X34813809Y-17172380D01*
X35432857Y-17172380D01*
%TO.C,J11*%
X74120476Y-15732380D02*
X74120476Y-16446666D01*
X74072857Y-16589523D01*
X73977619Y-16684761D01*
X73834761Y-16732380D01*
X73739523Y-16732380D01*
X75120476Y-16732380D02*
X74549047Y-16732380D01*
X74834761Y-16732380D02*
X74834761Y-15732380D01*
X74739523Y-15875238D01*
X74644285Y-15970476D01*
X74549047Y-16018095D01*
X76072857Y-16732380D02*
X75501428Y-16732380D01*
X75787142Y-16732380D02*
X75787142Y-15732380D01*
X75691904Y-15875238D01*
X75596666Y-15970476D01*
X75501428Y-16018095D01*
%TO.C,J10*%
X135080476Y-69512380D02*
X135080476Y-70226666D01*
X135032857Y-70369523D01*
X134937619Y-70464761D01*
X134794761Y-70512380D01*
X134699523Y-70512380D01*
X136080476Y-70512380D02*
X135509047Y-70512380D01*
X135794761Y-70512380D02*
X135794761Y-69512380D01*
X135699523Y-69655238D01*
X135604285Y-69750476D01*
X135509047Y-69798095D01*
X136699523Y-69512380D02*
X136794761Y-69512380D01*
X136890000Y-69560000D01*
X136937619Y-69607619D01*
X136985238Y-69702857D01*
X137032857Y-69893333D01*
X137032857Y-70131428D01*
X136985238Y-70321904D01*
X136937619Y-70417142D01*
X136890000Y-70464761D01*
X136794761Y-70512380D01*
X136699523Y-70512380D01*
X136604285Y-70464761D01*
X136556666Y-70417142D01*
X136509047Y-70321904D01*
X136461428Y-70131428D01*
X136461428Y-69893333D01*
X136509047Y-69702857D01*
X136556666Y-69607619D01*
X136604285Y-69560000D01*
X136699523Y-69512380D01*
%TO.C,J9*%
X135556666Y-58082380D02*
X135556666Y-58796666D01*
X135509047Y-58939523D01*
X135413809Y-59034761D01*
X135270952Y-59082380D01*
X135175714Y-59082380D01*
X136080476Y-59082380D02*
X136270952Y-59082380D01*
X136366190Y-59034761D01*
X136413809Y-58987142D01*
X136509047Y-58844285D01*
X136556666Y-58653809D01*
X136556666Y-58272857D01*
X136509047Y-58177619D01*
X136461428Y-58130000D01*
X136366190Y-58082380D01*
X136175714Y-58082380D01*
X136080476Y-58130000D01*
X136032857Y-58177619D01*
X135985238Y-58272857D01*
X135985238Y-58510952D01*
X136032857Y-58606190D01*
X136080476Y-58653809D01*
X136175714Y-58701428D01*
X136366190Y-58701428D01*
X136461428Y-58653809D01*
X136509047Y-58606190D01*
X136556666Y-58510952D01*
%TO.C,J8*%
X26336666Y-16172380D02*
X26336666Y-16886666D01*
X26289047Y-17029523D01*
X26193809Y-17124761D01*
X26050952Y-17172380D01*
X25955714Y-17172380D01*
X26955714Y-16600952D02*
X26860476Y-16553333D01*
X26812857Y-16505714D01*
X26765238Y-16410476D01*
X26765238Y-16362857D01*
X26812857Y-16267619D01*
X26860476Y-16220000D01*
X26955714Y-16172380D01*
X27146190Y-16172380D01*
X27241428Y-16220000D01*
X27289047Y-16267619D01*
X27336666Y-16362857D01*
X27336666Y-16410476D01*
X27289047Y-16505714D01*
X27241428Y-16553333D01*
X27146190Y-16600952D01*
X26955714Y-16600952D01*
X26860476Y-16648571D01*
X26812857Y-16696190D01*
X26765238Y-16791428D01*
X26765238Y-16981904D01*
X26812857Y-17077142D01*
X26860476Y-17124761D01*
X26955714Y-17172380D01*
X27146190Y-17172380D01*
X27241428Y-17124761D01*
X27289047Y-17077142D01*
X27336666Y-16981904D01*
X27336666Y-16791428D01*
X27289047Y-16696190D01*
X27241428Y-16648571D01*
X27146190Y-16600952D01*
%TO.C,J7*%
X68246666Y-15732380D02*
X68246666Y-16446666D01*
X68199047Y-16589523D01*
X68103809Y-16684761D01*
X67960952Y-16732380D01*
X67865714Y-16732380D01*
X68627619Y-15732380D02*
X69294285Y-15732380D01*
X68865714Y-16732380D01*
%TO.C,J6*%
X135556666Y-46652380D02*
X135556666Y-47366666D01*
X135509047Y-47509523D01*
X135413809Y-47604761D01*
X135270952Y-47652380D01*
X135175714Y-47652380D01*
X136461428Y-46652380D02*
X136270952Y-46652380D01*
X136175714Y-46700000D01*
X136128095Y-46747619D01*
X136032857Y-46890476D01*
X135985238Y-47080952D01*
X135985238Y-47461904D01*
X136032857Y-47557142D01*
X136080476Y-47604761D01*
X136175714Y-47652380D01*
X136366190Y-47652380D01*
X136461428Y-47604761D01*
X136509047Y-47557142D01*
X136556666Y-47461904D01*
X136556666Y-47223809D01*
X136509047Y-47128571D01*
X136461428Y-47080952D01*
X136366190Y-47033333D01*
X136175714Y-47033333D01*
X136080476Y-47080952D01*
X136032857Y-47128571D01*
X135985238Y-47223809D01*
%TO.C,J5*%
X135556666Y-35222380D02*
X135556666Y-35936666D01*
X135509047Y-36079523D01*
X135413809Y-36174761D01*
X135270952Y-36222380D01*
X135175714Y-36222380D01*
X136509047Y-35222380D02*
X136032857Y-35222380D01*
X135985238Y-35698571D01*
X136032857Y-35650952D01*
X136128095Y-35603333D01*
X136366190Y-35603333D01*
X136461428Y-35650952D01*
X136509047Y-35698571D01*
X136556666Y-35793809D01*
X136556666Y-36031904D01*
X136509047Y-36127142D01*
X136461428Y-36174761D01*
X136366190Y-36222380D01*
X136128095Y-36222380D01*
X136032857Y-36174761D01*
X135985238Y-36127142D01*
%TO.C,J4*%
X135556666Y-23792380D02*
X135556666Y-24506666D01*
X135509047Y-24649523D01*
X135413809Y-24744761D01*
X135270952Y-24792380D01*
X135175714Y-24792380D01*
X136461428Y-24125714D02*
X136461428Y-24792380D01*
X136223333Y-23744761D02*
X135985238Y-24459047D01*
X136604285Y-24459047D01*
%TO.C,J3*%
X107172380Y-18113333D02*
X107886666Y-18113333D01*
X108029523Y-18160952D01*
X108124761Y-18256190D01*
X108172380Y-18399047D01*
X108172380Y-18494285D01*
X107172380Y-17732380D02*
X107172380Y-17113333D01*
X107553333Y-17446666D01*
X107553333Y-17303809D01*
X107600952Y-17208571D01*
X107648571Y-17160952D01*
X107743809Y-17113333D01*
X107981904Y-17113333D01*
X108077142Y-17160952D01*
X108124761Y-17208571D01*
X108172380Y-17303809D01*
X108172380Y-17589523D01*
X108124761Y-17684761D01*
X108077142Y-17732380D01*
%TO.C,J2*%
X44942380Y-33353333D02*
X45656666Y-33353333D01*
X45799523Y-33400952D01*
X45894761Y-33496190D01*
X45942380Y-33639047D01*
X45942380Y-33734285D01*
X45037619Y-32924761D02*
X44990000Y-32877142D01*
X44942380Y-32781904D01*
X44942380Y-32543809D01*
X44990000Y-32448571D01*
X45037619Y-32400952D01*
X45132857Y-32353333D01*
X45228095Y-32353333D01*
X45370952Y-32400952D01*
X45942380Y-32972380D01*
X45942380Y-32353333D01*
%TO.C,J1*%
X92376666Y-19542380D02*
X92376666Y-20256666D01*
X92329047Y-20399523D01*
X92233809Y-20494761D01*
X92090952Y-20542380D01*
X91995714Y-20542380D01*
X93376666Y-20542380D02*
X92805238Y-20542380D01*
X93090952Y-20542380D02*
X93090952Y-19542380D01*
X92995714Y-19685238D01*
X92900476Y-19780476D01*
X92805238Y-19828095D01*
%TO.C,H4*%
X18288095Y-16572380D02*
X18288095Y-15572380D01*
X18288095Y-16048571D02*
X18859523Y-16048571D01*
X18859523Y-16572380D02*
X18859523Y-15572380D01*
X19764285Y-15905714D02*
X19764285Y-16572380D01*
X19526190Y-15524761D02*
X19288095Y-16239047D01*
X19907142Y-16239047D01*
%TO.C,H2*%
X18288095Y-118172380D02*
X18288095Y-117172380D01*
X18288095Y-117648571D02*
X18859523Y-117648571D01*
X18859523Y-118172380D02*
X18859523Y-117172380D01*
X19288095Y-117267619D02*
X19335714Y-117220000D01*
X19430952Y-117172380D01*
X19669047Y-117172380D01*
X19764285Y-117220000D01*
X19811904Y-117267619D01*
X19859523Y-117362857D01*
X19859523Y-117458095D01*
X19811904Y-117600952D01*
X19240476Y-118172380D01*
X19859523Y-118172380D01*
%TO.C,H1*%
X132588095Y-118172380D02*
X132588095Y-117172380D01*
X132588095Y-117648571D02*
X133159523Y-117648571D01*
X133159523Y-118172380D02*
X133159523Y-117172380D01*
X134159523Y-118172380D02*
X133588095Y-118172380D01*
X133873809Y-118172380D02*
X133873809Y-117172380D01*
X133778571Y-117315238D01*
X133683333Y-117410476D01*
X133588095Y-117458095D01*
%TO.C,D9*%
X78581666Y-118664333D02*
X78581666Y-117264333D01*
X78915000Y-117264333D01*
X79115000Y-117331000D01*
X79248333Y-117464333D01*
X79315000Y-117597666D01*
X79381666Y-117864333D01*
X79381666Y-118064333D01*
X79315000Y-118331000D01*
X79248333Y-118464333D01*
X79115000Y-118597666D01*
X78915000Y-118664333D01*
X78581666Y-118664333D01*
X80048333Y-118664333D02*
X80315000Y-118664333D01*
X80448333Y-118597666D01*
X80515000Y-118531000D01*
X80648333Y-118331000D01*
X80715000Y-118064333D01*
X80715000Y-117531000D01*
X80648333Y-117397666D01*
X80581666Y-117331000D01*
X80448333Y-117264333D01*
X80181666Y-117264333D01*
X80048333Y-117331000D01*
X79981666Y-117397666D01*
X79915000Y-117531000D01*
X79915000Y-117864333D01*
X79981666Y-117997666D01*
X80048333Y-118064333D01*
X80181666Y-118131000D01*
X80448333Y-118131000D01*
X80581666Y-118064333D01*
X80648333Y-117997666D01*
X80715000Y-117864333D01*
%TO.C,C13*%
X84407142Y-109387142D02*
X84359523Y-109434761D01*
X84216666Y-109482380D01*
X84121428Y-109482380D01*
X83978571Y-109434761D01*
X83883333Y-109339523D01*
X83835714Y-109244285D01*
X83788095Y-109053809D01*
X83788095Y-108910952D01*
X83835714Y-108720476D01*
X83883333Y-108625238D01*
X83978571Y-108530000D01*
X84121428Y-108482380D01*
X84216666Y-108482380D01*
X84359523Y-108530000D01*
X84407142Y-108577619D01*
X85359523Y-109482380D02*
X84788095Y-109482380D01*
X85073809Y-109482380D02*
X85073809Y-108482380D01*
X84978571Y-108625238D01*
X84883333Y-108720476D01*
X84788095Y-108768095D01*
X85692857Y-108482380D02*
X86311904Y-108482380D01*
X85978571Y-108863333D01*
X86121428Y-108863333D01*
X86216666Y-108910952D01*
X86264285Y-108958571D01*
X86311904Y-109053809D01*
X86311904Y-109291904D01*
X86264285Y-109387142D01*
X86216666Y-109434761D01*
X86121428Y-109482380D01*
X85835714Y-109482380D01*
X85740476Y-109434761D01*
X85692857Y-109387142D01*
%TO.C,C12*%
X107027142Y-24752857D02*
X107074761Y-24800476D01*
X107122380Y-24943333D01*
X107122380Y-25038571D01*
X107074761Y-25181428D01*
X106979523Y-25276666D01*
X106884285Y-25324285D01*
X106693809Y-25371904D01*
X106550952Y-25371904D01*
X106360476Y-25324285D01*
X106265238Y-25276666D01*
X106170000Y-25181428D01*
X106122380Y-25038571D01*
X106122380Y-24943333D01*
X106170000Y-24800476D01*
X106217619Y-24752857D01*
X107122380Y-23800476D02*
X107122380Y-24371904D01*
X107122380Y-24086190D02*
X106122380Y-24086190D01*
X106265238Y-24181428D01*
X106360476Y-24276666D01*
X106408095Y-24371904D01*
X106217619Y-23419523D02*
X106170000Y-23371904D01*
X106122380Y-23276666D01*
X106122380Y-23038571D01*
X106170000Y-22943333D01*
X106217619Y-22895714D01*
X106312857Y-22848095D01*
X106408095Y-22848095D01*
X106550952Y-22895714D01*
X107122380Y-23467142D01*
X107122380Y-22848095D01*
%TO.C,C11*%
X53947142Y-110837142D02*
X53899523Y-110884761D01*
X53756666Y-110932380D01*
X53661428Y-110932380D01*
X53518571Y-110884761D01*
X53423333Y-110789523D01*
X53375714Y-110694285D01*
X53328095Y-110503809D01*
X53328095Y-110360952D01*
X53375714Y-110170476D01*
X53423333Y-110075238D01*
X53518571Y-109980000D01*
X53661428Y-109932380D01*
X53756666Y-109932380D01*
X53899523Y-109980000D01*
X53947142Y-110027619D01*
X54899523Y-110932380D02*
X54328095Y-110932380D01*
X54613809Y-110932380D02*
X54613809Y-109932380D01*
X54518571Y-110075238D01*
X54423333Y-110170476D01*
X54328095Y-110218095D01*
X55851904Y-110932380D02*
X55280476Y-110932380D01*
X55566190Y-110932380D02*
X55566190Y-109932380D01*
X55470952Y-110075238D01*
X55375714Y-110170476D01*
X55280476Y-110218095D01*
%TO.C,C10*%
X83157142Y-60037142D02*
X83109523Y-60084761D01*
X82966666Y-60132380D01*
X82871428Y-60132380D01*
X82728571Y-60084761D01*
X82633333Y-59989523D01*
X82585714Y-59894285D01*
X82538095Y-59703809D01*
X82538095Y-59560952D01*
X82585714Y-59370476D01*
X82633333Y-59275238D01*
X82728571Y-59180000D01*
X82871428Y-59132380D01*
X82966666Y-59132380D01*
X83109523Y-59180000D01*
X83157142Y-59227619D01*
X84109523Y-60132380D02*
X83538095Y-60132380D01*
X83823809Y-60132380D02*
X83823809Y-59132380D01*
X83728571Y-59275238D01*
X83633333Y-59370476D01*
X83538095Y-59418095D01*
X84728571Y-59132380D02*
X84823809Y-59132380D01*
X84919047Y-59180000D01*
X84966666Y-59227619D01*
X85014285Y-59322857D01*
X85061904Y-59513333D01*
X85061904Y-59751428D01*
X85014285Y-59941904D01*
X84966666Y-60037142D01*
X84919047Y-60084761D01*
X84823809Y-60132380D01*
X84728571Y-60132380D01*
X84633333Y-60084761D01*
X84585714Y-60037142D01*
X84538095Y-59941904D01*
X84490476Y-59751428D01*
X84490476Y-59513333D01*
X84538095Y-59322857D01*
X84585714Y-59227619D01*
X84633333Y-59180000D01*
X84728571Y-59132380D01*
%TO.C,C9*%
X54423333Y-71467142D02*
X54375714Y-71514761D01*
X54232857Y-71562380D01*
X54137619Y-71562380D01*
X53994761Y-71514761D01*
X53899523Y-71419523D01*
X53851904Y-71324285D01*
X53804285Y-71133809D01*
X53804285Y-70990952D01*
X53851904Y-70800476D01*
X53899523Y-70705238D01*
X53994761Y-70610000D01*
X54137619Y-70562380D01*
X54232857Y-70562380D01*
X54375714Y-70610000D01*
X54423333Y-70657619D01*
X54899523Y-71562380D02*
X55090000Y-71562380D01*
X55185238Y-71514761D01*
X55232857Y-71467142D01*
X55328095Y-71324285D01*
X55375714Y-71133809D01*
X55375714Y-70752857D01*
X55328095Y-70657619D01*
X55280476Y-70610000D01*
X55185238Y-70562380D01*
X54994761Y-70562380D01*
X54899523Y-70610000D01*
X54851904Y-70657619D01*
X54804285Y-70752857D01*
X54804285Y-70990952D01*
X54851904Y-71086190D01*
X54899523Y-71133809D01*
X54994761Y-71181428D01*
X55185238Y-71181428D01*
X55280476Y-71133809D01*
X55328095Y-71086190D01*
X55375714Y-70990952D01*
%TO.C,C8*%
X90517142Y-45906666D02*
X90564761Y-45954285D01*
X90612380Y-46097142D01*
X90612380Y-46192380D01*
X90564761Y-46335238D01*
X90469523Y-46430476D01*
X90374285Y-46478095D01*
X90183809Y-46525714D01*
X90040952Y-46525714D01*
X89850476Y-46478095D01*
X89755238Y-46430476D01*
X89660000Y-46335238D01*
X89612380Y-46192380D01*
X89612380Y-46097142D01*
X89660000Y-45954285D01*
X89707619Y-45906666D01*
X90040952Y-45335238D02*
X89993333Y-45430476D01*
X89945714Y-45478095D01*
X89850476Y-45525714D01*
X89802857Y-45525714D01*
X89707619Y-45478095D01*
X89660000Y-45430476D01*
X89612380Y-45335238D01*
X89612380Y-45144761D01*
X89660000Y-45049523D01*
X89707619Y-45001904D01*
X89802857Y-44954285D01*
X89850476Y-44954285D01*
X89945714Y-45001904D01*
X89993333Y-45049523D01*
X90040952Y-45144761D01*
X90040952Y-45335238D01*
X90088571Y-45430476D01*
X90136190Y-45478095D01*
X90231428Y-45525714D01*
X90421904Y-45525714D01*
X90517142Y-45478095D01*
X90564761Y-45430476D01*
X90612380Y-45335238D01*
X90612380Y-45144761D01*
X90564761Y-45049523D01*
X90517142Y-45001904D01*
X90421904Y-44954285D01*
X90231428Y-44954285D01*
X90136190Y-45001904D01*
X90088571Y-45049523D01*
X90040952Y-45144761D01*
%TO.C,C7*%
X103953333Y-81627142D02*
X103905714Y-81674761D01*
X103762857Y-81722380D01*
X103667619Y-81722380D01*
X103524761Y-81674761D01*
X103429523Y-81579523D01*
X103381904Y-81484285D01*
X103334285Y-81293809D01*
X103334285Y-81150952D01*
X103381904Y-80960476D01*
X103429523Y-80865238D01*
X103524761Y-80770000D01*
X103667619Y-80722380D01*
X103762857Y-80722380D01*
X103905714Y-80770000D01*
X103953333Y-80817619D01*
X104286666Y-80722380D02*
X104953333Y-80722380D01*
X104524761Y-81722380D01*
%TO.C,C6*%
X117923333Y-46067142D02*
X117875714Y-46114761D01*
X117732857Y-46162380D01*
X117637619Y-46162380D01*
X117494761Y-46114761D01*
X117399523Y-46019523D01*
X117351904Y-45924285D01*
X117304285Y-45733809D01*
X117304285Y-45590952D01*
X117351904Y-45400476D01*
X117399523Y-45305238D01*
X117494761Y-45210000D01*
X117637619Y-45162380D01*
X117732857Y-45162380D01*
X117875714Y-45210000D01*
X117923333Y-45257619D01*
X118780476Y-45162380D02*
X118590000Y-45162380D01*
X118494761Y-45210000D01*
X118447142Y-45257619D01*
X118351904Y-45400476D01*
X118304285Y-45590952D01*
X118304285Y-45971904D01*
X118351904Y-46067142D01*
X118399523Y-46114761D01*
X118494761Y-46162380D01*
X118685238Y-46162380D01*
X118780476Y-46114761D01*
X118828095Y-46067142D01*
X118875714Y-45971904D01*
X118875714Y-45733809D01*
X118828095Y-45638571D01*
X118780476Y-45590952D01*
X118685238Y-45543333D01*
X118494761Y-45543333D01*
X118399523Y-45590952D01*
X118351904Y-45638571D01*
X118304285Y-45733809D01*
%TO.C,C5*%
X67123333Y-110837142D02*
X67075714Y-110884761D01*
X66932857Y-110932380D01*
X66837619Y-110932380D01*
X66694761Y-110884761D01*
X66599523Y-110789523D01*
X66551904Y-110694285D01*
X66504285Y-110503809D01*
X66504285Y-110360952D01*
X66551904Y-110170476D01*
X66599523Y-110075238D01*
X66694761Y-109980000D01*
X66837619Y-109932380D01*
X66932857Y-109932380D01*
X67075714Y-109980000D01*
X67123333Y-110027619D01*
X68028095Y-109932380D02*
X67551904Y-109932380D01*
X67504285Y-110408571D01*
X67551904Y-110360952D01*
X67647142Y-110313333D01*
X67885238Y-110313333D01*
X67980476Y-110360952D01*
X68028095Y-110408571D01*
X68075714Y-110503809D01*
X68075714Y-110741904D01*
X68028095Y-110837142D01*
X67980476Y-110884761D01*
X67885238Y-110932380D01*
X67647142Y-110932380D01*
X67551904Y-110884761D01*
X67504285Y-110837142D01*
%TO.C,C4*%
X23983333Y-113377142D02*
X23935714Y-113424761D01*
X23792857Y-113472380D01*
X23697619Y-113472380D01*
X23554761Y-113424761D01*
X23459523Y-113329523D01*
X23411904Y-113234285D01*
X23364285Y-113043809D01*
X23364285Y-112900952D01*
X23411904Y-112710476D01*
X23459523Y-112615238D01*
X23554761Y-112520000D01*
X23697619Y-112472380D01*
X23792857Y-112472380D01*
X23935714Y-112520000D01*
X23983333Y-112567619D01*
X24840476Y-112805714D02*
X24840476Y-113472380D01*
X24602380Y-112424761D02*
X24364285Y-113139047D01*
X24983333Y-113139047D01*
%TO.C,C3*%
X35373333Y-114647142D02*
X35325714Y-114694761D01*
X35182857Y-114742380D01*
X35087619Y-114742380D01*
X34944761Y-114694761D01*
X34849523Y-114599523D01*
X34801904Y-114504285D01*
X34754285Y-114313809D01*
X34754285Y-114170952D01*
X34801904Y-113980476D01*
X34849523Y-113885238D01*
X34944761Y-113790000D01*
X35087619Y-113742380D01*
X35182857Y-113742380D01*
X35325714Y-113790000D01*
X35373333Y-113837619D01*
X35706666Y-113742380D02*
X36325714Y-113742380D01*
X35992380Y-114123333D01*
X36135238Y-114123333D01*
X36230476Y-114170952D01*
X36278095Y-114218571D01*
X36325714Y-114313809D01*
X36325714Y-114551904D01*
X36278095Y-114647142D01*
X36230476Y-114694761D01*
X36135238Y-114742380D01*
X35849523Y-114742380D01*
X35754285Y-114694761D01*
X35706666Y-114647142D01*
%TO.C,C2*%
X117923333Y-81627142D02*
X117875714Y-81674761D01*
X117732857Y-81722380D01*
X117637619Y-81722380D01*
X117494761Y-81674761D01*
X117399523Y-81579523D01*
X117351904Y-81484285D01*
X117304285Y-81293809D01*
X117304285Y-81150952D01*
X117351904Y-80960476D01*
X117399523Y-80865238D01*
X117494761Y-80770000D01*
X117637619Y-80722380D01*
X117732857Y-80722380D01*
X117875714Y-80770000D01*
X117923333Y-80817619D01*
X118304285Y-80817619D02*
X118351904Y-80770000D01*
X118447142Y-80722380D01*
X118685238Y-80722380D01*
X118780476Y-80770000D01*
X118828095Y-80817619D01*
X118875714Y-80912857D01*
X118875714Y-81008095D01*
X118828095Y-81150952D01*
X118256666Y-81722380D01*
X118875714Y-81722380D01*
%TO.C,C1*%
X63313333Y-60037142D02*
X63265714Y-60084761D01*
X63122857Y-60132380D01*
X63027619Y-60132380D01*
X62884761Y-60084761D01*
X62789523Y-59989523D01*
X62741904Y-59894285D01*
X62694285Y-59703809D01*
X62694285Y-59560952D01*
X62741904Y-59370476D01*
X62789523Y-59275238D01*
X62884761Y-59180000D01*
X63027619Y-59132380D01*
X63122857Y-59132380D01*
X63265714Y-59180000D01*
X63313333Y-59227619D01*
X64265714Y-60132380D02*
X63694285Y-60132380D01*
X63980000Y-60132380D02*
X63980000Y-59132380D01*
X63884761Y-59275238D01*
X63789523Y-59370476D01*
X63694285Y-59418095D01*
%TD*%
M02*
